<svg height="51.345" viewBox="0 0 62.145 51.345" width="62.145" xmlns="http://www.w3.org/2000/svg"><g fill="#bc061b"><path d="m-1014.865 268.571c.511.71-2.361 6.569-2.392 6.752.271.165-.487 2.782-.57 2.844l-3.837-.745-.618-.2s1.345-1.679 1.482-1.879c.249-.075.579-1.9.579-1.9s.4-3.641.455-3.871a9.627 9.627 0 0 1 .53-2.367s1.464-2.264 3.314-1.546 1.057 2.912 1.057 2.912z" transform="translate(1032.621 -231.403)"/><path d="m-1023.118 290.883a1.577 1.577 0 0 1 .09-.365l-1.648-2.628a1.863 1.863 0 0 0 -2.011 1.364s-1.1 1.6-4.167 1.353c-.046.123-.873.819 2.727 1.68a4.309 4.309 0 0 0 2.311.076 8.161 8.161 0 0 1 .743.47s1.25.323 1.364.113a5.929 5.929 0 0 0 .281-.758s.52-.855.31-1.305z" transform="translate(1037.337 -243.544)"/><path d="m-942.991 288.664a5.714 5.714 0 0 1 -.452-2.693c.034-.578-.406-1.358-.984-1.367-1.477-.021-1.456 1.754-1.456 1.754a2.621 2.621 0 0 1 -1.588 1.139c-1.012-.356-.934.406-.934.406a2.464 2.464 0 0 0 2.884 1.039c.043 0 .621-.157.664-.155.2.84 1.132.389 1.642.323a.308.308 0 0 0 .224-.446z" transform="translate(992.51 -241.766)"/><path d="m-942.427 272.246c-.212 3.71-.273 4.253-.287 4.632a1.317 1.317 0 0 0 1.315 1.552c1.066.04 1.145-1.686 1.145-1.686-.016-.04.636-5.762.636-5.762l.058-.674c-.316-1.044-1.14-2.342-2.55-.693l-.031.257a13.562 13.562 0 0 0 -.259 2.241" transform="translate(989.426 -233.201)"/><path d="m-1032.145 235.884-.627-6.137.322-4.94s-.349-.786-2.037-.892c-.349-.128-2.172-.6-.711-2.815a3 3 0 0 0 -1.581-3.994c-.19.02-2.091-1.236-4.2 2.2 0 0 .948 1.664.658 1.969-.086.114-.046.454-.305.594-.045.048-.384.548.454.714a2.648 2.648 0 0 1 .9 1.361c.013.122 1.131-.117 1.131-.117l.032.295s-2.211 1.7-1.969 2.622c-.016.177-.022 5.083.218 5.321-.031.179.9 9.49.9 9.49l.2 3.851s-.233 1.474-.252 1.971c-.016.434.063 1.241-.009 1.735-.047.216-.71 3.072-.71 3.072l.541.327 2.091.5.511-.229.319-6.481.112-1.606.62-2.535 3.223-2.738.237-.366z" transform="translate(1042.774 -205.004)"/><path d="m-1029.077 268.914.8 1.266a7.092 7.092 0 0 0 1.14 1.791l1.756 2.2 1.686-1.595c-.1-.218-.841-1.437-1.11-1.867a9.162 9.162 0 0 0 -.492-.788 5.13 5.13 0 0 1 -.571-2.078c0-.175.015-1.669.015-1.669" transform="translate(1036.31 -231.76)"/><path d="m-1023.019 239.143 1.993 2.717 1.18-1.893-1.084-2.4-1.766-3.365" transform="translate(1033.021 -214.4)"/><path d="m-1015.636 251.512-.124-.665s-.259-.555-.531-.654a3.869 3.869 0 0 0 -.3-1.12l-.516-1.385-.372-.873-1.18 1.893.528.877.371.763.214.65.1.431.14.349.964 1.963.377-.547 1.1-.208z" transform="translate(1030.655 -221.248)"/><path d="m-1016.459 285.761c.168-.334-.407-1.315-.5-1.841a18.929 18.929 0 0 0 -1.636-2.965 13.214 13.214 0 0 1 -1.175-1.472l-1.686 1.626 1.382 1.748.611 1.382.888 1.979a4.262 4.262 0 0 1 -.445 1.53c-.093.135-1.331 2.107.972 1.076.524-.448 1.07-1.025 1.07-1.025s.839-1.152.519-2.038z" transform="translate(1032.172 -238.985)"/><path d="m-1039.231 294.4s-.234 1.3-.3 1.538c-.062-.078.16.476.16.476l-.063.29a7.124 7.124 0 0 1 -2.513-.114 1.16 1.16 0 0 0 -.39-.121 11.76 11.76 0 0 0 -1.369-.149c-2.075-.345-.859-1.172-.7-1.171 2.467.011 3.081-1.249 3.081-1.249s.066-.878 1.357-.751a.814.814 0 0 1 .737 1.251z" transform="translate(1044.903 -246.399)"/><path d="m-983.689 271.783a2.537 2.537 0 0 0 -.712 1.605c.018.347 0 .7.015 1.043l.119 2.991a10.772 10.772 0 0 1 .139 1.521c-.005.583.011 2.766-.016 2.934a2.34 2.34 0 0 0 3.321.926l.016-.01c.5-2.719.554-6.911.825-8.734a2.133 2.133 0 0 0 .021-.243 2.371 2.371 0 0 0 -1.687-2.291 2 2 0 0 0 -2.041.257z" transform="translate(1012.054 -234.578)"/><path d="m-983.195 252.245-1.246 7.642q-.069.415-.123.833a4.378 4.378 0 0 0 .6 2.8 2.113 2.113 0 0 0 3.1.7 2.815 2.815 0 0 0 .927-2.458l.335-1.379.312-1.607.255-.8.664-4.08v-2.562c-.494-1.632-2.823-1.021-4.014.127z" transform="translate(1012.16 -223.159)"/><path d="m-970.782 212.293.46-2.679a.7.7 0 0 0 -.057-.418l-.58-1.238a.674.674 0 0 1 -.035-.091l-.2-.636s-1.06-3.422-1.156-3.769c-.717-3.276-2.748-3.574-2.9-3.626-2.7-.677-2.94-1.706-2.94-1.706-.989-.246-.331-1.15-.331-1.15 1.213-1.943 1.03-2.466 1.03-2.793.016-2.694-3-3.124-3.655-3.284a.755.755 0 0 0 -.273-.019c-3.864.5-3.122 3.034-3.122 3.034h.369c-.4.991.142 1.214.142 1.214l-.018.578a.738.738 0 0 1 -.06.261c-.5 1.171.132 1.115.132 1.115l.41.4a.7.7 0 0 1 .21.553c-.027.365-.039.909.141.87l.056-.008a.7.7 0 0 1 .464 1.291c-2.229 1.472-.8 1.835-.783 2.666.079 3.315-.567 6.98-.567 10.059 0 1.562.532 5.563.754 7.166a.7.7 0 0 0 .778.6l8.187-.953.049-.007c.206-.04 1.707-.331 2.431-.515a.705.705 0 0 0 .524-.591 13.99 13.99 0 0 0 .063-1.958.657.657 0 0 1 .106-.389c.617-.924.414-3.3.363-3.791a.691.691 0 0 1 .008-.186z" transform="translate(1012.161 -190.878)"/><path d="m-988.2 293.612c-.234 1.111-1.458 1.053-1.77 1.238-3.4 1.794-.551 2.173.207 2.138 1.044-.048 4.214-.237 4.465-.633a7.956 7.956 0 0 0 .424-1.67 9.038 9.038 0 0 0 .161-1.471c-.339-.636-.7-1.956-2.476-1.276a2.57 2.57 0 0 0 -1.011 1.674z" transform="translate(1015.964 -245.644)"/><path d="m-935.8 239.1 2.862 2.367s.5-2.245.952.265c0 0 5.4 1.294 4.766 4.066 0 0 .769.208.134.743a2.277 2.277 0 0 1 -.421 1.236s.335.74-.744 1.2c-.236.132.076.535-.635.34 0 0-1.33-.043-1.608-.47s-2.612-3.631-2.612-3.631 1.175.045.577-.786c-.124-.342-.707-2.762-.707-2.762l-1.216-.919z" transform="translate(985.668 -217.058)"/><path d="m-914.743 277.812a5.72 5.72 0 0 1 -2.427-1.251c-.442-.373-1.331-.489-1.683-.031-.9 1.17.532 2.216.532 2.216a2.623 2.623 0 0 1 -.039 1.953c-.892.6-.234.991-.234.991a2.463 2.463 0 0 0 2.559-1.69c.027-.035.246-.591.274-.625.79.345.989-.673 1.242-1.121a.308.308 0 0 0 -.224-.442z" transform="translate(976.627 -237.219)"/><path d="m-958.7 245.994a.143.143 0 0 0 -.163.059l-.584.877a.139.139 0 0 0 .048.2 34.388 34.388 0 0 0 4.218 1.87 1.1 1.1 0 0 0 1.268-.468l.008-.028a1.171 1.171 0 0 0 -.939-1.424c-.956-.18-3.339-.922-3.856-1.086z" transform="translate(998.523 -220.799)"/><path d="m-947.374 234.371c-1.229.134-1.278 1.765-1.395 1.936l-.906 2.8v.008c-.015.064-.345 1.477-.658 1.611l-.057.054a.785.785 0 0 0 -.575.868c.01.331.188 1.221.894 1.084.848-.165.708-.519 1.088-1.062.033-.047 1.669-5.123 1.957-5.609a1.28 1.28 0 0 0 -.345-1.687z" transform="translate(993.902 -214.492)"/><path d="m-939.892 231.809-.016-.044a26.214 26.214 0 0 0 -1.474-5.368 5.747 5.747 0 0 0 -1.076-1.678c-.186-.282-.025-.819.106-1.13.4.139.624-.381.624-.381l.364-.745a1.5 1.5 0 0 0 -.122-2.311l-.151-.112-.127-.153c-3.51-2.043-4.51.978-4.488 1.067a1.546 1.546 0 0 0 -.1 1.039l-.09.1s.155.04.024.317c-.581.526-.25.544-.25.653.178.165.155.657.155.657l.179.657a.142.142 0 0 0 .1.1 3.033 3.033 0 0 0 .777.146c.622-.052.726.985.726.985s-.137.493-.354.516l-.474.157a2.274 2.274 0 0 0 -.838 1.936 19.89 19.89 0 0 0 .682 3.361l1.16 2.294.522 3.347 1.109.61a3.209 3.209 0 0 0 4.313-1.186s.458-.89.454-.9c-.117-.248-1.405-3.489-1.735-3.934z" transform="translate(991.62 -206.244)"/><path d="m-933.821 223.065c-.26-1.787-1.625-1.495-1.625-1.495a1.41 1.41 0 0 0 -.138 2.273l.013.011.2.381.213.853v.027l.086 1.355.017 1.372.014.06.281.6.243-.243-.017.693.173-.346.225.242v-.208l.191.208a5.028 5.028 0 0 0 .219-.657l.035-.061a2.215 2.215 0 0 0 .613-1.448 8.784 8.784 0 0 0 -.743-3.617z" transform="translate(985.826 -207.532)"/><path d="m-923.973 271.3c-.043-.007-4.5-3.655-4.5-3.655l-.535-.414c-1.049-.3-2.586-.309-1.964 1.769l.2.165c1.01 1.131.986.683 1.744 1.432.013.012.031.012.047.019a.153.153 0 0 0 .05.077c3 2.187 3.428 2.533 3.739 2.75a1.316 1.316 0 0 0 2.016-.266c.611-.877-.797-1.877-.797-1.877z" transform="translate(983.124 -232.256)"/><path d="m-931.7 254.631a1.579 1.579 0 0 0 -1.921-.558c-1.669.458-1.19 2.337-1.118 3a21.127 21.127 0 0 0 1.244 4.279s1.017 1.407 2.1 1.061c1.526-.486.7-2.67.7-2.67a.148.148 0 0 1 -.046-.086l-.523-3.413a3.221 3.221 0 0 0 -.435-1.613" transform="translate(985.153 -225.135)"/><path d="m-1004.24 199.263a.8.8 0 0 0 .076-.648 3.656 3.656 0 0 0 -5.2-1.509 3.138 3.138 0 0 0 -1.036 2.923.828.828 0 0 0 .108.346.49.49 0 0 1 -.005.607c.017.152-.563.82-.563.82s-.128.286.484.488l-.188.352s-.068.114.245.267c0 0-.332.262.347.575.016.14-.221.993.963.863l.476-.054 3.57-1.562.041-.33s.675-.5.5-.724a3.032 3.032 0 0 1 -.289-.908.8.8 0 0 1 .023-.41 6.609 6.609 0 0 1 .448-1.096z" transform="translate(1026.424 -193.944)"/><path d="m-1003.8 227.15-.541-2.742a.713.713 0 0 1 -.011-.08l-.361-3.941c0-.014 0-.029 0-.043l-.026-.7c0-.015 0-.031 0-.046l.027-1.44c0-.019 0-.035 0-.053.032-.358.388-4.513-.463-5.279a26.149 26.149 0 0 1 -1.867-1.928l-.351-.177s-.4-1.358-.385-1.462l-3.567 1.762c.18 0 1.4 1.039 1.061 1.868-.071.189-2.4 3.833-2.545 5.1a1.011 1.011 0 0 0 -.005.1c-.014 1.537.044 3.865.088 5.325a6.279 6.279 0 0 1 -.481 2.6l-.53 1.27a.809.809 0 0 1 -.047.1l-1.662 2.853.178.131s-.741.758-.178 1.306c0 .131.533.862.712.418 0 0 .948.47.741-.287 0 0 .652.392.533-.34a1.027 1.027 0 0 1 .084-.623.919.919 0 0 0 .151-.415c.005-.078.011-.158.016-.226a.8.8 0 0 1 .1-.325l.479-.867.048.8a.811.811 0 0 1 -.063.366l-.26.608-.169.444-.178.473a.825.825 0 0 1 -.072.145l-.831 1.318c-.01.016-.018.03-.027.047a23.735 23.735 0 0 0 -1.7 3.812c0 .461.759 1.893 1.219 1.869l3.219-.167c.394-.021.742-1.273.847-1.445.212-.347.535-.808.657-.979a.748.748 0 0 1 .11-.125l4.567-4.216a.8.8 0 0 0 .241-.421 4.206 4.206 0 0 1 .951-1.945.866.866 0 0 0 .233-.423 4.18 4.18 0 0 0 .053-1.117s.095-.145.005-.903z" transform="translate(1029.162 -200.857)"/><path d="m-995.03 272.514.012-.4c-1.4-1.266-3.865-.752-4.212 1.1l.07.417a4.04 4.04 0 0 0 .305 1l.736 1.621.056.165.461 1.936a.894.894 0 0 0 .093.237l.267.471.292.575a.9.9 0 0 1 .1.41v3.26l.156.048 4.183-.507.523-.18s-2.519-9.398-3.042-10.153z" transform="translate(1020.105 -234.603)"/><path d="m-993.666 294.641a1.933 1.933 0 0 1 .057.331.526.526 0 0 1 .214.255.886.886 0 0 1 -.618 1.173c-.493.133-1.119.305-1.335.373a.15.15 0 0 0 -.146-.209s-2.356.66-2.593.708a6.94 6.94 0 0 1 -3.049 0c-.793-.871.77-.941 1.358-.938a.886.886 0 0 0 .416-.1l.325-.168c-.182-.161 1.187-.917 1.187-.917a1.7 1.7 0 0 1 1.8-2.007c2.113-.073 2.384 1.499 2.384 1.499z" transform="translate(1021.258 -246.4)"/><path d="m-996.335 202.62a2.425 2.425 0 0 1 1.457 1.207 3.225 3.225 0 0 1 .436 1.983 1.923 1.923 0 0 0 .026.7l.342 1.5a3.678 3.678 0 0 1 .466 2.809l-.06.185-1.008-1.519a6.13 6.13 0 0 1 -1.924-2.885c-.107-.4.233-1.3-.332-1.521-.505-.488-.542-.7-.542-.7l-.1-.191-.038-.271.088-.278c.047-.078.2-.467.2-.467l.07-.245.071-.153s.231-.246.848-.154z" transform="translate(1019.224 -197.242)"/><path d="m-1018.66 248.708a1.248 1.248 0 0 0 1.05-.239c.644-.4.13-1.654.13-1.654" transform="translate(1030.655 -221.248)"/><path d="m-938.819 262.59.523-3.412s.888-2.685-1.6-2.776c-1.729-.063-1.835 1.874-1.964 2.526a20.384 20.384 0 0 0 -.173 4.133s.232 1.888 1.369 1.882c1.601-.007 1.84-2.319 1.845-2.353z" transform="translate(989.07 -226.453)"/><path d="m-1040.75 237.087s-1.083 6.2-.735 6.981 1.708 1.016 1.917.2.7-6.64.7-6.64.268-1.387-.513-1.523-1.369.982-1.369.982z" transform="translate(1043.085 -215.428)"/><path d="m-1042.164 250.587s-.381 3.3-.412 5.15c-.006.341-.128 1.632-.074 1.755.348.785 1.459 1.093 1.667.279s.7-6.64.7-6.64.269-1.388-.513-1.524-1.368.98-1.368.98z" transform="translate(1043.687 -222.758)"/><path d="m-970.006 269.519a2.536 2.536 0 0 0 .339 1.723c.214.274.4.569.611.846l1.815 2.38a10.707 10.707 0 0 1 .987 1.166c.33.48 1.6 2.258 1.672 2.411a2.34 2.34 0 0 0 3.251-1.149l.008-.017c-1.152-2.513-3.033-6.291-3.859-7.939a2.63 2.63 0 0 0 -1.238-1.2 2.557 2.557 0 0 0 -3.586 1.783z" transform="translate(1004.255 -232.475)"/><path d="m-972.191 249.6.264 7.252q.013.395.042.788a3.886 3.886 0 0 0 1.133 2.437 2.195 2.195 0 0 0 3.172 0 3.03 3.03 0 0 0 .72-2.627l-.23-1.146-.006-1.535.094-.788-.142-3.872-.689-1.2a2.214 2.214 0 0 0 -3.71-.2z" transform="translate(1005.425 -221.78)"/><path d="m-958.878 288.154c.457 1.039-.572 1.7-.718 2.038-1.721 3.441.819 2.087 1.415 1.617.82-.648 3.287-2.648 3.26-3.115a7.947 7.947 0 0 0 -.628-1.6 9.084 9.084 0 0 0 -.726-1.29c-.646-.32-1.712-1.18-2.757.405a2.571 2.571 0 0 0 .154 1.945z" transform="translate(998.906 -242.131)"/><path d="m-988.707 223.488s3.609-6.4 4.665-6.448 3.085.638 2.235 2.584-5.352 6.408-5.352 6.408-1.548 1.066-2.023-.263a2.273 2.273 0 0 1 .475-2.281z" transform="translate(1014.722 -205.081)"/><path d="m-1004.812 229.637 6.506.692s1.075.338 1.208.771c.341 1.112.742 2.228-.77 2.176s-7.975-1.064-7.975-1.064-1.321-.546-1.133-1.4 2.164-1.175 2.164-1.175z" transform="translate(1024.32 -211.922)"/><path d="m-1001.972 252.393.464 7.242c.016.262.353 2.648 1.02 3.286a2.494 2.494 0 0 0 3.414-.184 2.163 2.163 0 0 0 .484-2.224l-.1-1.562-.048-1.534.072-.79a20.847 20.847 0 0 0 -.249-3.867 7.413 7.413 0 0 0 -.722-1.179 2.214 2.214 0 0 0 -3.714-.095z" transform="translate(1021.594 -223.262)"/><path d="m-1041.061 264.406a8.334 8.334 0 0 1 .373 1.627c-.109.028-.241-.224-.241-.224a4.31 4.31 0 0 0 -.279-.774 1.725 1.725 0 0 0 0 1.253c.229.378.231.6.092.526a4.11 4.11 0 0 1 -.383-.265s-.019.085-.167-.026-.247-.1-.345-.214a2.017 2.017 0 0 1 -.386-1.1c.066-.325-.271-1.361.107-1.447s.9-.266.969.069a1.418 1.418 0 0 0 .26.575z" transform="translate(1043.583 -230.384)"/></g></svg>