<svg id="Layer_1" data-name="Layer 1" xmlns="http://www.w3.org/2000/svg" viewBox="0 0 421.68 509.96"><defs><style>.cls-1{fill:#333;}</style></defs><title>baby</title><path class="cls-1" d="M485,542c-1.69-6.89-6.18-13.26-7.05-20.16-6.2-49-27.25-92.17-52.48-133.53-15.72-25.77-35.61-48-66.95-53.94-16.66-3.15-33.88-3.37-50.93-4.49-.21-.58-.41-1.17-.6-1.79,47.84-32.53,68.55-114,39.06-163.92a84.53,84.53,0,0,0-17.89-21.38c-58.51-49.23-158-12-176.57,65.49a350.58,350.58,0,0,1-16.85,53.23C130,272.78,123,284.81,106.53,281c-.59,3-2.69,6.82-1.54,8.75,12.69,21.44,30.26,36.88,52.76,46-41.39,7.63-63.49,37.62-78.43,76-32.27,82.84-11.45,150.21,61.55,195.91,23.45,14.68,48.77,18.49,75.29,6.77,3.66-1.61,9.81-1,13.32,1,25.57,15.05,53.7,22.88,78.12,4.15,19-14.62,37.33-16.47,58.5-14.61,3.22.28,6.49,0,9.73,0,0,.45,46.05-1.88,68.89-4.55C471.37,597.32,491.64,569,485,542ZM270,295c-30.43-1.56-52.68-17.13-67.78-42.75-2.43-4.14-.09-13.93,3.51-18.19a103.71,103.71,0,0,1,25-21.31c18-11,36.94-20.54,55.57-30.52,1.25-.67,3.87-.66,4.78.18,13.34,12.46,26.38,25.24,39.73,37.69,11,10.28,13,20.69,4.15,34C319.36,277.46,299.57,293.35,270,295Zm-32.91,4c20.8,8.2,40.32,9.29,58.08,3.34-.1,8.21,2.41,19.16,4.25,26.93l-2.17-.31L297,329c-12,3-23,6-35,6-11.87,1.11-23.46.29-35-.92C230.83,325.22,235.72,309,237.12,299ZM338.78,268.9a37.53,37.53,0,0,1,4.73-4.42,58.24,58.24,0,0,1-1.43,6.07c-7.89,22.54-24.67,41.59-36.18,53.68m-132.51,8,.26.12-.08,0Zm111.22,285c-3.56,1.44-7.76,1.29-14.22,2.24-10.6-3.05-23.36-6.59-36-10.63-.74-.24-1.25-5.33-.11-6.67,16.63-19.55,17.16-34.5,2.69-56.41-1.53-2.31.14-9.16,2.6-11.31,26.28-22.91,30.38-53.06,28.92-85.21-.09-2.09-.55-4.16-.84-6.24,1.91,1.43,4.43,2.47,5.64,4.36C288.64,471.1,303.85,494.9,318.6,519c.7,1.13-2.59,6.58-4.93,7.39-9.8,3.37-20.27,4.92-29.88,8.67-12.22,4.78-23.27,10.79-23.48,27.22-.24,18.23,9.66,28.47,24.26,36.09a25.25,25.25,0,0,0,4.11,1.31l20,6.44C300.67,609.86,292.79,613.93,284.61,617.23Zm-53.93-81.34c-2-2.13-85.22-19-91.19-29.51-6.52-11.53-13.23-23.2-17.72-35.58C113.5,448,119.2,427.44,136,410.3c16.56-16.89,37.38-24,59.11-14.66,20.83,8.95,40.57,21.33,58.82,34.86,6.12,4.55,6.15,17.29,8.1,23.52C254,515,231.34,532.38,230.68,535.89Zm214.43,38.32c-.29.44-71.55,23-113.11,22.79-43.72-.27-57.84-23.46-58.66-25.57-5.78-15,3-27.32,22.71-30.38,24.05-3.73,48.41-5.58,72.65-8.13,11.07-1.17,23.44-16.19,21.35-21.11-8.95-21.06-16.73-42.61-25.32-63.82-1-2.4-4.34-3.83-6.6-5.71,0,1.3,31.87,68.72-4.13,76.72-18.31,4.07-67.12-73.29-68-74.17-27.08-28-56-53.61-95.43-62-40.31-8.58-79.46,21.8-83.38,63-.53,5.65-4.33,12.51-2.27,16.61,7,13.89-6.77,23.95-4.93,35.66.86,5.44,7.92,12.07,13.63,14.18,18.76,6.94,38.55,11.09,57.26,18.12C191,538,211.72,545.38,229.42,557c13.05,8.58-5.29,39.48-5.44,39.51C142,611,107.61,566.61,107.61,566.61c-54.47-54.48-31.45-150.16,8.46-196.52,22.36-26,53.41-25.88,83.49-27.6,4.3-.24,8.62-.38,12.93-.48a12.06,12.06,0,0,0,8.52-.11c14.46-.08,28.94.35,43.4.35,0-.95,50.43-.35,75.61,1,28,1.54,49,15.84,65.32,37.39,35.3,46.61,53.6,100.33,66.33,156.78C476.09,557.06,448,569.7,445.11,574.21Z" transform="translate(-64.58 -120.58)"/><path class="cls-1" d="M186.6,400c-31.35.08-52.13,20.65-52.32,51.79-.19,30.19,23.07,55,51.69,55.19s57.25-27.39,57.2-55.2C243.12,423.5,217.31,399.88,186.6,400Zm-2.27,95.78c-23.18-.41-42.79-23.08-42.12-48.68.58-22.29,18.29-37,44.25-36.71,24.36.27,45.74,19.58,45.82,41.39S207.61,496.15,184.33,495.74Z" transform="translate(-64.58 -120.58)"/></svg>