<?xml version="1.0" encoding="utf-8"?>
<!-- Generator: Adobe Illustrator 23.0.1, SVG Export Plug-In . SVG Version: 6.00 Build 0)  -->
<svg version="1.1" id="Layer_1" xmlns="http://www.w3.org/2000/svg" xmlns:xlink="http://www.w3.org/1999/xlink" x="0px" y="0px"
	 viewBox="0 0 612 792" style="enable-background:new 0 0 612 792;" xml:space="preserve">
<style type="text/css">
	.st0{fill:url(#SVGID_1_);}
	.st1{fill:url(#SVGID_2_);}
	.st2{fill:url(#SVGID_3_);}
	.st3{fill:#775C3E;}
	.st4{fill:#76513A;}
	.st5{fill:#EBE5CD;}
	.st6{fill:#87674E;}
	.st7{fill:#B3A485;}
	.st8{fill:#887054;}
	.st9{fill:#806B4B;}
	.st10{fill:#BFB18F;}
	.st11{fill:#9B8166;}
	.st12{fill:#A78F73;}
	.st13{fill:#DDC1A7;}
	.st14{fill:#805338;}
	.st15{fill:#9A6575;}
	.st16{fill:#DEB49B;}
	.st17{fill:none;}
	.st18{enable-background:new    ;}
	.st19{fill:#C48B95;}
	.st20{fill:none;stroke:#9A6575;stroke-width:1.1641;stroke-miterlimit:10;}
	.st21{fill:#D7A29E;}
	.st22{fill:#DDB9BE;}
	.st23{fill:url(#SVGID_4_);}
	.st24{fill:#935E43;}
	.st25{fill:#E7A671;}
	.st26{fill:#296B5E;}
	.st27{fill:#5F422A;}
	.st28{fill:#E1B88A;}
	.st29{fill:#E7CCA6;}
	.st30{fill:#2D202C;}
</style>
<linearGradient id="SVGID_1_" gradientUnits="userSpaceOnUse" x1="304.6631" y1="360.2298" x2="305.7574" y2="587.3155" gradientTransform="matrix(1 0 0 -1 0 794)">
	<stop  offset="0.1002" style="stop-color:#EDB96D"/>
	<stop  offset="0.2241" style="stop-color:#DDB07D"/>
	<stop  offset="0.4317" style="stop-color:#EDDAB9"/>
	<stop  offset="0.5978" style="stop-color:#EBD7B6"/>
	<stop  offset="0.84" style="stop-color:#EEC5B1"/>
</linearGradient>
<polygon class="st0" points="202.93,207.18 408.58,207.18 405.27,402.18 393.01,424.87 202.93,433.28 "/>
<linearGradient id="SVGID_2_" gradientUnits="userSpaceOnUse" x1="304.334" y1="373.269" x2="304.5706" y2="422.3779" gradientTransform="matrix(1 0 0 -1 0 794)">
	<stop  offset="0.1002" style="stop-color:#EDB96D"/>
	<stop  offset="0.2241" style="stop-color:#EEB86C"/>
	<stop  offset="0.4317" style="stop-color:#E2B262"/>
	<stop  offset="0.7654" style="stop-color:#D7A561"/>
</linearGradient>
<path class="st1" d="M202.42,371.13c0,0,8.48,7.5,17,9.77s8.8,4.67,18.05,4.67s38.2-6.74,50.69-7.22s117.54-2.4,117.54-2.4
	l0.84,33.77l-204.12,10.52L202.42,371.13L202.42,371.13z"/>
<linearGradient id="SVGID_3_" gradientUnits="userSpaceOnUse" x1="304.7444" y1="150.991" x2="306.0204" y2="415.8228" gradientTransform="matrix(1 0 0 -1 0 794)">
	<stop  offset="0.1002" style="stop-color:#FDC1AC"/>
	<stop  offset="0.3755" style="stop-color:#EEC9A7"/>
	<stop  offset="0.6622" style="stop-color:#EDDABE"/>
	<stop  offset="1" style="stop-color:#EDCEC3"/>
</linearGradient>
<path class="st2" d="M203.26,400.4c0,0,10.01-0.35,11.05,5.52s0.12,15.89,3.22,15.7c3.09-0.18,5.27-2.18,4.18-9.82
	c-1.09-7.63-3.07-12.54,0.28-13.27s4.44,4.54,6.62,3.45s1.09-3.64,4-5.64s4.54,5.45,7.82,4.91s2.29,5.82,6.42,6s2.31,0.18,2.31-6.73
	s-1.45-10.18,2-10.18s5.27,4.73,9.09,3.45c3.82-1.27,6.36-3.64,4.54-8c-1.82-4.36,5.09-3.64,5.09-2.18c0,1.45-3.82,10-3.64,14.18
	s16.72,6,15.09-2c-1.64-8-0.91-9.27,1.64-9.63c2.54-0.36,2,5.45,4.54,5.45s3.82-2.73,6.91-6.73s2,1.82,3.09,4.54
	c1.09,2.73,4.36,1.09,6.73,0.91c2.36-0.18,2.73,4.91,5.82,3.82s2-4.73,3.09-8.73s3.53-3.82,3.67-0.91s0.51,2.18,2.32,3.45
	s6.36,2.91,9.45-0.18s6-3.82,7.63-1.45c1.64,2.36,4.18,2.36,5.45,0.36c1.27-2,3.64-4.18,4.18-2.73c0.55,1.45,3.64,0.36,4.18,3.82
	s-2.73,11.67,0.73,14.2c3.45,2.52,6.91-0.02,9.27-7.66s4.18-11.09,7.63-9.09s4.18-0.83,5.09-2.87s3.09-5.67,3.82-2.76
	s-1.45,6.36,0,8s-0.73,3.09,2.73,8.54c0,0,1.82,1.82,2.36-4.73s-1.64-7.82,1.45-9.63s3.09,0.55,3.09,3.82
	c0,3.27,2.36,0.18,3.09,2.54c0.73,2.36,2.36,0.73,4.18,2.91s4,12.18,11.45,11.09s0,240.38,0,240.38H203.26V400.4z"/>
<path class="st3" d="M283.32,557.46c0,0-1.85,0.5-4.6,1.25c-3.73,1.02-9.13,2.51-13.88,3.88c-4.92,1.42-9.15,2.71-10.1,3.21
	l0.14,10.65l0.21,16.48l137.6,0.23v-16.51c0,0-22.9-8.17-25.59-10.01C364.39,564.79,283.32,557.46,283.32,557.46z"/>
<path class="st4" d="M290.13,555.16l-1.92,2.29l6.23,23.5l12.79-0.34l29.06-18.4c0,0,20.87-17.7,19.72-22.94
	c0,0,0.56-4.63-0.77-6.28S290.13,555.16,290.13,555.16z"/>
<path class="st5" d="M319.89,554.31c0,0-1.32,2.51-1.02,3.13c0.3,0.62,32.99-12.85,36.38-24.44l-23.76,13.55
	C331.5,546.54,320.54,552.92,319.89,554.31z"/>
<path class="st6" d="M286.04,550.39c0.11,0.74-12.23-2.48-13.26-3.16c-5.11-3.35-7.21-10.29-7.42-16.08
	c-0.25-6.53,1.4-12.96,2.14-19.45c0.79-6.82,0.96-15.88-5.3-20.06c-11.14-7.46-4.19-19.82-1.13-30.24
	c3.04-10.36-1.84-23.97,7.25-32.02c7.29-6.45,27.57-16.82,34.71-17.05c7.14-0.23,33.18,1.61,42.4,10.6
	c6.77,6.6,37.39,37.42,21.16,45.52c-0.68,0.34-1.54,1.13-0.99,1.66c0.25,0.24,0.64,0.21,0.98,0.14c1.69-0.35,3.58-1.2,4.99-0.21
	c1.16,0.81,1.31,2.46,1.27,3.88c-0.2,7.49-2.25,16.7-7.4,22.42c-3.93,4.37-5.74,11-7.27,16.53c-1.79,6.5-3.02,12.54-2.81,19.28
	c0.01,0.29,0.02,0.6-0.1,0.86c-0.15,0.35-0.48,0.58-0.79,0.79c-3.81,2.56-7.64,5.08-11.42,7.67c-2.47,1.68-5.64,4.83-8.81,4.74
	c-2.34-0.07-17.28-15.47-17.28-15.47l14.62-26.39L325,466.01l-34.37,0.55l-4.02,24.49l-4.39,33.63
	C282.23,524.68,286.04,550.36,286.04,550.39z"/>
<path class="st5" d="M296.51,454.18c0,0-3.79-0.84-9.49-4.43c-5.69-3.58-13.07-2.53-15.6,4.43c-2.38,6.55-3.03,14-3.09,20.92
	c-0.03,3.62,0.2,7.23,0.86,10.79c0.81,4.35,3.14,8.36,3.55,12.79c0.64,7.12-3.11,13.28-1.02,20.45c2.32,7.96,6.26,15.3,9.91,22.7
	c1.99,4.04,4.01,8.11,6.41,11.93c0.66,1.05,1.46,2.74,2.48,3.49c2.71,2,8.49,2.17,11.75,2.46c2.75,0.24,5.57,0.27,8.21-0.53
	c1.95-0.59,3.74-1.61,5.5-2.63c3.23-1.86,6.46-3.71,9.7-5.57c1.92-1.1,9.57-3.71,8.96-6.12c-0.25-0.98-3.63-3.2-4.37-4.41
	c-1.17-1.9-1.89-4.1-1.99-6.33c-0.19-3.97,1.41-7.84,3.59-11.16c2.18-3.32,4.94-6.22,7.43-9.32c3.7-4.61,3.83-9.82,3.87-15.51
	c0.03-3.97,0.13-8.13-1.29-11.9c-1.54-4.08-4.81-7.26-6.1-11.46c-2.32-7.5-1.26-14.63-0.51-22.23c0.4-4.02,0.75-9.12-4.6-9.12
	c-6.32,0-4.85-0.63-9.28,0s-16.57,12.86-23.82,10.54"/>
<path class="st5" d="M355.4,521.57c0.53-0.46,0.88-1.2,1.28-1.79c1.52-2.28,2.92-4.65,4.18-7.09c2.92-5.67,6.06-13.03,4.12-19.48
	c-0.9-2.99-2.75-6.15-6.14-6.56c-4.58-0.56-8.01,2.96-8.12,7.31c-0.12,4.55,2,9.09,0.58,13.6c-0.64,2.01-1.5,3.96-1.93,6.03
	c-0.42,2.07-0.36,4.35,0.78,6.13c0.84,1.32,2.99,2.81,4.67,2.22C355.02,521.85,355.22,521.73,355.4,521.57z"/>
<path class="st7" d="M285.5,536.6c0,0,5.58,4.54,9.77,4.75c4.2,0.2,15.24-4.75,15.24-4.75l-6.19-1.04l-6.63,0.34l-6.68-0.7
	C291.03,535.19,285.89,536.2,285.5,536.6z"/>
<path class="st8" d="M285.5,536.6c0,0,3.42-2.71,5.25-2.54c1.82,0.17,2.82,1.05,3.87,0.83s6.19-2.04,8.73-1.6s7.18,3.31,7.18,3.31
	s-10.6-0.33-12.51,0s-3.4,1.1-5.66,0S285.5,536.6,285.5,536.6z"/>
<path class="st9" d="M304.53,485.16c0,0,8.1-5.91,12.27-5.98c4.16-0.08,10.6,3.94,12.42,5.15s0.91,0.83,0.91,0.83
	s-1.21-0.23-6.21-1.74c-5-1.51-7.65-2.44-10.22-1.22s-7.02,3.8-7.94,3.8S304.3,486.67,304.53,485.16z"/>
<polygon class="st10" points="309.11,584.63 316.29,593.15 323.83,593.15 367.09,566.63 358.88,554.02 "/>
<path class="st9" d="M289.39,487.96c0,0-4.09-4.16-8.03-4.24s-8.56,3.56-9.46,4.24c-0.91,0.68-0.68,2.5-0.53,2.8
	s6.59-4.92,9.92-4.62s5.07,2.04,6.21,2.27S289.39,487.96,289.39,487.96z"/>
<path class="st5" d="M282.53,550.5c0,0,0.21,4.44,1.8,7.61c1.59,3.18,8.37,12.61,9.96,14.73s1.91,2.75,1.91,2.75
	s0.74-8.26-2.86-13.03c-3.6-4.77-7.3-12.18-7.3-12.18l-3.51-0.41V550.5z"/>
<path class="st5" d="M310.52,575.59c0,0,1.19-9.46,3-11.58c1.82-2.12,30.39-11.61,34.43-15.65s8.08-9.09,8.08-9.09
	s1.01,1.82,0.91,3.53c-0.1,1.72-33.62,24.94-33.62,24.94L310.52,575.59z"/>
<polygon class="st11" points="284.9,559.13 284.11,569.05 296.26,586.71 301.4,581.07 "/>
<path class="st11" d="M307.66,586.71l-4.13-5.76c0,0,52.1-34.32,53.41-38.14c0,0,1.94,10.21,1.94,11.21S308.28,584.45,307.66,586.71
	z"/>
<polygon class="st10" points="282.38,566.55 280.37,566.55 279.82,573.69 289.84,586.34 292.29,580.95 "/>
<path class="st12" d="M295.04,561.62c0,0,8.32,1.59,17.67,0C312.71,561.62,302.77,566.65,295.04,561.62z"/>
<path class="st13" d="M336.58,585.34l18.6,7.75l37.5,0.06c0,0-5.48-5.8-13.26-12.19s-14.14-9.43-14.55-12.96L336.58,585.34z"/>
<path class="st14" d="M268.36,592.92c0,0,11.57-21.68,15.75-23.88l0.78-9.91c0,0-0.92-1.75-1.1-2.28c0,0-23.93,30.37-25.43,36.06h10
	V592.92z"/>
<polygon class="st15" points="239.25,633.92 274.8,593.95 392.22,593.95 357.77,633.92 "/>
<polygon class="st16" points="258.37,587.54 278.72,558.7 260.5,563.85 254.83,573.58 255.08,592.92 "/>
<polygon class="st3" points="228.4,438.69 230.99,433.28 233.3,438.69 241.08,438.98 235.26,444.57 237.22,451.89 230.82,447.17 
	224.71,451.37 226.61,444.92 220.39,438.87 "/>
<polygon class="st15" points="262.11,593.95 227.94,633.83 220.14,633.83 255.14,593.95 "/>
<polygon class="st15" points="271.63,593.95 237.38,633.92 229.58,633.92 264.66,593.95 "/>
<rect x="280.84" y="603.03" class="st17" width="63.73" height="23.18"/>
<g class="st18">
	<path class="st19" d="M282.76,604.34c1.16-0.23,3.52-0.41,5.73-0.41c2.71,0,4.36,0.26,5.79,1.11c1.37,0.73,2.36,2.07,2.36,3.84
		c0,1.75-1.02,3.38-3.23,4.19v0.06c2.24,0.61,3.9,2.3,3.9,4.83c0,1.78-0.81,3.17-2.04,4.16c-1.43,1.13-3.81,1.78-7.71,1.78
		c-2.18,0-3.81-0.15-4.8-0.29V604.34z M287.16,611.84h1.46c2.33,0,3.58-0.96,3.58-2.42c0-1.48-1.14-2.27-3.14-2.27
		c-0.96,0-1.51,0.06-1.89,0.12V611.84z M287.16,620.54c0.44,0.06,0.96,0.06,1.72,0.06c2.01,0,3.78-0.76,3.78-2.82
		c0-1.98-1.77-2.76-3.99-2.76h-1.51V620.54z"/>
	<path class="st19" d="M314.75,623.13c-0.82,0.41-2.65,0.84-5.03,0.84c-6.78,0-10.27-4.22-10.27-9.81c0-6.69,4.77-10.42,10.71-10.42
		c2.3,0,4.04,0.47,4.83,0.87l-0.9,3.52c-0.9-0.38-2.15-0.73-3.72-0.73c-3.52,0-6.26,2.12-6.26,6.49c0,3.93,2.33,6.4,6.28,6.4
		c1.34,0,2.82-0.29,3.7-0.64L314.75,623.13z"/>
	<path class="st19" d="M322.55,623.69l-6.29-19.61h4.86l2.39,8.29c0.67,2.33,1.28,4.57,1.75,7.01h0.09
		c0.49-2.36,1.11-4.68,1.77-6.93l2.5-8.38h4.71l-6.61,19.61H322.55z"/>
</g>
<polygon class="st15" points="392.22,606.17 367.76,633.92 359.81,633.92 392.22,598.2 "/>
<polygon class="st15" points="392.22,615.54 376.78,633.92 369.64,633.92 392.22,608.7 "/>
<path class="st20" d="M263.63,617.82"/>
<path class="st21" d="M264.09,616.68c0,0,3.53-6.6,4.78-8.42s2.73-2.05,2.05,0c-0.29,0.33-1.55,2.19-0.19,1.64
	c1.45-0.59,2.33-2.14,2.52-3.7c0.11-0.94-1.44-6.25,0.13-6.02c1.52,0.23,1.29,1.02,1.86,2.73c0.57,1.71,1.82,2.84,2.39,1.36
	c0.57-1.48,0.37-3.41,1.1-5.46c0.72-2.05,1.75-2.27,1.86,0s-1.36,5.23,0,4.32s0.91-3.98,2.84-3.53c1.93,0.45,1.61,1.02,0.69,2.62
	c-0.92,1.59-6.42,4.55-4.29,5.57c2.12,1.02,4.74-0.91,5.02,1.02s0.1,1.36-2.31,1.59c-1.37,0.13-2.71-0.28-4.07-0.35
	c-0.36-0.02-0.77,0.08-0.95,0.4c-0.08,0.14-0.1,0.3-0.1,0.46c0.03,0.75,0.67,1.35,1.37,1.62c0.7,0.27,1.46,0.31,2.19,0.48
	c0.12,0.03,0.26,0.07,0.31,0.18c0.03,0.06,0.03,0.13,0.03,0.19c-0.04,0.54-0.55,0.95-1.08,1.07s-1.08,0.04-1.62-0.01
	c-0.19-0.02-2.65,0.26-2.59,0.55c0.15,0.8,0.48,1.53,0.28,2.4c-0.03,0.12-0.07,0.24-0.15,0.33c-0.18,0.18-0.48,0.12-0.73,0.04
	c-1.84-0.56-3.68-1.11-5.53-1.67c-3.32-1-5.7,1.65-7.78,3.97L264.09,616.68z"/>
<path class="st21" d="M364.78,610.91c0,0-3.31,6.71-4.5,8.57s-2.66,2.13-2.05,0.07c0.28-0.34,1.48-2.24,0.14-1.64
	c-1.43,0.64-2.26,2.22-2.4,3.78c-0.08,0.94,1.64,6.2,0.07,6.02c-1.53-0.18-1.33-0.98-1.95-2.67c-0.62-1.69-1.91-2.78-2.43-1.29
	c-0.52,1.5-0.26,3.42-0.92,5.49s-1.67,2.33-1.86,0.06c-0.19-2.27,1.2-5.27-0.14-4.32c-1.33,0.95-0.78,4.01-2.73,3.62
	s-1.64-0.97-0.78-2.59c0.87-1.62,6.27-4.75,4.11-5.71c-2.16-0.95-4.7,1.06-5.05-0.86c-0.35-1.92-0.15-1.36,2.26-1.67
	c1.36-0.17,2.72,0.19,4.08,0.22c0.36,0.01,0.77-0.11,0.94-0.43c0.07-0.14,0.09-0.31,0.08-0.47c-0.05-0.75-0.72-1.32-1.42-1.57
	c-0.71-0.25-1.47-0.27-2.21-0.41c-0.12-0.02-0.26-0.06-0.32-0.17c-0.03-0.06-0.04-0.13-0.03-0.19c0.03-0.54,0.52-0.97,1.05-1.11
	c0.52-0.14,1.08-0.07,1.62-0.04c0.19,0.01,2.64-0.34,2.57-0.63c-0.18-0.79-0.53-1.51-0.36-2.39c0.02-0.12,0.06-0.25,0.14-0.33
	c0.18-0.19,0.48-0.13,0.73-0.07c1.86,0.5,3.72,0.99,5.58,1.49c3.35,0.9,5.65-1.84,7.65-4.22L364.78,610.91z"/>
<rect x="358.12" y="598.93" class="st17" width="21.42" height="14.76"/>
<g class="st18">
	<path class="st22" d="M366.34,607.35c0,1.49-0.57,2.63-1.71,3.42c-0.69,0.48-1.58,0.72-2.67,0.72c-1.09,0-1.9-0.29-2.41-0.86
		c-0.28-0.31-0.42-0.69-0.42-1.12c0-0.36,0.12-0.65,0.35-0.88c0.23-0.23,0.54-0.34,0.91-0.34c0.3,0,0.56,0.09,0.76,0.26
		c0.2,0.17,0.3,0.39,0.3,0.64c0,0.43-0.29,0.75-0.86,0.97c-0.26,0.09-0.38,0.2-0.38,0.31c0,0.19,0.17,0.35,0.51,0.49
		c0.34,0.15,0.72,0.22,1.14,0.22c0.81,0,1.43-0.28,1.83-0.84c0.56-0.77,0.84-1.8,0.84-3.1c0-0.95-0.22-1.69-0.66-2.21
		s-1.07-0.78-1.89-0.78c-0.63,0-1.32,0.24-2.08,0.72c0.07-2.62,0.12-4.27,0.16-4.96c0.01-0.4,0.1-0.64,0.26-0.72
		s0.61-0.13,1.33-0.13c0.12,0,0.31,0,0.59,0s0.5,0,0.66,0h0.59c0.8,0,1.27-0.01,1.41-0.04s0.22-0.12,0.25-0.28
		c0.05-0.26,0.13-0.39,0.24-0.39s0.17,0.06,0.17,0.19c0,0.08-0.01,0.14-0.02,0.19l-0.04,0.4c-0.06,0.65-0.18,1.05-0.36,1.2
		s-0.62,0.23-1.32,0.23h-3.33c-0.05,0.4-0.09,1.6-0.12,3.6c0.66-0.31,1.36-0.47,2.08-0.47c1.2,0,2.14,0.32,2.83,0.95
		S366.34,606.24,366.34,607.35z"/>
	<path class="st22" d="M376.12,605.43c0,1.04-0.15,2.01-0.46,2.93s-0.73,1.66-1.27,2.22c-0.57,0.61-1.3,0.91-2.18,0.91
		c-1.21,0-2.21-0.59-2.99-1.78s-1.18-2.71-1.18-4.56c0-2.14,0.55-3.83,1.66-5.06c0.66-0.75,1.48-1.12,2.44-1.12
		c1.14,0,2.05,0.52,2.72,1.55C375.7,601.8,376.12,603.44,376.12,605.43z M374.23,604.8c0-1.73-0.19-3.17-0.58-4.29
		c-0.29-0.86-0.8-1.29-1.54-1.29c-1.47,0-2.2,1.95-2.2,5.85c0,4.09,0.77,6.13,2.32,6.13c0.72,0,1.24-0.59,1.55-1.78
		C374.09,608.33,374.23,606.79,374.23,604.8z"/>
</g>
<linearGradient id="SVGID_4_" gradientUnits="userSpaceOnUse" x1="220.7727" y1="488.4489" x2="262.6049" y2="550.7665" gradientTransform="matrix(1 0 0 -1 0 794)">
	<stop  offset="0.1002" style="stop-color:#E7A671;stop-opacity:0.3"/>
	<stop  offset="0.4801" style="stop-color:#E7A671"/>
	<stop  offset="0.8766" style="stop-color:#E7A671;stop-opacity:0.55"/>
</linearGradient>
<path class="st23" d="M210.71,359.48l17.23-14.74c0,0-11.71-38.42-6.2-55.51c5.51-17.08,38.29-55.67,55.74-62.11
	c0,0-17.76-0.92-22.97,1.84c-5.21,2.76-51.61,53.35-51.61,53.35l0.03,63.29L210.71,359.48z"/>
<g>
	<path class="st24" d="M223.38,531.99l-2.17-0.49l-0.01-1.46l8.33,2.05l0.01,1.76l-8.3,2.01l-0.01-1.46l2.17-0.52L223.38,531.99z
		 M224.41,533.72l1.91-0.41c0.54-0.12,1.31-0.25,1.88-0.37v-0.04c-0.58-0.09-1.37-0.23-1.89-0.34l-1.91-0.41L224.41,533.72z"/>
	<path class="st24" d="M225.32,542.71c-2.9,0.02-4.14-1.11-4.15-2.51c-0.01-1.73,1.76-2.5,4.07-2.52c2.48-0.02,4.14,0.84,4.15,2.56
		C229.39,542.06,227.51,542.69,225.32,542.71z M225.27,539.18c-1.9,0-2.98,0.32-2.98,1.08c0.01,0.69,1.12,0.96,2.99,0.95
		c1.79-0.01,2.98-0.29,2.98-1.01C228.25,539.5,227.15,539.17,225.27,539.18z"/>
	<path class="st24" d="M225.37,549.66c-2.9,0.02-4.14-1.11-4.15-2.51c-0.01-1.73,1.76-2.5,4.07-2.52c2.48-0.02,4.14,0.84,4.15,2.56
		C229.45,549.01,227.56,549.64,225.37,549.66z M225.32,546.13c-1.9,0-2.98,0.32-2.98,1.08c0.01,0.69,1.12,0.96,2.99,0.95
		c1.79-0.01,2.98-0.29,2.98-1.01C228.3,546.45,227.2,546.12,225.32,546.13z"/>
	<path class="st24" d="M225.42,556.61c-2.9,0.02-4.14-1.11-4.15-2.51c-0.01-1.73,1.76-2.5,4.07-2.52c2.48-0.02,4.14,0.84,4.15,2.56
		C229.5,555.96,227.61,556.59,225.42,556.61z M225.37,553.08c-1.9,0-2.98,0.32-2.98,1.08c0.01,0.69,1.12,0.96,2.99,0.95
		c1.79-0.01,2.98-0.29,2.98-1.01C228.35,553.39,227.25,553.06,225.37,553.08z"/>
	<path class="st24" d="M225.47,563.56c-2.9,0.02-4.14-1.11-4.15-2.51c-0.01-1.73,1.76-2.5,4.07-2.52c2.48-0.02,4.14,0.84,4.15,2.56
		C229.55,562.91,227.66,563.54,225.47,563.56z M225.42,560.03c-1.9,0-2.98,0.32-2.98,1.08c0.01,0.69,1.12,0.96,2.99,0.95
		c1.79-0.01,2.98-0.29,2.98-1.01C228.41,560.34,227.31,560.01,225.42,560.03z"/>
	<path class="st24" d="M225.52,570.5c-2.9,0.02-4.14-1.11-4.15-2.51c-0.01-1.73,1.76-2.5,4.07-2.52c2.48-0.02,4.14,0.84,4.15,2.56
		C229.6,569.85,227.71,570.49,225.52,570.5z M225.47,566.97c-1.9,0-2.98,0.32-2.98,1.08c0,0.69,1.12,0.96,2.99,0.95
		c1.79-0.01,2.98-0.29,2.98-1.01C228.46,567.29,227.36,566.96,225.47,566.97z"/>
	<path class="st24" d="M225.57,577.45c-2.9,0.02-4.14-1.11-4.15-2.51c-0.01-1.73,1.76-2.5,4.07-2.52c2.48-0.02,4.14,0.84,4.15,2.56
		C229.65,576.8,227.76,577.44,225.57,577.45z M225.52,573.92c-1.9,0-2.98,0.32-2.98,1.08c0.01,0.69,1.12,0.96,2.99,0.95
		c1.79-0.01,2.98-0.29,2.98-1.01C228.51,574.24,227.41,573.91,225.52,573.92z"/>
	<path class="st24" d="M225.62,584.4c-2.9,0.02-4.14-1.11-4.15-2.51c-0.01-1.73,1.76-2.5,4.07-2.52c2.48-0.02,4.14,0.84,4.15,2.56
		C229.7,583.75,227.81,584.38,225.62,584.4z M225.57,580.87c-1.9,0-2.98,0.32-2.98,1.08c0,0.69,1.12,0.96,2.99,0.95
		c1.79-0.01,2.98-0.29,2.98-1.01C228.56,581.19,227.46,580.86,225.57,580.87z"/>
	<path class="st24" d="M225.67,591.35c-2.9,0.02-4.14-1.11-4.15-2.51c-0.01-1.73,1.76-2.5,4.07-2.52c2.48-0.02,4.14,0.84,4.15,2.56
		C229.75,590.7,227.87,591.33,225.67,591.35z M225.62,587.82c-1.9,0-2.98,0.32-2.98,1.08c0.01,0.69,1.12,0.96,2.99,0.95
		c1.79-0.01,2.98-0.29,2.98-1.01C228.61,588.14,227.51,587.81,225.62,587.82z"/>
</g>
<path class="st25" d="M357.03,376.87c0.75-0.01,2.52-2.18,3.01-2.64c2.69-2.51,5.2-5.2,7.58-8.01c7.86-9.3,14.13-19.96,18.35-31.38
	c5.29-14.33,6.96-28.92,5.15-44.02c-0.06-0.47-0.11-0.95,0-1.4c0.15-0.58,0.55-1.06,0.94-1.51c4.68-5.45,9.51-13.38,15.29-17.54
	c1.07,5.42-0.06,12.24-0.15,17.81c-0.18,10.72-0.37,21.44-0.55,32.17c-0.31,17.95-0.62,35.89-0.93,53.84
	c-0.01,0.59-0.02,1.19-0.03,1.78C405.69,375.96,357.05,376.87,357.03,376.87z"/>
<g>
	<path class="st24" d="M378.85,248.81l-2.17-0.49l-0.01-1.46l8.33,2.05l0.01,1.76l-8.3,2.01l-0.01-1.46l2.17-0.52L378.85,248.81z
		 M379.89,250.53l1.91-0.41c0.54-0.12,1.31-0.25,1.88-0.37v-0.04c-0.58-0.09-1.37-0.23-1.89-0.34l-1.91-0.41L379.89,250.53z"/>
	<path class="st24" d="M380.79,259.53c-2.9,0.02-4.14-1.11-4.15-2.51c-0.01-1.73,1.76-2.5,4.07-2.52c2.48-0.02,4.14,0.84,4.15,2.56
		C384.87,258.88,382.99,259.51,380.79,259.53z M380.74,256c-1.9,0-2.98,0.32-2.98,1.08c0.01,0.69,1.12,0.96,2.99,0.95
		c1.79-0.01,2.98-0.29,2.98-1.01C383.73,256.31,382.63,255.98,380.74,256z"/>
	<path class="st24" d="M380.84,266.47c-2.9,0.02-4.14-1.11-4.15-2.51c-0.01-1.73,1.76-2.5,4.07-2.52c2.48-0.02,4.14,0.84,4.15,2.56
		C384.92,265.83,383.04,266.46,380.84,266.47z M380.79,262.95c-1.9,0-2.98,0.32-2.98,1.08c0.01,0.69,1.12,0.96,2.99,0.95
		c1.79-0.01,2.98-0.29,2.98-1.01C383.78,263.26,382.68,262.93,380.79,262.95z"/>
	<path class="st24" d="M380.9,273.42c-2.9,0.02-4.14-1.11-4.15-2.51c-0.01-1.73,1.76-2.5,4.07-2.52c2.48-0.02,4.14,0.84,4.15,2.56
		C384.97,272.77,383.09,273.41,380.9,273.42z M380.84,269.89c-1.9,0-2.98,0.32-2.98,1.08c0.01,0.69,1.12,0.96,2.99,0.95
		c1.79-0.01,2.98-0.29,2.98-1.01C383.83,270.21,382.73,269.88,380.84,269.89z"/>
	<path class="st24" d="M380.95,280.37c-2.9,0.02-4.14-1.11-4.15-2.51c-0.01-1.73,1.76-2.5,4.07-2.52c2.48-0.02,4.14,0.84,4.15,2.56
		C385.02,279.72,383.14,280.35,380.95,280.37z M380.89,276.84c-1.9,0-2.98,0.32-2.98,1.08c0.01,0.69,1.12,0.96,2.99,0.95
		c1.79-0.01,2.98-0.29,2.98-1.01C383.88,277.16,382.78,276.83,380.89,276.84z"/>
	<path class="st24" d="M381,287.32c-2.9,0.02-4.14-1.11-4.15-2.51c-0.01-1.73,1.76-2.5,4.07-2.52c2.48-0.02,4.14,0.84,4.15,2.56
		C385.07,286.67,383.19,287.3,381,287.32z M380.95,283.79c-1.9,0-2.98,0.32-2.98,1.08c0.01,0.69,1.12,0.96,2.99,0.95
		c1.79-0.01,2.98-0.29,2.98-1.01C383.93,284.11,382.83,283.78,380.95,283.79z"/>
	<path class="st24" d="M381.05,294.27c-2.9,0.02-4.14-1.11-4.15-2.51c-0.01-1.73,1.76-2.5,4.07-2.52c2.48-0.02,4.14,0.84,4.15,2.56
		C385.12,293.62,383.24,294.25,381.05,294.27z M381,290.74c-1.9,0-2.98,0.32-2.98,1.08c0.01,0.69,1.12,0.96,2.99,0.95
		c1.79-0.01,2.98-0.29,2.98-1.01C383.98,291.05,382.88,290.72,381,290.74z"/>
	<path class="st24" d="M381.1,301.22c-2.9,0.02-4.14-1.11-4.15-2.51c-0.01-1.73,1.76-2.5,4.07-2.52c2.48-0.02,4.14,0.84,4.15,2.56
		C385.17,300.57,383.29,301.2,381.1,301.22z M381.05,297.69c-1.9,0-2.98,0.32-2.98,1.08c0.01,0.69,1.12,0.96,2.99,0.95
		c1.79-0.01,2.98-0.29,2.98-1.01C384.03,298,382.93,297.67,381.05,297.69z"/>
	<path class="st24" d="M381.15,308.16c-2.9,0.02-4.14-1.11-4.15-2.51c-0.01-1.73,1.76-2.5,4.07-2.52c2.48-0.02,4.14,0.84,4.15,2.56
		C385.23,307.51,383.34,308.15,381.15,308.16z M381.1,304.63c-1.9,0-2.98,0.32-2.98,1.08c0.01,0.69,1.12,0.96,2.99,0.95
		c1.79-0.01,2.98-0.29,2.98-1.01C384.08,304.95,382.98,304.62,381.1,304.63z"/>
</g>
<rect x="217.64" y="265.32" class="st17" width="88.27" height="49.13"/>
<g class="st18">
	<path class="st26" d="M222.45,268.73h19.65v5.21h-15.62v8.46c1.11-0.37,2.16-0.65,3.15-0.83c0.99-0.18,1.96-0.27,2.91-0.27
		c3.45,0,6.21,0.9,8.27,2.69c2.06,1.79,3.09,4.16,3.09,7.11c0,3.42-1.32,6.22-3.96,8.4c-2.64,2.18-6.05,3.26-10.24,3.26
		c-2.75,0-4.99-0.57-6.72-1.7c-1.73-1.13-2.59-2.56-2.59-4.29c0-0.9,0.35-1.65,1.06-2.25c0.71-0.6,1.6-0.9,2.68-0.9
		c0.23,0,0.48,0.02,0.75,0.07c0.27,0.05,0.64,0.14,1.11,0.27l1.71,5.65c0.34,0.1,0.7,0.17,1.08,0.21c0.37,0.04,0.8,0.06,1.27,0.06
		c2.04,0,3.75-0.7,5.13-2.09c1.38-1.39,2.08-3.12,2.08-5.17c0-2.25-0.78-4.02-2.33-5.32c-1.56-1.29-3.7-1.94-6.44-1.94
		c-0.99,0-2,0.06-3.02,0.17c-1.02,0.11-2.02,0.29-3.02,0.51V268.73z"/>
	<path class="st26" d="M261.39,268.12c3.94,0,7.06,1.55,9.34,4.66c2.28,3.1,3.42,7.36,3.42,12.77s-1.14,9.66-3.41,12.75
		s-5.39,4.63-9.35,4.63c-3.94,0-7.04-1.54-9.29-4.63c-2.25-3.09-3.37-7.34-3.37-12.75c0-5.43,1.13-9.69,3.38-12.78
		S257.46,268.12,261.39,268.12z M261.44,270.93c-1.96,0-3.43,1.21-4.42,3.64c-0.99,2.43-1.49,6.02-1.49,10.78
		c0,4.9,0.49,8.58,1.48,11.04c0.99,2.45,2.46,3.68,4.44,3.68c1.97,0,3.45-1.21,4.44-3.64c0.99-2.43,1.48-6.07,1.48-10.92
		s-0.49-8.5-1.48-10.93C264.89,272.14,263.41,270.93,261.44,270.93z"/>
</g>
<rect x="219.48" y="225.02" class="st17" width="168.2" height="38.3"/>
<g class="st18">
	<path class="st27" d="M230.71,236.05c0,0.46-0.44,0.68-1.32,0.68c-0.98,0-1.75-0.35-2.31-1.06c-0.24-0.3-0.39-0.6-0.46-0.88
		c-0.07-0.28-0.17-1-0.31-2.15c-0.08-0.7-0.33-1.19-0.78-1.48c-0.44-0.29-1.16-0.44-2.15-0.46v5.13c0,0.22,0.2,0.35,0.6,0.41
		c0.11,0.01,0.4,0.02,0.87,0.03c0.16,0,0.25,0.04,0.25,0.13c0,0.1-0.11,0.15-0.32,0.15h-0.23c-0.11,0-0.66,0-1.64,0
		c-0.19,0-0.51,0-0.96,0c-0.44,0-0.73,0-0.87,0h-0.74c-0.28,0-0.42-0.05-0.42-0.15c0-0.08,0.18-0.12,0.55-0.13
		c0.59-0.01,0.91-0.08,0.96-0.2c0.05-0.05,0.08-0.27,0.08-0.64v-9c0-0.43-0.05-0.7-0.16-0.78c-0.11-0.09-0.43-0.14-0.97-0.15
		c-0.32,0-0.47-0.05-0.47-0.15c0-0.11,0.1-0.16,0.3-0.16c0.04,0,0.09,0.01,0.17,0.02l2.51,0.05c0.25,0,0.6-0.01,1.06-0.02
		c0.5-0.03,0.86-0.04,1.06-0.04c1.17,0,2.1,0.23,2.79,0.68c0.69,0.45,1.03,1.06,1.03,1.83c0,0.76-0.35,1.39-1.06,1.88
		c-0.71,0.49-1.66,0.79-2.87,0.87c-0.11,0.01-0.18,0.03-0.19,0.05c0,0.04,0.06,0.07,0.19,0.07c1.32,0.2,2.23,0.6,2.73,1.2
		c0.5,0.6,0.83,1.7,0.99,3.28c0.1,0.89,0.45,1.34,1.06,1.34c0.19,0,0.28-0.03,0.28-0.1c0-0.01-0.01-0.02-0.02-0.03
		c-0.06-0.12-0.09-0.22-0.09-0.29c0-0.23,0.14-0.34,0.42-0.34C230.56,235.64,230.71,235.78,230.71,236.05z M226.8,227.89
		c0-1.55-0.78-2.33-2.34-2.33c-0.42,0-0.7,0.05-0.85,0.15c-0.15,0.1-0.23,0.27-0.23,0.52v4.14c1.21,0.01,2.08-0.18,2.62-0.57
		S226.8,228.77,226.8,227.89z"/>
	<path class="st27" d="M238.24,234.76c0,0.11-0.1,0.3-0.29,0.58c-0.2,0.28-0.39,0.5-0.6,0.68c-0.54,0.48-1.27,0.72-2.17,0.72
		c-1.13,0-2.08-0.35-2.85-1.06c-0.76-0.71-1.14-1.58-1.14-2.62c0-1.09,0.36-1.99,1.09-2.72c0.72-0.73,1.63-1.09,2.71-1.09
		c0.9,0,1.65,0.23,2.25,0.68c0.6,0.45,0.93,1.03,0.96,1.74c-0.4,0.05-0.94,0.08-1.61,0.06h-1.32c-0.09,0-0.84,0.02-2.27,0.05
		c-0.06,0.36-0.09,0.7-0.09,1.02c0,1.09,0.24,1.94,0.73,2.53c0.48,0.59,1.17,0.88,2.05,0.88c0.5,0,0.91-0.1,1.21-0.29
		c0.3-0.2,0.63-0.57,0.98-1.12c0.05-0.09,0.12-0.13,0.21-0.13C238.18,234.65,238.24,234.69,238.24,234.76z M236.59,231.44
		c-0.05-1.3-0.59-1.96-1.63-1.96c-1.02,0-1.66,0.65-1.91,1.96H236.59z"/>
	<path class="st27" d="M247.4,232.92c0,1.09-0.36,1.99-1.07,2.72c-0.71,0.73-1.6,1.09-2.67,1.09c-0.83,0-1.48-0.26-1.93-0.78v3.8
		c0,0.24,0.01,0.38,0.03,0.42c0.02,0.04,0.08,0.08,0.18,0.11c0.19,0.03,0.56,0.05,1.11,0.05c0.15,0,0.23,0.05,0.23,0.15
		c0,0.08-0.08,0.11-0.25,0.11h-0.36c-0.09,0-0.23,0-0.44,0c-0.19,0-0.35,0-0.49,0c-0.08,0-0.28,0-0.62,0c-0.35,0-0.62,0-0.79,0h-1
		c-0.37,0-0.55-0.04-0.55-0.12c0-0.1,0.08-0.16,0.23-0.16h0.57c0.37,0,0.56-0.07,0.59-0.21c0.01-0.07,0.02-0.57,0.02-1.5v-8.12
		c0-0.3-0.17-0.45-0.51-0.42c-0.5,0-0.77,0-0.79,0c-0.11,0-0.17-0.04-0.17-0.12c0-0.1,0.14-0.16,0.42-0.16
		c0.69,0.01,1.32-0.13,1.89-0.42c0.16-0.09,0.29-0.13,0.38-0.13c0.1,0,0.17,0.04,0.2,0.12c0.03,0.08,0.05,0.33,0.07,0.74
		c0.47-0.58,1.13-0.86,2-0.86c1.1,0,1.99,0.35,2.69,1.04C247.05,230.96,247.4,231.85,247.4,232.92z M245.72,232.93
		c0-0.85-0.15-1.57-0.46-2.17c-0.41-0.83-1.03-1.24-1.88-1.24c-0.44,0-0.82,0.13-1.14,0.4c-0.32,0.27-0.49,0.59-0.51,0.97
		c-0.03,0.48-0.02,1.49,0.02,3.02c0.01,0.77,0.03,1.24,0.06,1.4c0.03,0.16,0.11,0.32,0.25,0.48c0.37,0.45,0.84,0.67,1.42,0.67
		c0.66,0,1.15-0.24,1.48-0.72C245.47,235.01,245.72,234.07,245.72,232.93z"/>
	<path class="st27" d="M257.4,235.98c0,0.08-0.14,0.12-0.42,0.13c-0.98,0.05-1.85,0.24-2.59,0.55c-0.05,0.02-0.09,0.03-0.13,0.03
		c-0.08,0-0.11-0.04-0.11-0.13v-0.91c-0.58,0.7-1.38,1.04-2.42,1.04c-0.92,0-1.59-0.23-1.99-0.7c-0.16-0.19-0.26-0.37-0.29-0.53
		s-0.05-0.6-0.05-1.31v-3.71c0-0.38-0.03-0.6-0.08-0.66c-0.05-0.06-0.22-0.1-0.51-0.11h-0.25c-0.34,0.02-0.51-0.02-0.51-0.13
		c0-0.08,0.11-0.11,0.32-0.11c0.23,0,0.55,0.01,0.98,0.04c0.21,0.01,0.34,0.02,0.38,0.02c0.44,0,0.85-0.02,1.23-0.06v4.53
		c0,0.83,0.06,1.38,0.19,1.65c0.2,0.42,0.61,0.63,1.23,0.63c0.67,0,1.16-0.24,1.47-0.71c0.23-0.35,0.34-0.9,0.34-1.65v-2.51
		c0-0.37-0.02-0.64-0.06-0.83V230c-0.01-0.16-0.05-0.26-0.12-0.28c-0.07-0.03-0.21-0.04-0.43-0.04c-0.53,0.01-0.79-0.04-0.79-0.15
		c0-0.06,0.13-0.1,0.4-0.1h0.17c0.1,0,0.44,0,1,0c0.76,0,1.22,0,1.4,0v4.55c0,0.78,0.02,1.28,0.06,1.48
		c0.04,0.21,0.13,0.33,0.29,0.36c0.16,0.03,0.51,0.05,1.06,0.05C257.33,235.87,257.4,235.91,257.4,235.98z M255.06,225.72
		l-1.72,1.56c-0.76,0.69-1.2,1.03-1.32,1.03c-0.08,0-0.11-0.03-0.11-0.08c0-0.02,0.01-0.05,0.04-0.1c0.14-0.29,0.35-0.72,0.62-1.27
		l0.6-1.14h0.62c0.02,0,0.11,0,0.26,0c0.16,0,0.38,0,0.66,0H255.06z"/>
	<path class="st27" d="M265.76,232.66c0,1.13-0.4,2.09-1.19,2.88c-0.79,0.79-1.75,1.19-2.87,1.19c-0.39,0-0.8-0.07-1.23-0.21
		c-0.43-0.14-0.72-0.21-0.87-0.21c-0.14,0-0.3,0.05-0.47,0.15c-0.18,0.1-0.31,0.15-0.4,0.15c-0.1,0-0.15-0.18-0.15-0.54v-8.47
		c0-1.1-0.08-1.69-0.25-1.78c-0.06-0.03-0.31-0.05-0.74-0.05c-0.3,0-0.45-0.04-0.45-0.13c0-0.08,0.07-0.11,0.21-0.11h0.26
		c0.69,0,1.36-0.12,2-0.38c0.19-0.08,0.32-0.11,0.4-0.11h0.08v5.12c0.48-0.62,1.2-0.93,2.16-0.93c1.06,0,1.91,0.31,2.55,0.94
		C265.44,230.8,265.76,231.63,265.76,232.66z M264.04,232.73c0-1.02-0.19-1.8-0.56-2.36c-0.37-0.55-0.9-0.83-1.57-0.83
		c-0.35,0-0.69,0.1-1.01,0.28c-0.32,0.19-0.53,0.43-0.65,0.71c-0.11,0.28-0.17,1.14-0.17,2.57c0,1.5,0.04,2.38,0.13,2.67
		c0.14,0.46,0.6,0.68,1.39,0.68c0.75,0,1.3-0.24,1.65-0.73C263.78,235,264.04,234,264.04,232.73z"/>
	<path class="st27" d="M270.6,236.42c0,0.1-0.08,0.15-0.25,0.15h-0.23c-0.03,0-0.36-0.01-1-0.03h-0.59c-0.1,0-0.6,0.01-1.51,0.02
		c-0.08,0.01-0.15,0.01-0.23,0.01c-0.19,0.01-0.28-0.04-0.28-0.14c0-0.07,0.07-0.11,0.21-0.11h0.49c0.35,0,0.53-0.06,0.53-0.2
		c0.01-0.07,0.02-0.49,0.02-1.27v-8.3c0-0.36-0.01-0.55-0.04-0.59c-0.04-0.09-0.14-0.13-0.3-0.13h-0.15h-0.53
		c-0.18,0-0.26-0.05-0.26-0.14c0-0.08,0.16-0.13,0.47-0.14c0.6-0.03,1.17-0.15,1.68-0.36l0.4-0.16l0.15-0.05
		c0.1,0.32,0.15,0.79,0.13,1.43v1.16v7.99c0,0.33,0.01,0.52,0.02,0.58c0.01,0.06,0.06,0.1,0.13,0.12c0.01,0.01,0.25,0.02,0.7,0.03
		C270.45,236.31,270.6,236.35,270.6,236.42z"/>
	<path class="st27" d="M275.34,236.44c0,0.1-0.11,0.15-0.32,0.15c0.01,0-0.14-0.01-0.45-0.03c-0.38-0.02-0.69-0.03-0.95-0.03h-1.97
		c-0.06,0.04-0.14,0.06-0.23,0.06c-0.14,0-0.21-0.04-0.21-0.12c0-0.12,0.13-0.17,0.38-0.17c0.48-0.01,0.74-0.04,0.78-0.09
		s0.07-0.27,0.07-0.68v-4.94c-0.01-0.27-0.03-0.43-0.05-0.48s-0.1-0.07-0.24-0.07h-0.55c-0.05,0-0.11,0-0.19,0
		c-0.14,0-0.21-0.04-0.21-0.11c0-0.07,0.11-0.1,0.32-0.11c0.83-0.03,1.55-0.2,2.15-0.51l0.19-0.1c0.1,0.16,0.15,0.46,0.15,0.89
		c0-0.02,0,0.03,0,0.16c0,0.13,0,0.34,0,0.63v4.44c0,0.43,0.01,0.69,0.03,0.76c0.02,0.08,0.09,0.12,0.2,0.15
		c0.19,0.04,0.47,0.06,0.83,0.06C275.26,236.31,275.34,236.35,275.34,236.44z M273.93,226.29c0,0.49-0.28,0.73-0.85,0.73
		c-0.24,0-0.44-0.07-0.6-0.2c-0.16-0.14-0.25-0.3-0.25-0.5c0-0.51,0.28-0.77,0.85-0.77C273.64,225.55,273.93,225.8,273.93,226.29z"
		/>
	<path class="st27" d="M282.98,230.92c0,0.5-0.28,0.75-0.85,0.75c-0.55,0-0.83-0.23-0.83-0.68c0-0.12,0.06-0.3,0.19-0.54
		c0.04-0.08,0.06-0.15,0.06-0.23c0-0.22-0.13-0.4-0.39-0.54c-0.26-0.14-0.58-0.21-0.97-0.21c-0.76,0-1.34,0.28-1.76,0.85
		c-0.42,0.56-0.62,1.36-0.62,2.38c0,1.15,0.21,2.04,0.64,2.66c0.43,0.62,1.03,0.94,1.81,0.94c0.53,0,1-0.14,1.42-0.42
		c0.19-0.13,0.43-0.38,0.74-0.75c0.06-0.05,0.12-0.08,0.17-0.08c0.13,0,0.19,0.04,0.19,0.13c0,0.14-0.22,0.41-0.66,0.8
		c-0.57,0.51-1.29,0.77-2.17,0.77c-1.11,0-2.03-0.34-2.75-1.03s-1.09-1.55-1.09-2.59c0-1.12,0.38-2.05,1.15-2.78
		c0.77-0.73,1.73-1.1,2.89-1.1c0.74,0,1.4,0.17,1.98,0.51C282.69,230.08,282.98,230.47,282.98,230.92z"/>
	<path class="st27" d="M291.36,235.81c0,0.19-0.22,0.38-0.67,0.58c-0.45,0.2-0.87,0.3-1.29,0.3c-0.87,0-1.32-0.39-1.35-1.16
		c-0.48,0.8-1.22,1.21-2.22,1.21c-0.54,0-0.98-0.14-1.34-0.42c-0.35-0.28-0.53-0.63-0.53-1.07c0-0.89,0.62-1.6,1.85-2.12
		c0.42-0.17,1.16-0.35,2.21-0.52v-0.41c0-0.96-0.06-1.59-0.17-1.89c-0.2-0.55-0.66-0.83-1.36-0.83c-0.44,0-0.81,0.1-1.11,0.31
		c-0.3,0.21-0.44,0.47-0.44,0.78c0,0.09,0.08,0.13,0.23,0.13c0.15,0,0.29,0.07,0.42,0.2c0.12,0.13,0.19,0.28,0.19,0.44
		c0,0.48-0.27,0.72-0.82,0.72c-0.29,0-0.52-0.08-0.71-0.25c-0.19-0.17-0.28-0.38-0.28-0.64c0-0.51,0.23-0.95,0.7-1.32
		c0.52-0.4,1.23-0.6,2.16-0.6c1.39,0,2.24,0.33,2.55,0.98c0.11,0.25,0.17,0.74,0.17,1.48v3.05c0,0.5,0.01,0.79,0.02,0.88
		c0.06,0.39,0.25,0.59,0.55,0.59c0.35,0,0.64-0.11,0.87-0.33c0.13-0.12,0.22-0.18,0.28-0.18S291.36,235.74,291.36,235.81z
		 M288.03,234.08v-1.19c-0.93,0.18-1.6,0.43-2,0.73s-0.61,0.7-0.61,1.2c0,0.35,0.12,0.63,0.34,0.86c0.23,0.22,0.52,0.33,0.87,0.33
		c0.53,0,0.96-0.26,1.29-0.78C287.99,235.1,288.03,234.72,288.03,234.08z"/>
	<path class="st27" d="M307.71,233.57c0,1.11-0.59,1.93-1.76,2.46c-0.57,0.26-1.38,0.42-2.44,0.49c-0.29,0.01-1.15,0.02-2.57,0.02
		h-2.31c-0.21,0-0.32-0.05-0.32-0.14c0-0.09,0.2-0.14,0.59-0.14c0.45,0,0.72-0.04,0.8-0.12c0.08-0.08,0.12-0.33,0.12-0.74v-8.82
		c0-0.48-0.03-0.76-0.08-0.83c-0.09-0.13-0.41-0.2-0.96-0.21c-0.34,0-0.51-0.06-0.51-0.17c0-0.1,0.16-0.15,0.47-0.15
		c0.01,0,0.09,0,0.23,0c0.14,0.03,0.26,0.05,0.38,0.05h3.69c1.36,0.01,2.38,0.21,3.04,0.59c0.78,0.45,1.17,1.09,1.17,1.94
		c0,0.74-0.32,1.34-0.96,1.82c-0.64,0.47-1.54,0.77-2.7,0.89v0.1c1.15,0.07,2.04,0.27,2.68,0.62
		C307.23,231.73,307.71,232.52,307.71,233.57z M305.18,227.95c0-1.04-0.28-1.74-0.83-2.09c-0.29-0.18-0.84-0.28-1.65-0.28
		c-0.21,0-0.55,0.02-1,0.05v4.73h0.17l1.04-0.03c0.72-0.02,1.28-0.24,1.67-0.66C304.98,229.25,305.18,228.68,305.18,227.95z
		 M305.72,233.39c0-1.37-0.64-2.22-1.93-2.54c-0.38-0.1-1.08-0.15-2.1-0.15v4.86c0,0.32,0.04,0.49,0.11,0.54
		c0.13,0.08,0.48,0.11,1.06,0.11c0.87,0,1.56-0.24,2.08-0.72C305.47,235.02,305.72,234.32,305.72,233.39z"/>
	<path class="st27" d="M317.09,233.02c0,1.05-0.37,1.94-1.12,2.65c-0.74,0.71-1.67,1.07-2.78,1.07c-1.15,0-2.11-0.36-2.87-1.07
		c-0.77-0.71-1.15-1.59-1.15-2.65c0-1.09,0.38-1.99,1.12-2.71s1.69-1.08,2.81-1.08c1.13,0,2.08,0.36,2.85,1.08
		S317.09,231.94,317.09,233.02z M315.37,233c0-1.19-0.21-2.12-0.64-2.79c-0.32-0.49-0.84-0.73-1.59-0.73
		c-0.71,0-1.26,0.31-1.65,0.94c-0.4,0.62-0.6,1.49-0.6,2.6c0,1.1,0.21,1.95,0.63,2.57c0.42,0.61,1.01,0.92,1.77,0.92
		c0.58,0,1.01-0.19,1.29-0.57C315.1,235.22,315.37,234.24,315.37,233z"/>
	<path class="st27" d="M321.92,236.42c0,0.1-0.08,0.15-0.25,0.15h-0.23c-0.03,0-0.36-0.01-1-0.03h-0.59c-0.1,0-0.6,0.01-1.51,0.02
		c-0.08,0.01-0.15,0.01-0.23,0.01c-0.19,0.01-0.28-0.04-0.28-0.14c0-0.07,0.07-0.11,0.21-0.11h0.49c0.35,0,0.53-0.06,0.53-0.2
		c0.01-0.07,0.02-0.49,0.02-1.27v-8.3c0-0.36-0.01-0.55-0.04-0.59c-0.04-0.09-0.14-0.13-0.3-0.13h-0.15h-0.53
		c-0.18,0-0.26-0.05-0.26-0.14c0-0.08,0.16-0.13,0.47-0.14c0.6-0.03,1.17-0.15,1.68-0.36l0.4-0.16l0.15-0.05
		c0.1,0.32,0.15,0.79,0.13,1.43v1.16v7.99c0,0.33,0.01,0.52,0.02,0.58c0.01,0.06,0.06,0.1,0.13,0.12c0.01,0.01,0.25,0.02,0.7,0.03
		C321.78,236.31,321.92,236.35,321.92,236.42z"/>
	<path class="st27" d="M326.67,236.44c0,0.1-0.11,0.15-0.32,0.15c0.01,0-0.14-0.01-0.45-0.03c-0.38-0.02-0.69-0.03-0.95-0.03h-1.97
		c-0.06,0.04-0.14,0.06-0.23,0.06c-0.14,0-0.21-0.04-0.21-0.12c0-0.12,0.12-0.17,0.38-0.17c0.48-0.01,0.74-0.04,0.78-0.09
		s0.07-0.27,0.07-0.68v-4.94c-0.01-0.27-0.03-0.43-0.05-0.48c-0.02-0.05-0.1-0.07-0.24-0.07h-0.55c-0.05,0-0.11,0-0.19,0
		c-0.14,0-0.21-0.04-0.21-0.11c0-0.07,0.11-0.1,0.32-0.11c0.83-0.03,1.55-0.2,2.15-0.51l0.19-0.1c0.1,0.16,0.15,0.46,0.15,0.89
		c0-0.02,0,0.03,0,0.16c0,0.13,0,0.34,0,0.63v4.44c0,0.43,0.01,0.69,0.03,0.76c0.02,0.08,0.08,0.12,0.2,0.15
		c0.19,0.04,0.47,0.06,0.83,0.06C326.58,236.31,326.67,236.35,326.67,236.44z M325.25,226.29c0,0.49-0.28,0.73-0.85,0.73
		c-0.24,0-0.44-0.07-0.6-0.2c-0.16-0.14-0.25-0.3-0.25-0.5c0-0.51,0.28-0.77,0.85-0.77C324.97,225.55,325.25,225.8,325.25,226.29z"
		/>
	<path class="st27" d="M334.69,229.53c0,0.08-0.12,0.11-0.36,0.11c-0.09,0-0.2,0-0.34,0h-0.11c-0.23,0-0.4,0.12-0.53,0.36
		c-0.08,0.21-0.15,0.41-0.23,0.62l-1.59,4.21c-0.09,0.22-0.21,0.55-0.38,1c-0.2,0.6-0.37,0.9-0.49,0.9c-0.09,0-0.18-0.1-0.26-0.31
		c-0.06-0.13-0.13-0.28-0.19-0.44c-1.02-2.38-1.54-3.56-1.55-3.55c-0.66-1.63-1.05-2.51-1.19-2.65c-0.11-0.1-0.29-0.14-0.53-0.13
		h-0.43c-0.13,0-0.19-0.04-0.19-0.11s0.09-0.11,0.26-0.11h1.32c0.2,0,0.6,0,1.19,0c0.64,0,0.98,0,1,0h0.09
		c0.13,0,0.19,0.04,0.19,0.11c0,0.09-0.2,0.13-0.59,0.13s-0.59,0.04-0.59,0.13c0,0.12,0.05,0.3,0.16,0.54
		c0.2,0.43,0.6,1.37,1.18,2.8c0.25,0.64,0.46,1.13,0.62,1.47c0.35-0.97,0.67-1.8,0.95-2.5c0.56-1.42,0.83-2.19,0.83-2.32
		c0-0.1-0.09-0.15-0.28-0.15c-0.1,0-0.18,0-0.25,0h-0.17c-0.16,0-0.25-0.04-0.25-0.11c0-0.07,0.08-0.1,0.23-0.1h1.17h0.72
		C334.5,229.42,334.69,229.46,334.69,229.53z"/>
	<path class="st27" d="M342.21,235.81c0,0.19-0.22,0.38-0.67,0.58c-0.45,0.2-0.87,0.3-1.29,0.3c-0.87,0-1.32-0.39-1.36-1.16
		c-0.48,0.8-1.22,1.21-2.22,1.21c-0.54,0-0.98-0.14-1.34-0.42c-0.35-0.28-0.53-0.63-0.53-1.07c0-0.89,0.62-1.6,1.85-2.12
		c0.42-0.17,1.16-0.35,2.21-0.52v-0.41c0-0.96-0.06-1.59-0.17-1.89c-0.2-0.55-0.66-0.83-1.36-0.83c-0.44,0-0.81,0.1-1.11,0.31
		c-0.29,0.21-0.44,0.47-0.44,0.78c0,0.09,0.08,0.13,0.23,0.13s0.29,0.07,0.42,0.2s0.19,0.28,0.19,0.44c0,0.48-0.28,0.72-0.82,0.72
		c-0.29,0-0.52-0.08-0.71-0.25s-0.28-0.38-0.28-0.64c0-0.51,0.23-0.95,0.7-1.32c0.52-0.4,1.23-0.6,2.15-0.6
		c1.39,0,2.24,0.33,2.55,0.98c0.11,0.25,0.17,0.74,0.17,1.48v3.05c0,0.5,0.01,0.79,0.02,0.88c0.06,0.39,0.25,0.59,0.55,0.59
		c0.35,0,0.64-0.11,0.87-0.33c0.13-0.12,0.22-0.18,0.28-0.18C342.18,235.71,342.21,235.74,342.21,235.81z M338.88,234.08v-1.19
		c-0.93,0.18-1.6,0.43-2,0.73s-0.61,0.7-0.61,1.2c0,0.35,0.12,0.63,0.34,0.86c0.23,0.22,0.52,0.33,0.87,0.33
		c0.53,0,0.96-0.26,1.29-0.78C338.84,235.1,338.88,234.72,338.88,234.08z"/>
	<path class="st27" d="M347.97,230.38c0,0.25-0.09,0.46-0.26,0.62c-0.18,0.16-0.4,0.24-0.68,0.24c-0.23,0-0.42-0.06-0.57-0.17
		c-0.15-0.11-0.23-0.26-0.23-0.43c0-0.15,0.06-0.28,0.17-0.39c0.11-0.11,0.17-0.19,0.17-0.23c0-0.16-0.14-0.24-0.42-0.24
		c-0.35,0-0.66,0.19-0.91,0.57c-0.29,0.44-0.43,1.27-0.43,2.46v3.21c0,0.13,0.05,0.21,0.16,0.24c0.11,0.03,0.43,0.05,0.97,0.06
		c0.14,0.02,0.21,0.07,0.21,0.13c0,0.08-0.08,0.11-0.25,0.11c-0.29,0-0.56,0-0.81,0s-0.73,0-1.44,0c-0.37,0-0.63,0-0.79,0
		c-0.16,0-0.37,0-0.62,0c-0.2,0-0.3-0.03-0.3-0.1c0-0.06,0.08-0.1,0.25-0.1h0.27c0.43,0,0.68-0.04,0.76-0.13
		c0.03-0.04,0.04-0.25,0.04-0.61v-4.5c0-0.6-0.1-0.95-0.31-1.04c-0.21-0.09-0.54-0.14-0.99-0.16c-0.15,0-0.23-0.04-0.23-0.11
		s0.06-0.11,0.19-0.11h0.13c0.19,0,0.38,0.01,0.57,0.02c0.19,0.02,0.27,0.02,0.25,0.02c0.47,0,0.98-0.11,1.55-0.34l0.25-0.1
		l0.15-0.05c0.05,0.26,0.08,0.52,0.08,0.78v0.33c0.4-0.74,0.97-1.11,1.7-1.11c0.4,0,0.74,0.11,1,0.32S347.97,230.06,347.97,230.38z"
		/>
	<path class="st27" d="M352.57,236.44c0,0.1-0.11,0.15-0.32,0.15c0.01,0-0.14-0.01-0.45-0.03c-0.38-0.02-0.69-0.03-0.95-0.03h-1.96
		c-0.06,0.04-0.14,0.06-0.23,0.06c-0.14,0-0.21-0.04-0.21-0.12c0-0.12,0.13-0.17,0.38-0.17c0.48-0.01,0.74-0.04,0.78-0.09
		c0.04-0.05,0.07-0.27,0.07-0.68v-4.94c-0.01-0.27-0.03-0.43-0.05-0.48s-0.1-0.07-0.24-0.07h-0.55c-0.05,0-0.11,0-0.19,0
		c-0.14,0-0.21-0.04-0.21-0.11c0-0.07,0.11-0.1,0.32-0.11c0.83-0.03,1.55-0.2,2.15-0.51l0.19-0.1c0.1,0.16,0.15,0.46,0.15,0.89
		c0-0.02,0,0.03,0,0.16c0,0.13,0,0.34,0,0.63v4.44c0,0.43,0.01,0.69,0.03,0.76c0.02,0.08,0.09,0.12,0.2,0.15
		c0.19,0.04,0.47,0.06,0.83,0.06C352.48,236.31,352.57,236.35,352.57,236.44z M351.15,226.29c0,0.49-0.28,0.73-0.85,0.73
		c-0.24,0-0.44-0.07-0.6-0.2s-0.25-0.3-0.25-0.5c0-0.51,0.28-0.77,0.85-0.77S351.15,225.8,351.15,226.29z"/>
	<path class="st27" d="M360.85,235.81c0,0.19-0.22,0.38-0.67,0.58c-0.45,0.2-0.88,0.3-1.29,0.3c-0.87,0-1.32-0.39-1.35-1.16
		c-0.48,0.8-1.22,1.21-2.22,1.21c-0.54,0-0.98-0.14-1.33-0.42c-0.35-0.28-0.53-0.63-0.53-1.07c0-0.89,0.62-1.6,1.85-2.12
		c0.42-0.17,1.16-0.35,2.21-0.52v-0.41c0-0.96-0.06-1.59-0.17-1.89c-0.2-0.55-0.66-0.83-1.36-0.83c-0.44,0-0.81,0.1-1.11,0.31
		c-0.3,0.21-0.44,0.47-0.44,0.78c0,0.09,0.08,0.13,0.23,0.13c0.15,0,0.29,0.07,0.42,0.2c0.12,0.13,0.18,0.28,0.18,0.44
		c0,0.48-0.27,0.72-0.82,0.72c-0.29,0-0.52-0.08-0.71-0.25c-0.19-0.17-0.28-0.38-0.28-0.64c0-0.51,0.23-0.95,0.7-1.32
		c0.52-0.4,1.24-0.6,2.16-0.6c1.39,0,2.24,0.33,2.55,0.98c0.11,0.25,0.17,0.74,0.17,1.48v3.05c0,0.5,0.01,0.79,0.02,0.88
		c0.06,0.39,0.25,0.59,0.55,0.59c0.35,0,0.64-0.11,0.87-0.33c0.13-0.12,0.22-0.18,0.28-0.18
		C360.82,235.71,360.85,235.74,360.85,235.81z M357.52,234.08v-1.19c-0.93,0.18-1.6,0.43-2,0.73s-0.61,0.7-0.61,1.2
		c0,0.35,0.12,0.63,0.35,0.86c0.23,0.22,0.52,0.33,0.87,0.33c0.53,0,0.96-0.26,1.29-0.78C357.48,235.1,357.52,234.72,357.52,234.08z
		"/>
	<path class="st27" d="M369.41,236.45c0,0.08-0.09,0.12-0.28,0.12h-0.23c-0.23,0-0.54,0-0.93,0c-1.24,0-1.97,0-2.19,0h-0.13
		c-0.16,0-0.25-0.04-0.25-0.11c0-0.05,0.04-0.09,0.1-0.1s0.31-0.02,0.73-0.03c0.24-0.01,0.38-0.04,0.42-0.09
		c0.04-0.05,0.06-0.22,0.06-0.53v-3.12c0-1.18-0.05-1.89-0.15-2.11c-0.21-0.49-0.64-0.73-1.29-0.73c-0.63,0-1.16,0.24-1.59,0.72
		c-0.13,0.14-0.19,0.34-0.19,0.59v5.07c0,0.13,0.13,0.2,0.4,0.21l0.58,0.02c0.13,0,0.19,0.04,0.19,0.11c0,0.08-0.08,0.11-0.23,0.11
		h-0.3c-0.28,0-0.72,0-1.32,0c-0.14,0-0.44,0-0.9,0c-0.46,0-0.73,0-0.8,0H361c-0.19,0-0.28-0.03-0.28-0.1
		c0-0.07,0.11-0.11,0.34-0.13c0.16,0,0.32,0,0.47,0c0.19,0,0.3-0.04,0.34-0.11l0.06-0.24v-3.54c0-1.23-0.01-1.92-0.04-2.05
		s-0.18-0.2-0.47-0.2c-0.09,0-0.24,0-0.45,0h-0.09c-0.25,0-0.38-0.04-0.38-0.12c0-0.1,0.13-0.16,0.4-0.16
		c0.38-0.01,0.79-0.07,1.23-0.18c0.44-0.11,0.75-0.23,0.93-0.38c0.11-0.09,0.2-0.13,0.27-0.13c0.09,0,0.13,0.1,0.13,0.31v0.78
		c0.66-0.73,1.5-1.09,2.53-1.09c0.91,0,1.56,0.29,1.97,0.86c0.23,0.33,0.34,0.95,0.34,1.86v3.72c0,0.35,0.02,0.54,0.06,0.57
		c0.08,0.07,0.26,0.1,0.55,0.1c0.04,0,0.11,0,0.21,0h0.13C369.35,236.34,369.41,236.38,369.41,236.45z"/>
	<path class="st27" d="M377.6,235.81c0,0.19-0.22,0.38-0.67,0.58c-0.45,0.2-0.87,0.3-1.29,0.3c-0.87,0-1.32-0.39-1.35-1.16
		c-0.48,0.8-1.22,1.21-2.22,1.21c-0.54,0-0.98-0.14-1.33-0.42c-0.35-0.28-0.53-0.63-0.53-1.07c0-0.89,0.62-1.6,1.85-2.12
		c0.42-0.17,1.16-0.35,2.21-0.52v-0.41c0-0.96-0.06-1.59-0.17-1.89c-0.2-0.55-0.66-0.83-1.36-0.83c-0.44,0-0.81,0.1-1.11,0.31
		c-0.3,0.21-0.44,0.47-0.44,0.78c0,0.09,0.08,0.13,0.23,0.13c0.15,0,0.29,0.07,0.42,0.2c0.12,0.13,0.19,0.28,0.19,0.44
		c0,0.48-0.27,0.72-0.82,0.72c-0.29,0-0.52-0.08-0.71-0.25c-0.19-0.17-0.28-0.38-0.28-0.64c0-0.51,0.23-0.95,0.7-1.32
		c0.52-0.4,1.23-0.6,2.16-0.6c1.39,0,2.24,0.33,2.55,0.98c0.11,0.25,0.17,0.74,0.17,1.48v3.05c0,0.5,0.01,0.79,0.02,0.88
		c0.06,0.39,0.25,0.59,0.55,0.59c0.35,0,0.64-0.11,0.87-0.33c0.12-0.12,0.22-0.18,0.28-0.18S377.6,235.74,377.6,235.81z
		 M374.27,234.08v-1.19c-0.93,0.18-1.6,0.43-2,0.73c-0.4,0.3-0.61,0.7-0.61,1.2c0,0.35,0.12,0.63,0.34,0.86
		c0.23,0.22,0.52,0.33,0.87,0.33c0.54,0,0.96-0.26,1.29-0.78C374.23,235.1,374.27,234.72,374.27,234.08z"/>
</g>
<g class="st18">
	<path class="st27" d="M228.52,255.77c0,0.08-0.09,0.11-0.26,0.11h-0.09c-0.1,0-0.21,0-0.32,0h-0.15c-0.62,0-1.14,0.1-1.57,0.31
		c-0.18,0.08-0.28,0.13-0.32,0.13c-0.11,0-0.17-0.06-0.17-0.2l0.02-0.51c-0.54,0.47-1.19,0.7-1.93,0.7c-1.06,0-1.93-0.35-2.62-1.06
		c-0.69-0.7-1.03-1.6-1.03-2.69c0-1.12,0.34-2.04,1.03-2.73s1.58-1.05,2.69-1.05c0.86,0,1.5,0.27,1.93,0.8v-2.54
		c0-0.83-0.04-1.34-0.13-1.53c-0.07-0.16-0.19-0.24-0.34-0.23c-0.36,0.03-0.58,0.05-0.65,0.05c-0.16,0-0.24-0.05-0.24-0.15
		s0.07-0.15,0.21-0.15l0.68,0.02c0.38,0.01,0.95-0.14,1.73-0.46c0.05-0.02,0.09-0.03,0.13-0.03c0.13,0,0.19,0.13,0.19,0.39
		c0,0.06,0,0.18,0,0.34c0,0.17,0,0.33,0,0.46v5.62c0,2.58,0.03,3.96,0.08,4.14c0.02,0.08,0.32,0.11,0.89,0.11
		C228.43,255.64,228.52,255.69,228.52,255.77z M225.72,251.68c0-1.04-0.13-1.71-0.4-2c-0.34-0.37-0.78-0.55-1.3-0.55
		c-0.68,0-1.22,0.3-1.63,0.91s-0.6,1.42-0.6,2.44c0,0.98,0.18,1.81,0.53,2.51c0.15,0.29,0.37,0.54,0.67,0.73
		c0.3,0.19,0.6,0.29,0.92,0.29c0.39,0,0.74-0.1,1.06-0.3c0.31-0.2,0.52-0.44,0.61-0.73C225.67,254.69,225.72,253.59,225.72,251.68z"
		/>
	<path class="st27" d="M236.12,254.32c0,0.11-0.1,0.3-0.29,0.58c-0.2,0.28-0.39,0.5-0.6,0.68c-0.54,0.48-1.27,0.72-2.17,0.72
		c-1.13,0-2.08-0.35-2.85-1.06c-0.76-0.71-1.14-1.58-1.14-2.62c0-1.09,0.36-1.99,1.09-2.72c0.72-0.73,1.63-1.09,2.71-1.09
		c0.9,0,1.65,0.23,2.25,0.68c0.6,0.45,0.93,1.03,0.96,1.74c-0.4,0.05-0.94,0.08-1.61,0.06h-1.32c-0.09,0-0.84,0.02-2.27,0.05
		c-0.06,0.36-0.09,0.7-0.09,1.02c0,1.09,0.24,1.94,0.73,2.53c0.48,0.59,1.17,0.88,2.05,0.88c0.5,0,0.91-0.1,1.21-0.29
		c0.3-0.2,0.63-0.57,0.98-1.12c0.05-0.09,0.12-0.13,0.21-0.13C236.07,254.21,236.12,254.25,236.12,254.32z M234.47,251
		c-0.05-1.3-0.59-1.96-1.63-1.96c-1.02,0-1.66,0.65-1.91,1.96H234.47z"/>
	<path class="st27" d="M252.49,244.87c0,0.09-0.12,0.14-0.36,0.15c-0.55,0.01-0.93,0.08-1.12,0.21s-0.38,0.44-0.59,0.92l-0.64,1.52
		c-1.55,3.67-2.64,6.49-3.27,8.45c-0.04,0.13-0.1,0.2-0.19,0.2c-0.1,0-0.31-0.41-0.62-1.22c-0.57-1.49-1.01-2.61-1.32-3.36
		c-0.34-0.83-0.84-2.06-1.5-3.7l-0.92-2.2c-0.13-0.3-0.26-0.51-0.42-0.61c-0.15-0.1-0.4-0.16-0.76-0.17
		c-0.42-0.01-0.66-0.02-0.75-0.03s-0.12-0.05-0.12-0.13c0-0.1,0.13-0.15,0.38-0.15h0.17c0.23,0,0.62,0.01,1.18,0.02
		c0.56,0.02,0.96,0.02,1.2,0.02c0.06,0,0.31-0.01,0.73-0.02c0.42-0.02,1.02-0.02,1.81-0.02h0.26c0.23,0,0.34,0.05,0.34,0.15
		c0,0.11-0.23,0.17-0.68,0.18l-1.15,0.03c-0.26,0.01-0.4,0.08-0.4,0.22c0,0.02,0.01,0.07,0.04,0.14l0.15,0.44
		c0.03,0.09,0.64,1.62,1.85,4.59c0.2,0.51,0.59,1.49,1.15,2.93c2.08-5.08,3.11-7.75,3.11-8.01c0-0.25-0.31-0.36-0.93-0.34h-0.59
		c-0.15,0-0.23-0.05-0.23-0.15c0-0.12,0.19-0.18,0.57-0.18c0.08,0,0.29,0,0.64,0c0.35,0.03,0.61,0.05,0.78,0.05h0.6l1.25-0.05
		C252.38,244.74,252.49,244.78,252.49,244.87z"/>
	<path class="st27" d="M259.73,254.32c0,0.11-0.1,0.3-0.29,0.58c-0.2,0.28-0.39,0.5-0.6,0.68c-0.54,0.48-1.27,0.72-2.17,0.72
		c-1.13,0-2.08-0.35-2.85-1.06c-0.76-0.71-1.14-1.58-1.14-2.62c0-1.09,0.36-1.99,1.09-2.72c0.72-0.73,1.63-1.09,2.71-1.09
		c0.9,0,1.65,0.23,2.25,0.68c0.6,0.45,0.93,1.03,0.96,1.74c-0.4,0.05-0.94,0.08-1.61,0.06h-1.32c-0.09,0-0.84,0.02-2.27,0.05
		c-0.06,0.36-0.09,0.7-0.09,1.02c0,1.09,0.24,1.94,0.73,2.53c0.48,0.59,1.17,0.88,2.05,0.88c0.5,0,0.91-0.1,1.21-0.29
		c0.3-0.2,0.63-0.57,0.98-1.12c0.05-0.09,0.12-0.13,0.21-0.13C259.68,254.21,259.73,254.25,259.73,254.32z M258.08,251
		c-0.05-1.3-0.59-1.96-1.63-1.96c-1.02,0-1.66,0.65-1.91,1.96H258.08z"/>
	<path class="st27" d="M269.39,256.01c0,0.08-0.09,0.12-0.28,0.12h-0.23c-0.23,0-0.54,0-0.93,0c-1.24,0-1.97,0-2.19,0h-0.13
		c-0.16,0-0.25-0.04-0.25-0.11c0-0.05,0.03-0.09,0.1-0.1c0.07-0.01,0.31-0.02,0.73-0.03c0.24-0.01,0.38-0.04,0.42-0.09
		c0.04-0.05,0.06-0.22,0.06-0.53v-3.12c0-1.18-0.05-1.89-0.15-2.11c-0.21-0.49-0.64-0.73-1.29-0.73c-0.63,0-1.16,0.24-1.59,0.72
		c-0.13,0.14-0.19,0.34-0.19,0.59v5.07c0,0.13,0.13,0.2,0.4,0.21l0.58,0.02c0.13,0,0.19,0.04,0.19,0.11c0,0.08-0.08,0.11-0.23,0.11
		h-0.3c-0.28,0-0.72,0-1.32,0c-0.14,0-0.44,0-0.9,0s-0.73,0-0.8,0h-0.11c-0.19,0-0.28-0.03-0.28-0.1c0-0.07,0.11-0.11,0.34-0.13
		c0.16,0,0.32,0,0.47,0c0.19,0,0.3-0.04,0.34-0.11l0.06-0.24V252c0-1.23-0.01-1.92-0.04-2.05s-0.18-0.2-0.47-0.2
		c-0.09,0-0.24,0-0.45,0h-0.09c-0.25,0-0.38-0.04-0.38-0.12c0-0.1,0.13-0.16,0.4-0.16c0.38-0.01,0.79-0.07,1.23-0.18
		c0.44-0.11,0.75-0.23,0.93-0.38c0.11-0.09,0.2-0.13,0.26-0.13c0.09,0,0.13,0.1,0.13,0.31v0.78c0.66-0.73,1.5-1.09,2.53-1.09
		c0.91,0,1.56,0.29,1.97,0.86c0.23,0.33,0.34,0.95,0.34,1.86v3.72c0,0.35,0.02,0.54,0.06,0.57c0.08,0.07,0.26,0.1,0.55,0.1
		c0.04,0,0.11,0,0.21,0h0.13C269.33,255.9,269.39,255.94,269.39,256.01z"/>
	<path class="st27" d="M277.1,254.32c0,0.11-0.1,0.3-0.29,0.58c-0.2,0.28-0.39,0.5-0.6,0.68c-0.54,0.48-1.27,0.72-2.17,0.72
		c-1.13,0-2.08-0.35-2.85-1.06c-0.76-0.71-1.14-1.58-1.14-2.62c0-1.09,0.36-1.99,1.09-2.72c0.72-0.73,1.63-1.09,2.71-1.09
		c0.9,0,1.65,0.23,2.25,0.68c0.6,0.45,0.93,1.03,0.96,1.74c-0.4,0.05-0.94,0.08-1.61,0.06h-1.32c-0.09,0-0.84,0.02-2.27,0.05
		c-0.06,0.36-0.09,0.7-0.09,1.02c0,1.09,0.24,1.94,0.73,2.53c0.48,0.59,1.17,0.88,2.05,0.88c0.5,0,0.91-0.1,1.21-0.29
		c0.3-0.2,0.63-0.57,0.98-1.12c0.05-0.09,0.12-0.13,0.21-0.13C277.05,254.21,277.1,254.25,277.1,254.32z M275.46,251
		c-0.05-1.3-0.59-1.96-1.63-1.96c-1.02,0-1.66,0.65-1.91,1.96H275.46z"/>
	<path class="st27" d="M284.68,253.77c0,0.05-0.03,0.17-0.08,0.36c-0.24,0.88-0.38,1.54-0.43,1.99h-2.67c-0.78,0-1.41,0-1.89,0
		c-0.52,0-0.87,0-1.06,0h-0.06c-0.34,0-0.51-0.04-0.51-0.13c0-0.01,0.02-0.04,0.06-0.1c0.28-0.42,0.69-1.05,1.25-1.88l3.29-4.75
		c-0.28-0.03-0.67-0.05-1.19-0.05c-0.81,0-1.37,0.13-1.7,0.38c-0.33,0.26-0.59,0.76-0.78,1.52c-0.04,0.13-0.12,0.2-0.25,0.2
		c-0.1,0-0.15-0.04-0.15-0.13c0-0.01,0.04-0.24,0.13-0.7c0.15-0.78,0.28-1.3,0.38-1.56c0.88,0.03,2.55,0.05,5.01,0.05h0.25
		c0.01,0.02,0.02,0.05,0.02,0.08c0,0.12-0.33,0.66-1,1.62c-1.48,2.17-2.68,3.9-3.58,5.17c0.34,0,0.75,0,1.23,0
		c1.5,0,2.42-0.24,2.76-0.71c0.27-0.37,0.47-0.82,0.61-1.36c0.04-0.1,0.11-0.15,0.23-0.15
		C284.64,253.62,284.68,253.67,284.68,253.77z"/>
	<path class="st27" d="M294.5,255.54c0,0.08-0.14,0.12-0.42,0.13c-0.98,0.05-1.85,0.24-2.59,0.55c-0.05,0.02-0.09,0.03-0.13,0.03
		c-0.08,0-0.11-0.04-0.11-0.13v-0.91c-0.58,0.7-1.38,1.04-2.42,1.04c-0.92,0-1.59-0.23-1.99-0.7c-0.16-0.19-0.26-0.37-0.29-0.53
		s-0.05-0.6-0.05-1.31v-3.71c0-0.38-0.03-0.6-0.08-0.66c-0.05-0.06-0.22-0.1-0.51-0.11h-0.25c-0.34,0.02-0.51-0.02-0.51-0.13
		c0-0.08,0.11-0.11,0.32-0.11c0.23,0,0.55,0.01,0.98,0.04c0.21,0.01,0.34,0.02,0.38,0.02c0.44,0,0.85-0.02,1.23-0.06v4.53
		c0,0.83,0.06,1.38,0.19,1.65c0.2,0.42,0.61,0.63,1.23,0.63c0.67,0,1.16-0.24,1.47-0.71c0.23-0.35,0.34-0.9,0.34-1.65v-2.51
		c0-0.37-0.02-0.64-0.06-0.83v-0.54c-0.01-0.16-0.05-0.26-0.12-0.28c-0.07-0.03-0.21-0.04-0.43-0.04c-0.53,0.01-0.79-0.04-0.79-0.15
		c0-0.06,0.13-0.1,0.4-0.1h0.17c0.1,0,0.44,0,1,0c0.76,0,1.22,0,1.4,0v4.55c0,0.78,0.02,1.28,0.06,1.48
		c0.04,0.21,0.13,0.33,0.29,0.36c0.16,0.03,0.51,0.05,1.06,0.05C294.42,255.43,294.5,255.47,294.5,255.54z"/>
	<path class="st27" d="M301.96,254.32c0,0.11-0.1,0.3-0.29,0.58c-0.2,0.28-0.39,0.5-0.6,0.68c-0.54,0.48-1.27,0.72-2.17,0.72
		c-1.13,0-2.08-0.35-2.85-1.06c-0.76-0.71-1.14-1.58-1.14-2.62c0-1.09,0.36-1.99,1.09-2.72c0.72-0.73,1.63-1.09,2.71-1.09
		c0.9,0,1.65,0.23,2.25,0.68c0.6,0.45,0.93,1.03,0.96,1.74c-0.4,0.05-0.94,0.08-1.61,0.06h-1.32c-0.09,0-0.84,0.02-2.27,0.05
		c-0.06,0.36-0.09,0.7-0.09,1.02c0,1.09,0.24,1.94,0.73,2.53c0.48,0.59,1.17,0.88,2.05,0.88c0.5,0,0.91-0.1,1.21-0.29
		c0.3-0.2,0.63-0.57,0.98-1.12c0.05-0.09,0.12-0.13,0.21-0.13C301.91,254.21,301.96,254.25,301.96,254.32z M300.32,251
		c-0.05-1.3-0.59-1.96-1.63-1.96c-1.02,0-1.66,0.65-1.91,1.96H300.32z"/>
	<path class="st27" d="M306.73,255.98c0,0.1-0.08,0.15-0.25,0.15h-0.23c-0.03,0-0.36-0.01-1-0.03h-0.59c-0.1,0-0.6,0.01-1.51,0.02
		c-0.08,0.01-0.15,0.01-0.23,0.01c-0.19,0.01-0.28-0.04-0.28-0.14c0-0.07,0.07-0.11,0.21-0.11h0.49c0.35,0,0.53-0.06,0.53-0.2
		c0.01-0.07,0.02-0.49,0.02-1.27v-8.3c0-0.36-0.01-0.55-0.04-0.59c-0.04-0.09-0.14-0.13-0.3-0.13h-0.15h-0.53
		c-0.18,0-0.26-0.05-0.26-0.14c0-0.08,0.16-0.13,0.47-0.14c0.6-0.03,1.17-0.15,1.68-0.36l0.4-0.16l0.15-0.05
		c0.1,0.32,0.15,0.79,0.13,1.43v1.16v7.99c0,0.33,0.01,0.52,0.02,0.58c0.01,0.06,0.06,0.1,0.13,0.12c0.01,0.01,0.25,0.02,0.7,0.03
		C306.58,255.87,306.73,255.91,306.73,255.98z"/>
	<path class="st27" d="M315.01,255.37c0,0.19-0.22,0.38-0.67,0.58c-0.45,0.2-0.87,0.3-1.29,0.3c-0.87,0-1.32-0.39-1.36-1.16
		c-0.48,0.8-1.22,1.21-2.22,1.21c-0.54,0-0.98-0.14-1.34-0.42c-0.35-0.28-0.53-0.63-0.53-1.07c0-0.89,0.62-1.6,1.85-2.12
		c0.42-0.17,1.16-0.35,2.21-0.52v-0.41c0-0.96-0.06-1.59-0.17-1.89c-0.2-0.55-0.66-0.83-1.36-0.83c-0.44,0-0.81,0.1-1.11,0.31
		c-0.29,0.21-0.44,0.47-0.44,0.78c0,0.09,0.08,0.13,0.23,0.13s0.29,0.07,0.42,0.2s0.19,0.28,0.19,0.44c0,0.48-0.28,0.72-0.82,0.72
		c-0.29,0-0.52-0.08-0.71-0.25s-0.28-0.38-0.28-0.64c0-0.51,0.23-0.95,0.7-1.32c0.52-0.4,1.23-0.6,2.15-0.6
		c1.39,0,2.24,0.33,2.55,0.98c0.11,0.25,0.17,0.74,0.17,1.48v3.05c0,0.5,0.01,0.79,0.02,0.88c0.06,0.39,0.25,0.59,0.55,0.59
		c0.35,0,0.64-0.11,0.87-0.33c0.13-0.12,0.22-0.18,0.28-0.18C314.97,255.27,315.01,255.3,315.01,255.37z M311.68,253.64v-1.19
		c-0.93,0.18-1.6,0.43-2,0.73s-0.61,0.7-0.61,1.2c0,0.35,0.12,0.63,0.34,0.86c0.23,0.22,0.52,0.33,0.87,0.33
		c0.53,0,0.96-0.26,1.29-0.78C311.64,254.66,311.68,254.28,311.68,253.64z"/>
</g>
<polygon class="st17" points="281.93,242.67 300.25,242.67 300.25,242.67 "/>
<polyline class="st28" points="406.6,323.96 398.03,323.96 392.22,304.63 384.09,323.96 362.51,323.96 377.82,337.57 372.84,359.48 
	392.22,345.87 406.08,354.51 406.59,324.46 "/>
<polygon class="st29" points="202.93,350.53 215.41,358.1 209.43,341.31 227.93,325.08 208.86,327.07 202.93,311.99 "/>
<rect x="219.48" y="310.84" class="st17" width="120.98" height="48.11"/>
<g class="st18">
	<path class="st30" d="M225.15,315.35c0-0.01-0.01,0.07-0.02,0.25c-0.02,0.36-0.04,0.71-0.04,1.04c0,0.04,0.01,0.11,0.02,0.23
		c0.01,0.11,0.02,0.25,0.02,0.41v0.08c0,0.08-0.02,0.12-0.07,0.12c-0.05,0-0.09-0.05-0.13-0.14c-0.09-0.21-0.17-0.34-0.26-0.4
		c-0.45,0.39-0.98,0.59-1.61,0.59c-0.91,0-1.67-0.32-2.27-0.95c-0.6-0.64-0.9-1.44-0.9-2.41c0-0.97,0.27-1.77,0.82-2.39
		c0.55-0.62,1.26-0.93,2.13-0.93c0.32,0,0.57,0.03,0.76,0.08c0.19,0.05,0.42,0.16,0.7,0.32c0.14,0.08,0.24,0.12,0.31,0.12
		c0.06,0,0.11-0.05,0.16-0.15c0.08-0.17,0.15-0.26,0.2-0.26c0.05,0,0.07,0.03,0.07,0.08c0,0.02-0.01,0.06-0.02,0.12
		c-0.07,0.3-0.1,0.86-0.1,1.68c0,0.12-0.01,0.19-0.03,0.21s-0.04,0.03-0.07,0.03c-0.06,0-0.1-0.06-0.12-0.18
		c-0.08-0.5-0.2-0.87-0.34-1.11c-0.3-0.5-0.78-0.75-1.43-0.75c-0.5,0-0.9,0.17-1.19,0.5c-0.53,0.6-0.79,1.48-0.79,2.64
		c0,1.04,0.22,1.84,0.65,2.41c0.38,0.5,0.88,0.75,1.51,0.75c0.32,0,0.62-0.08,0.88-0.24c0.27-0.16,0.47-0.37,0.61-0.65
		c0.16-0.32,0.28-0.66,0.34-1.03c0.02-0.15,0.06-0.22,0.12-0.22C225.12,315.21,225.15,315.25,225.15,315.35z"/>
	<path class="st30" d="M228.25,317.35c0,0.05-0.04,0.08-0.11,0.08h-0.09c-0.04-0.02-0.46-0.03-1.27-0.03
		c-0.16,0-0.31,0.01-0.47,0.02c-0.08,0.01-0.21,0.01-0.37,0.01c-0.08,0-0.12-0.03-0.12-0.08c0-0.05,0.08-0.08,0.24-0.08
		c0.25-0.01,0.39-0.04,0.44-0.09c0.04-0.05,0.07-0.23,0.07-0.54v-4.91c0-0.3-0.02-0.48-0.05-0.51c-0.04-0.06-0.21-0.1-0.52-0.11
		c-0.12,0-0.18-0.03-0.18-0.07c0-0.05,0.04-0.07,0.11-0.07h1.27c0.09,0,0.28,0,0.54,0.01l0.36-0.01c0.1,0,0.15,0.03,0.15,0.08
		c0,0.05-0.14,0.08-0.42,0.09c-0.16,0.01-0.25,0.03-0.29,0.08s-0.05,0.18-0.05,0.39v4.97c0,0.35,0.02,0.55,0.05,0.58
		c0.07,0.07,0.27,0.11,0.61,0.12C228.21,317.27,228.25,317.29,228.25,317.35z"/>
	<path class="st30" d="M234.48,311.05c0,0.06-0.08,0.09-0.23,0.08h-0.21h-0.17c-0.1,0-0.16,0.02-0.18,0.05
		c-0.02,0.03-0.03,0.14-0.03,0.31v5.36c0,0.33,0,0.52-0.01,0.58s-0.02,0.08-0.06,0.08c-0.04,0-0.08-0.03-0.13-0.1l-1.19-1.74
		c-0.69-1.02-1.53-2.29-2.52-3.81v5.21c0.01,0.08,0.05,0.13,0.14,0.15c0.09,0.02,0.3,0.04,0.63,0.04c0.08,0,0.12,0.02,0.12,0.07
		c0,0.06-0.08,0.09-0.24,0.09c-0.06,0-0.23-0.01-0.53-0.03c-0.1-0.01-0.2-0.01-0.29-0.01c0.01,0-0.05,0.01-0.16,0.02
		c-0.12,0.01-0.29,0.02-0.53,0.02h-0.09c-0.14,0-0.21-0.03-0.21-0.08c0-0.06,0.06-0.08,0.19-0.08c0.37-0.01,0.58-0.03,0.64-0.07
		c0.06-0.04,0.09-0.17,0.09-0.4v-4.6c0-0.52-0.11-0.84-0.32-0.97c-0.1-0.06-0.28-0.09-0.53-0.09c-0.16,0-0.24-0.03-0.24-0.1
		c0-0.06,0.05-0.09,0.14-0.09c0.12,0,0.28,0.01,0.47,0.02c0.19,0.01,0.29,0.02,0.31,0.02c0.02,0,0.11,0,0.26-0.01
		c0.2,0,0.4-0.01,0.6-0.03l3.21,4.8v-4.14c0-0.19,0-0.31-0.01-0.35c-0.01-0.04-0.03-0.07-0.07-0.09s-0.19-0.03-0.45-0.03
		c-0.22,0-0.33-0.03-0.33-0.08c0-0.06,0.07-0.09,0.22-0.09h0.33c0.08,0,0.17,0,0.26,0c0.1,0,0.16,0,0.18,0c0.01,0,0.06,0,0.17,0
		c0.1,0,0.19,0,0.28,0h0.29C234.41,310.95,234.48,310.98,234.48,311.05z"/>
	<path class="st30" d="M240.27,315.35c0-0.01-0.01,0.07-0.02,0.25c-0.02,0.36-0.04,0.71-0.04,1.04c0,0.04,0.01,0.11,0.02,0.23
		c0.01,0.11,0.02,0.25,0.02,0.41v0.08c0,0.08-0.02,0.12-0.07,0.12c-0.05,0-0.09-0.05-0.13-0.14c-0.09-0.21-0.17-0.34-0.26-0.4
		c-0.45,0.39-0.98,0.59-1.61,0.59c-0.91,0-1.67-0.32-2.27-0.95c-0.6-0.64-0.9-1.44-0.9-2.41c0-0.97,0.27-1.77,0.82-2.39
		c0.55-0.62,1.26-0.93,2.13-0.93c0.32,0,0.57,0.03,0.76,0.08c0.19,0.05,0.42,0.16,0.7,0.32c0.14,0.08,0.24,0.12,0.31,0.12
		c0.06,0,0.11-0.05,0.16-0.15c0.08-0.17,0.15-0.26,0.2-0.26c0.05,0,0.07,0.03,0.07,0.08c0,0.02-0.01,0.06-0.02,0.12
		c-0.07,0.3-0.1,0.86-0.1,1.68c0,0.12-0.01,0.19-0.03,0.21s-0.04,0.03-0.07,0.03c-0.06,0-0.1-0.06-0.12-0.18
		c-0.08-0.5-0.2-0.87-0.34-1.11c-0.3-0.5-0.78-0.75-1.43-0.75c-0.5,0-0.9,0.17-1.19,0.5c-0.53,0.6-0.79,1.48-0.79,2.64
		c0,1.04,0.22,1.84,0.65,2.41c0.38,0.5,0.88,0.75,1.51,0.75c0.32,0,0.62-0.08,0.88-0.24c0.27-0.16,0.47-0.37,0.61-0.65
		c0.16-0.32,0.28-0.66,0.34-1.03c0.02-0.15,0.06-0.22,0.12-0.22C240.24,315.21,240.27,315.25,240.27,315.35z"/>
	<path class="st30" d="M246.8,311.04c0,0.05-0.06,0.08-0.17,0.08c-0.02,0-0.08,0-0.19,0c-0.03,0-0.07,0-0.13,0
		c-0.16,0-0.25,0.04-0.28,0.12c-0.01,0.04-0.02,0.11-0.02,0.21v3.49c0,0.9-0.17,1.56-0.51,1.98s-0.88,0.62-1.63,0.62
		c-0.9,0-1.53-0.25-1.9-0.76c-0.24-0.34-0.36-0.9-0.36-1.69v-3.73c-0.02-0.11-0.09-0.18-0.23-0.2c-0.04-0.01-0.15-0.01-0.35-0.01
		c-0.11-0.01-0.16-0.04-0.16-0.09c0-0.06,0.04-0.08,0.13-0.08h0.17c0.03,0,0.1,0,0.21,0c0.1,0,0.19,0,0.27,0h1.33
		c0.03,0,0.07,0,0.11,0c0.11,0,0.16,0.03,0.16,0.1c0,0.04-0.02,0.07-0.06,0.07c-0.04,0.01-0.16,0.01-0.37,0.02
		c-0.09,0-0.15,0.01-0.18,0.02c-0.06,0.02-0.1,0.07-0.1,0.13c-0.01,0.03-0.01,0.2-0.01,0.53v3.33c0,0.82,0.13,1.38,0.39,1.67
		s0.65,0.45,1.16,0.45c0.94,0,1.48-0.54,1.6-1.61c0.02-0.16,0.03-0.84,0.03-2.04v-0.53v-0.74v-0.64c0-0.06,0-0.13,0-0.21
		c0-0.08,0-0.11,0-0.1c0-0.14-0.06-0.22-0.19-0.25c-0.04-0.01-0.17-0.02-0.38-0.02c-0.12,0-0.18-0.03-0.18-0.1
		c0-0.06,0.04-0.08,0.13-0.08c0.05,0,0.09,0,0.12,0c0.07,0,0.34,0,0.81,0c0.07,0,0.15,0,0.23,0c0.08,0,0.14,0,0.18,0h0.14
		C246.73,310.96,246.8,310.99,246.8,311.04z"/>
	<path class="st30" d="M252.11,315.93c0,0.02-0.01,0.18-0.02,0.46c-0.01,0.28-0.02,0.55-0.02,0.8v0.31
		c-0.61-0.04-1.81-0.06-3.61-0.06c-0.22,0-0.43,0-0.64,0s-0.35,0-0.43,0h-0.09c-0.12,0-0.18-0.03-0.18-0.08
		c0-0.03,0.02-0.05,0.06-0.06c0.02,0,0.14-0.01,0.35-0.03c0.16-0.01,0.26-0.05,0.29-0.1c0.03-0.06,0.05-0.2,0.05-0.44v-5.25
		c0-0.18-0.03-0.29-0.08-0.32c-0.05-0.03-0.22-0.05-0.51-0.05c-0.1,0-0.15-0.03-0.15-0.08s0.07-0.08,0.21-0.08h1.59
		c0.06,0,0.41,0,1.05,0c0.65,0,1.08,0,1.3,0c0.19,0,0.36-0.01,0.51-0.04c0.01,0.27,0.04,0.64,0.08,1.11l0.04,0.4
		c0.01,0.03,0.01,0.07,0.01,0.12c0,0.06-0.03,0.09-0.08,0.09c-0.07,0-0.12-0.08-0.15-0.23c-0.12-0.56-0.31-0.92-0.58-1.07
		c-0.2-0.11-0.72-0.17-1.56-0.17h-0.76v2.74h0.22c0.7,0,1.12-0.05,1.27-0.16s0.26-0.41,0.31-0.92c0.01-0.13,0.05-0.2,0.1-0.2
		c0.07,0,0.1,0.06,0.1,0.17c0,0.11-0.01,0.28-0.02,0.49c-0.01,0.22-0.02,0.38-0.02,0.49c0,0.67,0.01,1.12,0.03,1.37
		c0.01,0.06,0.01,0.12,0.01,0.16c0,0.08-0.03,0.12-0.1,0.12c-0.04,0-0.07-0.03-0.09-0.08c-0.02-0.05-0.04-0.22-0.08-0.52
		c-0.05-0.37-0.2-0.59-0.45-0.68c-0.11-0.04-0.4-0.06-0.87-0.06h-0.42v3.12c1.37,0,2.17-0.03,2.4-0.08c0.41-0.09,0.64-0.48,0.7-1.18
		c0.01-0.15,0.05-0.23,0.12-0.23C252.08,315.73,252.11,315.79,252.11,315.93z"/>
	<path class="st30" d="M258.29,311.05c0,0.06-0.08,0.09-0.23,0.08h-0.21h-0.17c-0.1,0-0.16,0.02-0.18,0.05
		c-0.02,0.03-0.03,0.14-0.03,0.31v5.36c0,0.33,0,0.52-0.01,0.58s-0.02,0.08-0.06,0.08c-0.04,0-0.08-0.03-0.13-0.1l-1.19-1.74
		c-0.69-1.02-1.53-2.29-2.52-3.81v5.21c0.01,0.08,0.05,0.13,0.14,0.15c0.09,0.02,0.3,0.04,0.63,0.04c0.08,0,0.12,0.02,0.12,0.07
		c0,0.06-0.08,0.09-0.24,0.09c-0.06,0-0.23-0.01-0.53-0.03c-0.1-0.01-0.2-0.01-0.29-0.01c0.01,0-0.05,0.01-0.16,0.02
		c-0.12,0.01-0.29,0.02-0.53,0.02h-0.09c-0.14,0-0.21-0.03-0.21-0.08c0-0.06,0.06-0.08,0.19-0.08c0.37-0.01,0.58-0.03,0.64-0.07
		c0.06-0.04,0.09-0.17,0.09-0.4v-4.6c0-0.52-0.11-0.84-0.32-0.97c-0.1-0.06-0.28-0.09-0.53-0.09c-0.16,0-0.24-0.03-0.24-0.1
		c0-0.06,0.05-0.09,0.14-0.09c0.12,0,0.28,0.01,0.47,0.02c0.19,0.01,0.29,0.02,0.31,0.02c0.02,0,0.11,0,0.26-0.01
		c0.2,0,0.4-0.01,0.6-0.03l3.21,4.8v-4.14c0-0.19,0-0.31-0.01-0.35c-0.01-0.04-0.03-0.07-0.07-0.09s-0.19-0.03-0.45-0.03
		c-0.22,0-0.33-0.03-0.33-0.08c0-0.06,0.07-0.09,0.22-0.09h0.33c0.08,0,0.17,0,0.26,0c0.1,0,0.16,0,0.18,0c0.01,0,0.06,0,0.17,0
		c0.1,0,0.19,0,0.28,0h0.29C258.22,310.95,258.29,310.98,258.29,311.05z"/>
	<path class="st30" d="M263.73,312.62c0,0.08-0.04,0.12-0.11,0.12c-0.07,0-0.13-0.08-0.16-0.24c-0.01-0.11-0.02-0.22-0.04-0.33
		c-0.04-0.22-0.11-0.41-0.21-0.57c-0.13-0.21-0.34-0.33-0.64-0.39c-0.19-0.04-0.35-0.05-0.47-0.05c-0.29,0.01-0.47,0.01-0.53,0.02
		v5.62c0,0.22,0.06,0.36,0.18,0.42c0.06,0.03,0.24,0.05,0.52,0.06c0.07,0.01,0.11,0.03,0.11,0.08c0,0.05-0.05,0.08-0.15,0.08
		c-0.05,0-0.09,0-0.13-0.01c-0.37-0.01-0.64-0.02-0.79-0.02c-0.21,0-0.4,0-0.58,0.01c-0.18,0.01-0.41,0.01-0.69,0.01
		c-0.14,0-0.21-0.03-0.21-0.08c0-0.06,0.13-0.09,0.4-0.09c0.19,0,0.32-0.04,0.37-0.12c0.03-0.05,0.05-0.18,0.05-0.38v-5.59
		c-0.61,0.01-1,0.04-1.15,0.09c-0.39,0.14-0.62,0.52-0.69,1.14c-0.02,0.19-0.06,0.28-0.13,0.28c-0.07,0-0.11-0.07-0.11-0.2
		c0-0.07,0-0.14,0.01-0.21l0.02-0.21c0.02-0.29,0.05-0.66,0.08-1.13h0.42l1.9,0.03c0.22,0.01,0.57,0.01,1.04,0l1.55-0.03
		c0.01,0.35,0.05,0.86,0.12,1.55c0,0.02,0,0.04,0.01,0.07C263.72,312.6,263.73,312.61,263.73,312.62z"/>
	<path class="st30" d="M269.89,317.36c0,0.05-0.05,0.08-0.14,0.08c-0.06,0-0.12,0-0.17-0.01l-1.18-0.04l-1.18,0.04
		c-0.04,0.01-0.09,0.01-0.14,0.01c-0.12,0-0.19-0.03-0.19-0.1c0-0.07,0.08-0.11,0.25-0.11c0.55-0.01,0.82-0.06,0.82-0.16
		c0-0.01-0.01-0.03-0.02-0.07l-0.08-0.25l-0.05-0.13c-0.06-0.19-0.19-0.62-0.41-1.28h-1.99c-0.37,0.99-0.56,1.57-0.56,1.71
		c0,0.09,0.04,0.14,0.11,0.16c0.02,0.01,0.17,0.02,0.47,0.04c0.18,0.01,0.27,0.04,0.27,0.09c0,0.06-0.08,0.09-0.24,0.09
		c-0.29,0-0.62-0.01-1-0.04c-0.09-0.01-0.19-0.01-0.29-0.01c-0.1,0-0.2,0.01-0.29,0.03c-0.05,0.01-0.09,0.02-0.12,0.02
		c-0.09,0-0.13-0.03-0.13-0.08s0.1-0.09,0.29-0.09c0.2-0.01,0.34-0.04,0.42-0.09c0.09-0.05,0.16-0.15,0.2-0.3
		c0.8-2.29,1.45-4.13,1.95-5.52c0.01-0.07,0.04-0.16,0.09-0.25l0.04-0.17c0.02-0.07,0.04-0.1,0.07-0.1c0.02,0,0.03,0.02,0.05,0.06
		c0.08,0.24,0.26,0.75,0.55,1.52c0.22,0.6,0.78,2.11,1.67,4.54c0.05,0.14,0.11,0.23,0.19,0.27c0.08,0.04,0.24,0.06,0.48,0.07
		C269.81,317.28,269.89,317.31,269.89,317.36z M267.37,315.13c-0.1-0.28-0.27-0.74-0.5-1.39l-0.45-1.29
		c-0.26,0.69-0.58,1.58-0.94,2.68H267.37z"/>
</g>
<g class="st18">
	<path class="st30" d="M224.37,326.91c0,0.63-0.29,1.1-0.87,1.41c-0.28,0.15-0.68,0.24-1.2,0.28c-0.14,0.01-0.56,0.01-1.27,0.01
		h-1.14c-0.11,0-0.16-0.03-0.16-0.08s0.1-0.08,0.29-0.08c0.22,0,0.36-0.02,0.4-0.07c0.04-0.05,0.06-0.19,0.06-0.42v-5.04
		c0-0.27-0.01-0.43-0.04-0.47c-0.04-0.07-0.2-0.12-0.48-0.12c-0.17,0-0.25-0.03-0.25-0.1c0-0.06,0.08-0.09,0.23-0.09
		c0.01,0,0.04,0,0.11,0c0.07,0.02,0.13,0.03,0.19,0.03h1.82c0.67,0.01,1.17,0.12,1.5,0.33c0.38,0.25,0.58,0.62,0.58,1.11
		c0,0.42-0.16,0.77-0.47,1.04c-0.32,0.27-0.76,0.44-1.33,0.51v0.06c0.56,0.04,1.01,0.16,1.32,0.35
		C224.14,325.86,224.37,326.31,224.37,326.91z M223.12,323.7c0-0.6-0.14-0.99-0.41-1.19c-0.14-0.11-0.41-0.16-0.81-0.16
		c-0.11,0-0.27,0.01-0.49,0.03v2.7h0.08l0.51-0.02c0.35-0.01,0.63-0.14,0.82-0.38C223.03,324.44,223.12,324.11,223.12,323.7z
		 M223.39,326.81c0-0.78-0.32-1.27-0.95-1.45c-0.19-0.06-0.53-0.08-1.03-0.08v2.78c0,0.18,0.02,0.28,0.06,0.31
		c0.06,0.04,0.24,0.06,0.52,0.06c0.43,0,0.77-0.14,1.02-0.41C223.27,327.74,223.39,327.33,223.39,326.81z"/>
	<path class="st30" d="M231.11,325.41c0,0.92-0.28,1.71-0.83,2.35s-1.24,0.96-2.04,0.96c-0.86,0-1.58-0.32-2.16-0.97
		s-0.88-1.45-0.88-2.4c0-0.97,0.28-1.76,0.84-2.38c0.56-0.62,1.28-0.93,2.16-0.93c0.83,0,1.52,0.32,2.08,0.97
		C230.83,323.65,231.11,324.45,231.11,325.41z M230.07,325.46c0-1.14-0.23-2.03-0.7-2.66c-0.29-0.4-0.7-0.6-1.22-0.6
		c-0.5,0-0.88,0.15-1.15,0.46c-0.5,0.56-0.75,1.47-0.75,2.74c0,1,0.18,1.78,0.53,2.33c0.35,0.55,0.84,0.83,1.48,0.83
		c0.59,0,1.03-0.26,1.33-0.78C229.91,327.19,230.07,326.42,230.07,325.46z"/>
	<path class="st30" d="M236.66,327.87c0,0.16-0.01,0.43-0.03,0.8h-0.1c-0.04,0-0.13-0.01-0.27-0.02c-0.14-0.01-0.3-0.02-0.48-0.02
		l-3.87-0.03c-0.11,0-0.16-0.03-0.16-0.08c0-0.04,0.08-0.07,0.25-0.08c0.24-0.01,0.38-0.04,0.42-0.08c0.05-0.04,0.07-0.16,0.07-0.35
		v-5.23c0-0.23-0.02-0.36-0.07-0.4c-0.05-0.04-0.21-0.06-0.5-0.06c-0.12,0-0.18-0.03-0.18-0.1c0-0.06,0.04-0.08,0.11-0.08h0.08
		c0.21,0.02,0.61,0.03,1.22,0.03c0.06,0,0.16,0,0.33-0.01c0.16-0.01,0.29-0.01,0.4-0.01h0.1c0.11,0,0.17,0.03,0.17,0.09
		c0,0.04-0.02,0.06-0.05,0.07c-0.03,0.01-0.14,0.02-0.32,0.02s-0.29,0.04-0.32,0.09s-0.05,0.22-0.05,0.49v5.5
		c0.17,0.01,0.4,0.01,0.7,0.01c0.73,0,1.24-0.04,1.54-0.11c0.3-0.08,0.5-0.21,0.61-0.42c0.11-0.21,0.17-0.48,0.19-0.83
		c0.01-0.08,0.04-0.12,0.11-0.12c0.08,0,0.11,0.05,0.11,0.14v0.23c0,0.01,0,0.04,0,0.08c0,0.04,0,0.09,0,0.13V327.87z"/>
	<path class="st30" d="M239.44,328.53c0,0.05-0.04,0.08-0.11,0.08h-0.09c-0.04-0.02-0.46-0.03-1.27-0.03
		c-0.16,0-0.31,0.01-0.47,0.02c-0.08,0.01-0.21,0.01-0.37,0.01c-0.08,0-0.12-0.03-0.12-0.08c0-0.05,0.08-0.08,0.24-0.08
		c0.25-0.01,0.39-0.04,0.44-0.09c0.04-0.05,0.07-0.23,0.07-0.54v-4.91c0-0.3-0.02-0.48-0.05-0.51c-0.04-0.06-0.21-0.1-0.52-0.11
		c-0.12,0-0.18-0.03-0.18-0.07c0-0.05,0.04-0.07,0.11-0.07h1.27c0.09,0,0.28,0,0.54,0.01l0.36-0.01c0.1,0,0.15,0.03,0.15,0.08
		c0,0.05-0.14,0.08-0.42,0.09c-0.16,0.01-0.25,0.03-0.29,0.08s-0.05,0.18-0.05,0.39v4.97c0,0.35,0.02,0.55,0.05,0.58
		c0.07,0.07,0.27,0.11,0.61,0.12C239.41,328.45,239.44,328.47,239.44,328.53z"/>
	<path class="st30" d="M245.77,322.19c0,0.05-0.06,0.08-0.18,0.08c-0.27,0.01-0.46,0.05-0.55,0.12c-0.09,0.08-0.19,0.25-0.29,0.52
		l-0.32,0.87c-0.76,2.1-1.3,3.71-1.61,4.83c-0.02,0.07-0.05,0.11-0.09,0.11c-0.05,0-0.15-0.23-0.31-0.7
		c-0.28-0.85-0.5-1.49-0.65-1.92c-0.17-0.47-0.41-1.18-0.74-2.12l-0.45-1.25c-0.06-0.17-0.13-0.29-0.21-0.35
		c-0.07-0.06-0.2-0.09-0.37-0.1c-0.21-0.01-0.33-0.01-0.37-0.02c-0.04-0.01-0.06-0.03-0.06-0.07c0-0.06,0.06-0.08,0.19-0.08h0.08
		c0.11,0,0.31,0,0.58,0.01c0.28,0.01,0.47,0.01,0.59,0.01c0.03,0,0.15,0,0.36-0.01c0.21-0.01,0.5-0.01,0.89-0.01h0.13
		c0.11,0,0.17,0.03,0.17,0.08c0,0.06-0.11,0.1-0.34,0.1l-0.57,0.02c-0.13,0.01-0.2,0.05-0.2,0.13c0,0.01,0.01,0.04,0.02,0.08
		l0.07,0.25c0.01,0.05,0.32,0.92,0.91,2.62c0.1,0.29,0.29,0.85,0.57,1.67c1.02-2.9,1.53-4.43,1.53-4.58c0-0.14-0.15-0.21-0.46-0.2
		h-0.29c-0.07,0-0.11-0.03-0.11-0.08c0-0.07,0.09-0.1,0.28-0.1c0.04,0,0.14,0,0.32,0c0.17,0.02,0.3,0.03,0.38,0.03h0.3l0.61-0.03
		C245.72,322.11,245.77,322.14,245.77,322.19z"/>
	<path class="st30" d="M251.6,328.54c0,0.05-0.05,0.08-0.14,0.08c-0.06,0-0.12,0-0.17-0.01l-1.18-0.04l-1.18,0.04
		c-0.04,0.01-0.09,0.01-0.14,0.01c-0.12,0-0.19-0.03-0.19-0.1c0-0.07,0.08-0.11,0.25-0.11c0.55-0.01,0.82-0.06,0.82-0.16
		c0-0.01-0.01-0.03-0.02-0.07l-0.08-0.25l-0.05-0.13c-0.06-0.19-0.19-0.62-0.41-1.28h-1.99c-0.37,0.99-0.56,1.57-0.56,1.71
		c0,0.09,0.04,0.14,0.11,0.16c0.02,0.01,0.17,0.02,0.47,0.04c0.18,0.01,0.27,0.04,0.27,0.09c0,0.06-0.08,0.09-0.24,0.09
		c-0.29,0-0.62-0.01-1-0.04c-0.09-0.01-0.19-0.01-0.29-0.01c-0.1,0-0.2,0.01-0.29,0.03c-0.05,0.01-0.09,0.02-0.12,0.02
		c-0.09,0-0.13-0.03-0.13-0.08s0.1-0.09,0.29-0.09c0.2-0.01,0.34-0.04,0.42-0.09c0.09-0.05,0.16-0.15,0.2-0.3
		c0.8-2.29,1.45-4.13,1.95-5.52c0.01-0.07,0.04-0.16,0.09-0.25l0.04-0.17c0.02-0.07,0.04-0.1,0.07-0.1c0.02,0,0.03,0.02,0.05,0.06
		c0.08,0.24,0.26,0.75,0.55,1.52c0.22,0.6,0.78,2.11,1.67,4.54c0.05,0.14,0.11,0.23,0.19,0.27c0.08,0.04,0.24,0.06,0.48,0.07
		C251.52,328.46,251.6,328.49,251.6,328.54z M249.08,326.31c-0.1-0.28-0.27-0.74-0.5-1.39l-0.45-1.29
		c-0.26,0.69-0.58,1.58-0.94,2.68H249.08z"/>
	<path class="st30" d="M256.71,328.33c0,0.26-0.22,0.39-0.65,0.39c-0.48,0-0.86-0.2-1.14-0.6c-0.12-0.17-0.19-0.34-0.23-0.5
		c-0.03-0.16-0.09-0.57-0.15-1.23c-0.04-0.4-0.16-0.68-0.38-0.84c-0.22-0.17-0.57-0.25-1.06-0.27v2.93c0,0.12,0.1,0.2,0.3,0.23
		c0.06,0.01,0.2,0.01,0.43,0.02c0.08,0,0.12,0.03,0.12,0.08c0,0.06-0.05,0.08-0.16,0.08h-0.11c-0.06,0-0.33,0-0.81,0
		c-0.09,0-0.25,0-0.48,0c-0.22,0-0.36,0-0.43,0h-0.36c-0.14,0-0.2-0.03-0.2-0.08c0-0.04,0.09-0.07,0.27-0.08
		c0.29-0.01,0.45-0.04,0.47-0.11c0.02-0.03,0.04-0.15,0.04-0.36v-5.14c0-0.25-0.03-0.4-0.08-0.45c-0.05-0.05-0.21-0.08-0.48-0.08
		c-0.16,0-0.23-0.03-0.23-0.08c0-0.06,0.05-0.09,0.15-0.09c0.02,0,0.05,0,0.08,0.01l1.24,0.03c0.12,0,0.3,0,0.52-0.01
		c0.25-0.02,0.42-0.03,0.52-0.03c0.58,0,1.04,0.13,1.37,0.39s0.51,0.61,0.51,1.05c0,0.43-0.17,0.79-0.52,1.08
		c-0.35,0.28-0.82,0.45-1.42,0.5c-0.06,0.01-0.09,0.02-0.09,0.03c0,0.03,0.03,0.04,0.09,0.04c0.65,0.11,1.1,0.34,1.35,0.69
		c0.25,0.35,0.41,0.97,0.49,1.87c0.05,0.51,0.22,0.77,0.52,0.77c0.09,0,0.14-0.02,0.14-0.06c0-0.01,0-0.01-0.01-0.02
		c-0.03-0.07-0.05-0.12-0.05-0.17c0-0.13,0.07-0.2,0.2-0.2C256.64,328.09,256.71,328.17,256.71,328.33z M254.79,323.66
		c0-0.89-0.38-1.33-1.15-1.33c-0.21,0-0.34,0.03-0.42,0.08c-0.07,0.06-0.11,0.16-0.11,0.3v2.37c0.6,0.01,1.03-0.1,1.29-0.33
		C254.65,324.53,254.79,324.16,254.79,323.66z"/>
	<path class="st30" d="M261.89,327.11c0,0.02-0.01,0.18-0.02,0.46c-0.01,0.28-0.02,0.55-0.02,0.8v0.31
		c-0.61-0.04-1.81-0.06-3.61-0.06c-0.22,0-0.43,0-0.64,0s-0.35,0-0.43,0h-0.09c-0.12,0-0.18-0.03-0.18-0.08
		c0-0.03,0.02-0.05,0.06-0.06c0.02,0,0.14-0.01,0.35-0.03c0.16-0.01,0.26-0.05,0.29-0.1c0.03-0.06,0.05-0.2,0.05-0.44v-5.25
		c0-0.18-0.03-0.29-0.08-0.32c-0.05-0.03-0.22-0.05-0.51-0.05c-0.1,0-0.15-0.03-0.15-0.08s0.07-0.08,0.21-0.08h1.59
		c0.06,0,0.41,0,1.05,0c0.65,0,1.08,0,1.3,0c0.19,0,0.36-0.01,0.51-0.04c0.01,0.27,0.04,0.64,0.08,1.11l0.04,0.4
		c0.01,0.03,0.01,0.07,0.01,0.12c0,0.06-0.03,0.09-0.08,0.09c-0.07,0-0.12-0.08-0.15-0.23c-0.12-0.56-0.31-0.92-0.58-1.07
		c-0.2-0.11-0.72-0.17-1.56-0.17h-0.76v2.74h0.22c0.7,0,1.12-0.05,1.27-0.16s0.26-0.41,0.31-0.92c0.01-0.13,0.05-0.2,0.1-0.2
		c0.07,0,0.1,0.06,0.1,0.17c0,0.11-0.01,0.28-0.02,0.49c-0.01,0.22-0.02,0.38-0.02,0.49c0,0.67,0.01,1.12,0.03,1.37
		c0.01,0.06,0.01,0.12,0.01,0.16c0,0.08-0.03,0.12-0.1,0.12c-0.04,0-0.07-0.03-0.09-0.08c-0.02-0.05-0.04-0.22-0.08-0.52
		c-0.05-0.37-0.2-0.59-0.45-0.68c-0.11-0.04-0.4-0.06-0.87-0.06h-0.42v3.12c1.37,0,2.17-0.03,2.4-0.08c0.41-0.09,0.64-0.48,0.7-1.18
		c0.01-0.15,0.05-0.23,0.12-0.23C261.86,326.91,261.89,326.97,261.89,327.11z"/>
	<path class="st30" d="M266.45,326.79c0,0.53-0.2,0.99-0.61,1.36c-0.41,0.38-0.9,0.56-1.47,0.56c-0.34,0-0.74-0.1-1.2-0.31
		c-0.12-0.06-0.22-0.08-0.28-0.08c-0.07,0-0.12,0.09-0.14,0.26c-0.01,0.09-0.05,0.13-0.12,0.13c-0.06,0-0.09-0.04-0.09-0.11
		c0-0.05,0-0.09,0.01-0.11c0.05-0.38,0.07-0.73,0.07-1.05c0-0.06-0.01-0.24-0.02-0.52c-0.01-0.04-0.01-0.09-0.01-0.15
		c0-0.09,0.04-0.14,0.11-0.14c0.06,0,0.11,0.08,0.13,0.23c0.16,1.12,0.69,1.67,1.57,1.67c0.38,0,0.67-0.11,0.88-0.32
		c0.21-0.21,0.31-0.52,0.31-0.91c0-0.35-0.1-0.64-0.3-0.89c-0.2-0.25-0.55-0.49-1.04-0.73c-0.59-0.29-1-0.57-1.23-0.85
		c-0.23-0.27-0.34-0.61-0.34-1.02c0-0.51,0.17-0.94,0.5-1.28s0.75-0.5,1.26-0.5c0.21,0,0.5,0.07,0.88,0.21
		c0.13,0.05,0.23,0.08,0.29,0.08c0.07,0,0.11-0.01,0.13-0.04c0.02-0.02,0.04-0.09,0.06-0.2c0.01-0.06,0.05-0.09,0.1-0.09
		c0.06,0,0.09,0.04,0.09,0.11c0,0.05,0,0.09-0.01,0.11c-0.02,0.15-0.03,0.33-0.03,0.54c0,0.3,0.02,0.53,0.05,0.71l0.01,0.15
		c0.01,0.07-0.02,0.1-0.08,0.1c-0.07,0-0.11-0.07-0.14-0.21c-0.07-0.37-0.23-0.67-0.48-0.92c-0.25-0.25-0.54-0.37-0.86-0.37
		c-0.31,0-0.56,0.1-0.74,0.3c-0.18,0.2-0.27,0.47-0.27,0.81c0,0.4,0.13,0.72,0.4,0.96c0.15,0.14,0.47,0.33,0.97,0.58
		c0.58,0.29,1,0.59,1.26,0.89C266.32,326.06,266.45,326.4,266.45,326.79z"/>
</g>
</svg>
