<?xml version="1.0" encoding="utf-8"?>
<!-- Generator: Adobe Illustrator 23.0.2, SVG Export Plug-In . SVG Version: 6.00 Build 0)  -->
<svg version="1.1" id="Layer_1" xmlns="http://www.w3.org/2000/svg" xmlns:xlink="http://www.w3.org/1999/xlink" x="0px" y="0px"
	 viewBox="0 0 391.4 509.4" style="enable-background:new 0 0 391.4 509.4;" xml:space="preserve">
<style type="text/css">
	.st0{fill:#FFFFFF;}
	.st1{fill:#FBBC00;}
	.st2{fill:#C70032;stroke:#FFFFFF;stroke-miterlimit:10;}
	.st3{fill:#D4EBF5;}
	.st4{fill:#8CEA8C;}
	.st5{fill:#C70032;}
	.st6{font-family:'D-DIN-Bold';}
	.st7{font-size:138.44px;}
	.st8{font-size:36.56px;}
</style>
<title>doc</title>
<polygon class="st0" points="15,434 15,107 28,82 279,82 309,99 309,454 35,454 "/>
<path class="st1" d="M164.7,0c1.6,0.5,3.1,1.1,4.8,1.4c18.6,3.5,32.8,18.7,35,37.5c0.2,1.6,0.6,3.2,1.2,6c5.3,0,10.6,0,15.9,0
	c4.7,0,9.3-0.1,14,0.2c7.5,0.4,11.5,4.6,11.9,12c0.1,2.3,0.3,4.6,0.5,7.4c2.1,0.4,4.3,0.6,6.5,0.8c9.3,0.1,18.7,0,28,0.1
	c21.3,0.2,38.9,16.9,40.1,38.2c0.4,7.8,0.2,15.6,0.2,23.5c0,58.5,0,117,0,175.5c0,2.6-0.3,5.2-0.4,8.6l-25.6-3.1
	c-0.2-2.4-0.5-4.7-0.5-6.9c0-63.6,0-127.3,0-191c0-13-5.1-18.2-18.1-18.3c-7.8,0-15.7,0-23.5,0c-2,0-3.9,0.4-6.5,0.6
	c-0.2,3.7-0.4,7.1-0.5,10.5c-0.3,8-4.8,12.7-12.9,12.7c-48.7,0.1-97.3,0.1-146,0c-8.5,0-13.2-4.8-13.4-13.4c-0.1-3.1,0-6.2,0-9.8
	c-3.1-0.3-5.3-0.7-7.6-0.7c-7.3-0.1-14.7-0.1-22,0c-13.9,0.1-19.1,5.2-19.1,19c0,82,0,164,0,246c0,22,0,44,0,66
	c0,12.2,5.5,17.7,17.7,17.7c47.3,0,94.7,0,142,0c2.3,0,4.6,0.2,7.2,0.3c3.5,8.4,6.9,16.6,10.6,25.5c-2.6,0.2-4.5,0.6-6.4,0.6
	c-51.7,0-103.3,0-155,0C17.1,466.8,0,449.5,0,424c0-105,0-209.9,0-314.9c0-26.6,17.2-43.7,43.8-43.8c8,0,16,0,24,0
	c2.1,0,4.2-0.3,6.7-0.6c0.2-2.2,0.5-3.9,0.6-5.7c0.4-9.7,4.6-13.9,14.3-14.1c6.8-0.1,13.7,0,20.5-0.1c2.4,0,4.9-0.4,7.5-0.7
	c0.5-3.1,0.9-5.7,1.5-8.3c3.8-18.4,17.2-31.4,35.6-34.7c1.4-0.4,2.9-0.8,4.2-1.3h6V0z M140.2,43.4c0,12.3,9.2,21.9,21,22
	c12,0,21.7-9.7,21.7-21.7c0-0.1,0-0.3,0-0.4c-0.1-11.1-10-20.6-21.5-20.6S140.2,32.1,140.2,43.4z"/>
<path class="st2" d="M200,413.4c-0.1-52.6,42.6-95.4,95.2-95.4c0,0,0,0,0.1,0c53.5-0.2,96.1,42.4,96.1,96.1
	c0,52.3-43,95.8-95.5,95.4C237.4,509,199.3,461.3,200,413.4z M295.7,487.4c40.7-0.1,73.8-33.1,73.9-73.8
	c0.1-40.4-33.4-73.9-73.9-73.9c-40.7,0.2-73.7,33.1-73.9,73.9C221.7,454,255,487.4,295.7,487.4L295.7,487.4z"/>
<path class="st3" d="M198.7,289.3c16.7,0,33.3,0,49.9,0c5.1,0,8.7,2.6,10.2,7.3c1.5,4.5,0.6,8.8-3.3,11.6c-2.2,1.5-4.7,2.4-7.4,2.5
	c-33.1,0.2-66.2,0.2-99.4,0.1c-6.9,0-11.4-4.5-11.4-10.7s4.7-10.8,11.8-10.8C165.8,289.2,182.3,289.3,198.7,289.3L198.7,289.3z"/>
<path class="st3" d="M198.3,245.9c-16,0-32,0-47.9,0c-8.1,0-12.9-4.1-13-10.7s4.9-10.9,12.8-10.9c32.5,0,64.9,0,97.4,0
	c5.7,0,9.8,2.3,11.4,7.8c1.4,5,0,9.5-4.6,12c-2.5,1.2-5.3,1.8-8.1,1.7C230.2,245.9,214.3,245.9,198.3,245.9z"/>
<path class="st3" d="M198.7,159.2c16,0,32,0,47.9,0c8.1,0,12.7,4,12.7,10.8s-4.5,10.8-12.7,10.8c-32.1,0-64.2,0-96.4,0
	c-8,0-12.9-4.2-12.9-10.8s4.9-10.7,12.9-10.8C166.4,159.2,182.6,159.2,198.7,159.2z"/>
<path class="st3" d="M207.7,355.2c-3.4,6.5-6.3,12.7-9.7,18.5c-0.7,1.2-3.1,2.1-4.7,2.1c-15.1,0.1-30.3,0.2-45.4,0
	c-5.8,0-10.5-4.6-10.5-10.4c0,0,0,0,0-0.1c-0.1-5.8,4.5-10.6,10.3-10.8c19.1-0.2,38.3-0.1,57.4,0C206,354.6,206.9,354.8,207.7,355.2
	z"/>
<path class="st4" d="M86,302.8c1.9-2.2,3.3-3.6,4.5-5.2c6.9-9.1,13.8-18.3,20.8-27.5c2.9-3.9,6.6-5.1,10.9-2.4
	c3.7,2.3,4.2,6.6,1.1,10.9c-10,13.5-20.1,26.9-30.3,40.2c-4.1,5.4-9,5.3-13.3,0c-5.4-6.8-10.6-13.7-15.6-20.7c-3-4.1-2.4-8.6,1-11.1
	s7.4-1.8,10.8,2.5S82.3,298,86,302.8z"/>
<path class="st4" d="M86,237.8c2-2.3,3.3-3.7,4.5-5.2c7-9.1,13.8-18.4,20.8-27.5c3.1-4,7.5-4.8,10.9-2.3c3.5,2.6,4,6.7,0.8,11
	c-9.9,13.4-19.9,26.7-30.1,39.9c-4.2,5.5-9.1,5.5-13.3,0.2c-5.4-6.8-10.6-13.7-15.7-20.7c-3-4.1-2.5-8.5,0.9-11.1
	c3.4-2.6,7.4-1.8,10.8,2.4S82.2,232.8,86,237.8z"/>
<path class="st4" d="M85.9,367.8c1.9-2.1,3.3-3.5,4.4-5c6.9-9,13.6-18.1,20.5-27.1c3.6-4.6,8-5.6,11.6-2.7s3.8,6.7,0.2,11.5
	c-9.7,13-19.4,25.9-29.2,38.7c-4.9,6.4-9.6,6.2-14.6-0.1s-9.7-12.7-14.4-19.2c-3.4-4.6-3-9.3,0.7-11.9s7.5-1.5,11.1,3.1
	C79.3,359.1,82.4,363.2,85.9,367.8z"/>
<path class="st4" d="M86,172.8c2-2.3,3.3-3.8,4.5-5.3c7-9.2,13.8-18.4,20.8-27.5c3-3.9,7.6-4.8,10.9-2.1c3.8,3.1,3.8,6.9,1,10.6
	c-10.2,13.6-20.3,27.2-30.8,40.7c-3.8,5-8.7,4.9-12.6,0c-5.6-7-11-14.2-16.3-21.5c-2.7-3.7-2.4-7.7,1.4-10.6
	c3.8-2.9,7.6-1.4,10.4,2.1C78.9,163.3,82.2,167.7,86,172.8z"/>
<text transform="matrix(1 0 0 1 256.39 458.74)" class="st5 st6 st7">2</text>
<text transform="matrix(1 0 0 1 328.39 425.76)" class="st5 st6 st8">yr</text>
</svg>
