<?xml version="1.0" encoding="utf-8"?>
<!-- Generator: Adobe Illustrator 23.0.2, SVG Export Plug-In . SVG Version: 6.00 Build 0)  -->
<svg version="1.1" id="Layer_1" xmlns="http://www.w3.org/2000/svg" xmlns:xlink="http://www.w3.org/1999/xlink" x="0px" y="0px"
	 viewBox="0 0 612 792" style="enable-background:new 0 0 612 792;" xml:space="preserve">
<style type="text/css">
	.st0{fill:#7A5141;}
	.st1{fill:#8E5D4E;}
	.st2{fill:#A3695B;}
	.st3{fill:none;stroke:#3A3433;stroke-width:1.0846;stroke-miterlimit:10;}
	.st4{fill:#4C4446;}
	.st5{fill:#695E62;}
	.st6{fill:#9A6259;}
	.st7{fill:#E0C8C3;}
	.st8{fill:#D1BCB8;}
	.st9{fill:none;}
	.st10{opacity:0.98;enable-background:new    ;}
	.st11{enable-background:new    ;}
	.st12{fill:#BB3126;}
</style>
<rect x="113.6" y="62.6" class="st0" width="243.5" height="365.3"/>
<rect x="121.8" y="71" class="st1" width="226.5" height="356.9"/>
<rect x="146.5" y="97.5" class="st2" width="73.5" height="125.3"/>
<rect x="248" y="97.5" class="st2" width="73.5" height="125.3"/>
<rect x="146.4" y="245.7" class="st2" width="73.5" height="125.3"/>
<rect x="248.9" y="245.7" class="st2" width="73.5" height="125.3"/>
<path class="st3" d="M308.3,283.4c0,0,12.1-32.4,19.9-31.6c0,0,5.4-1.3,8.3,2.5c3,3.8,9.1,24.7,10.1,29.1"/>
<circle class="st4" cx="330.5" cy="256.6" r="10.1"/>
<path class="st5" d="M329.7,248.3c0,0-7.6,2.9-7.1,7.6c0.5,4.7,2.3,7.3,4.8,8.2C327.4,264.1,321.7,255,329.7,248.3z"/>
<polygon class="st6" points="219.9,101.3 151.5,101.3 151.5,218.2 219.9,218.2 220,222.8 146.5,222.8 146.5,97.5 220,97.5 "/>
<polygon class="st6" points="321.4,101.3 253,101.3 253,218.2 321.4,218.2 321.5,222.8 248,222.8 248,97.5 321.5,97.5 "/>
<polygon class="st6" points="219.9,249.4 151.5,249.4 151.5,366.4 219.9,366.4 220,371 146.5,371 146.5,245.7 220,245.7 "/>
<polygon class="st6" points="321.9,249.4 253.4,249.4 253.4,366.4 321.9,366.4 321.9,371 248.4,371 248.4,245.7 321.9,245.7 "/>
<polygon class="st7" points="371.5,312.5 286.6,312.5 286.6,283.4 312.5,283.4 371.5,283.4 "/>
<path class="st8" d="M287.9,309v-24h16.3v1.4C304.1,286.3,285.3,278.2,287.9,309z"/>
<rect x="298.9" y="293" class="st9" width="75.4" height="23.6"/>
<g class="st10">
	<path d="M300.6,298.9v0.6c0,0.6,0.8,1,1.7,1c1,0,1.7-0.5,1.7-1.3c0-1-1-1.3-2-1.7c-1.1-0.4-2.2-0.9-2.2-2.4c0-1.6,1.3-2.3,2.7-2.3
		c1.3,0,2.6,0.5,2.6,1.4v1h-1.1v-0.6c0-0.5-0.8-0.8-1.5-0.8c-0.8,0-1.5,0.4-1.5,1.2c0,0.9,0.9,1.2,1.8,1.6c1.2,0.5,2.5,1,2.5,2.5
		c0,1.6-1.3,2.5-2.9,2.5c-1.3,0-2.8-0.6-2.8-1.8v-0.9L300.6,298.9L300.6,298.9z"/>
	<path d="M306.5,300.5h1v-6.6h-1V293h6.1v2h-1v-1h-2.8v2.7h3v1h-3v2.8h3v-1h1v2h-6.3L306.5,300.5L306.5,300.5z"/>
	<path d="M314,300.5h1.1v-6.6H314V293h3.7c0.6,0,1.1,0,1.6,0.2c0.9,0.3,1.5,1,1.5,2.2c0,1.2-0.7,2.1-1.8,2.4v0c0,0,0.2,0.1,0.4,0.4
		l1.2,2.1c0.1,0.2,0.3,0.3,0.6,0.3h0.2v0.9h-0.7c-0.7,0-0.9-0.1-1.2-0.6l-1.3-2.3c-0.2-0.4-0.4-0.5-0.9-0.5h-1v2.5h1v0.9H314
		L314,300.5L314,300.5z M318,297.1c0.9,0,1.5-0.6,1.5-1.6c0-0.7-0.3-1.1-0.8-1.3c-0.3-0.1-0.6-0.2-1-0.2h-1.4v3.1L318,297.1
		L318,297.1z"/>
	<path d="M322.6,293.9h-0.8V293h3v0.9h-0.9l1.9,5.6c0.1,0.3,0.1,0.7,0.1,0.7h0c0,0,0-0.4,0.1-0.7l1.9-5.6H327V293h3v0.9h-0.8
		l-2.7,7.5h-1.3L322.6,293.9z"/>
	<path d="M330.8,300.5h1.1v-6.6h-1.1V293h3.3v0.9h-1.1v6.6h1.1v0.9h-3.3V300.5z"/>
	<path d="M339.6,292.9c1,0,3.2,0.4,3.2,1.7v1h-1.1v-0.7c0-0.7-1.3-1-2.1-1c-1.8,0-3.1,1.3-3.1,3.2c0,2,1.4,3.4,3.2,3.4
		c0.6,0,2.1-0.2,2.1-1v-0.7h1.1v1c0,1.2-2.1,1.7-3.3,1.7c-2.5,0-4.4-2-4.4-4.4C335.3,294.7,337.1,292.9,339.6,292.9z"/>
	<path d="M344.2,300.5h1.1v-6.6h-1.1V293h6.1v2h-1v-1h-2.8v2.7h3v1h-3v2.8h3v-1h1v2h-6.3L344.2,300.5L344.2,300.5z"/>
	<path d="M352.9,298.9v0.6c0,0.6,0.8,1,1.7,1c1,0,1.7-0.5,1.7-1.3c0-1-1-1.3-2-1.7c-1.1-0.4-2.2-0.9-2.2-2.4c0-1.6,1.3-2.3,2.7-2.3
		c1.3,0,2.6,0.5,2.6,1.4v1h-1.1v-0.6c0-0.5-0.8-0.8-1.5-0.8c-0.8,0-1.5,0.4-1.5,1.2c0,0.9,0.9,1.2,1.8,1.6c1.2,0.5,2.5,1,2.5,2.5
		c0,1.6-1.3,2.5-2.9,2.5c-1.3,0-2.8-0.6-2.8-1.8v-0.9L352.9,298.9L352.9,298.9z"/>
</g>
<rect x="137" y="110.1" class="st9" width="212.6" height="270.3"/>
<g class="st11">
	<path class="st12" d="M289.2,352.9l-29.4-51c-12-19.5-19.5-32.1-26.7-45.5h-0.7c-6.5,13.3-13,25.6-25,45.8l-27.7,50.6h-34.2
		L216,236.3l-67.7-113.9h34.5l30.4,54c8.5,15,15,26.7,21.2,39h1c6.5-13.7,12.3-24.3,20.9-39l31.5-54h34.2l-70.1,112.2l71.8,118.3
		H289.2z"/>
</g>
</svg>
