<?xml version="1.0" encoding="utf-8"?>
<!-- Generator: Adobe Illustrator 23.0.2, SVG Export Plug-In . SVG Version: 6.00 Build 0)  -->
<svg version="1.1" id="Layer_1" xmlns="http://www.w3.org/2000/svg" xmlns:xlink="http://www.w3.org/1999/xlink" x="0px" y="0px"
	 viewBox="0 0 693.1 249" style="enable-background:new 0 0 693.1 249;" xml:space="preserve">
<style type="text/css">
	.st0{fill:#333333;}
	.st1{font-family:'D-DIN-Bold';}
	.st2{font-size:94px;}
	.st3{fill:#FDAB00;}
	.st4{font-family:'D-DIN';}
	.st5{font-size:36px;}
	.st6{fill:#134C9D;}
	.st7{fill:#B80727;}
</style>
<title>main-title</title>
<text transform="matrix(1 0 0 1 0.53 79.43)" class="st0 st1 st2">UNDOCUMENTED</text>
<rect x="0.1" y="39" class="st3" width="119" height="12"/>
<text transform="matrix(1 0 0 1 0 134.91)" class="st4 st5">T</text>
<text transform="matrix(1 0 0 1 15.44 134.91)" class="st4 st5">he </text>
<text transform="matrix(1 0 0 1 61.77 134.91)" class="st4 st5">L</text>
<text transform="matrix(1 0 0 1 80.35 134.91)" class="st4 st5">egal </text>
<text transform="matrix(1 0 0 1 155.09 134.91)" class="st4 st5">L</text>
<text transform="matrix(1 0 0 1 173.55 134.91)" class="st4 st5">imbo of </text>
<text transform="matrix(1 0 0 1 298.11 134.91)" class="st4 st5">V</text>
<text transform="matrix(1 0 0 1 316.11 134.91)" class="st4 st5">enezuelans in Colombia</text>
<rect x="155.1" y="164.5" class="st3" width="133.5" height="8.4"/>
<rect x="288.6" y="164.5" class="st6" width="133.5" height="8.4"/>
<rect x="422.1" y="164.5" class="st7" width="133.5" height="8.4"/>
</svg>
