<?xml version="1.0" encoding="utf-8"?>
<!-- Generator: Adobe Illustrator 23.0.1, SVG Export Plug-In . SVG Version: 6.00 Build 0)  -->
<svg version="1.1" id="Layer_1" xmlns="http://www.w3.org/2000/svg" xmlns:xlink="http://www.w3.org/1999/xlink" x="0px" y="0px"
	 viewBox="0 0 486.75 537.35" style="enable-background:new 0 0 486.75 537.35;" xml:space="preserve">
<style type="text/css">
	.st0{fill:url(#SVGID_1_);}
	.st1{fill:url(#SVGID_2_);}
	.st2{fill:url(#SVGID_3_);}
	.st3{fill:#785D3F;}
	.st4{fill:#76523B;}
	.st5{fill:#EBE4CD;}
	.st6{fill:#88684F;}
	.st7{fill:#B2A384;}
	.st8{fill:#887054;}
	.st9{fill:#816C4C;}
	.st10{fill:#C0B290;}
	.st11{fill:#9C8167;}
	.st12{fill:#A78F73;}
	.st13{fill:#DDC1A7;}
	.st14{fill:#805439;}
	.st15{fill:#9B6676;}
	.st16{fill:#DDB49B;}
	.st17{fill:none;}
	.st18{fill:#C38B94;}
	.st19{font-family:'MyriadPro-Bold';}
	.st20{font-size:29.1024px;}
	.st21{fill:none;stroke:#9B6676;stroke-width:1.1641;stroke-miterlimit:10;}
	.st22{fill:#D7A39F;}
	.st23{fill:#DCB9BE;}
	.st24{font-family:'BodoniSvtyTwoITCTT-Book';}
	.st25{font-size:17.4614px;}
	.st26{fill:url(#SVGID_4_);}
	.st27{fill:#935F43;}
	.st28{fill:#E7A671;}
	.st29{fill:#2A6C5F;}
	.st30{font-family:'Charter-Bold';}
	.st31{font-size:50.0561px;}
	.st32{fill:#60432B;}
	.st33{font-size:16.2973px;}
	.st34{fill:#E1B88A;}
	.st35{fill:#E8CDA7;}
	.st36{fill:#2D202C;}
	.st37{font-size:9.3128px;}
	.st38{fill:url(#SVGID_5_);}
	.st39{fill:url(#SVGID_6_);}
	.st40{fill:url(#SVGID_7_);}
	.st41{fill:url(#SVGID_8_);}
	.st42{fill:#F6D11C;}
	.st43{fill:#1D439B;}
	.st44{fill:#D1202D;}
	.st45{fill:#DADDCC;}
	.st46{fill:#514B32;}
	.st47{fill:#080806;}
	.st48{fill:#C0BDAC;}
	.st49{fill:#030305;}
	.st50{fill:#010101;}
</style>
<linearGradient id="SVGID_1_" gradientUnits="userSpaceOnUse" x1="134.172" y1="244.0222" x2="135.2662" y2="16.9436">
	<stop  offset="0.1002" style="stop-color:#EDBA6E"/>
	<stop  offset="0.2241" style="stop-color:#DEB17D"/>
	<stop  offset="0.4317" style="stop-color:#EDDABA"/>
	<stop  offset="0.5978" style="stop-color:#EBD7B7"/>
	<stop  offset="0.84" style="stop-color:#EEC6B2"/>
</linearGradient>
<polygon class="st0" points="32.44,17.44 238.09,17.44 234.78,212.43 222.52,235.12 32.44,243.53 "/>
<linearGradient id="SVGID_2_" gradientUnits="userSpaceOnUse" x1="133.8418" y1="230.9906" x2="134.0784" y2="181.8794">
	<stop  offset="0.1002" style="stop-color:#EDBA6E"/>
	<stop  offset="0.2241" style="stop-color:#EEB86C"/>
	<stop  offset="0.4317" style="stop-color:#E2B262"/>
	<stop  offset="0.7654" style="stop-color:#D8A663"/>
</linearGradient>
<path class="st1" d="M31.93,181.39c0,0,8.48,7.5,17,9.77s8.8,4.67,18.05,4.67s38.2-6.74,50.69-7.22s117.54-2.4,117.54-2.4
	l0.84,33.77L31.93,230.5V181.39z"/>
<linearGradient id="SVGID_3_" gradientUnits="userSpaceOnUse" x1="134.2624" y1="453.2998" x2="135.5385" y2="188.4674">
	<stop  offset="0.1002" style="stop-color:#FBC1AD"/>
	<stop  offset="0.3755" style="stop-color:#EEC9A8"/>
	<stop  offset="0.6622" style="stop-color:#EDDABE"/>
	<stop  offset="1" style="stop-color:#EECFC4"/>
</linearGradient>
<path class="st2" d="M32.77,210.65c0,0,10.01-0.35,11.05,5.52c1.04,5.87,0.12,15.89,3.22,15.7c3.09-0.18,5.27-2.18,4.18-9.82
	s-3.07-12.54,0.28-13.27c3.35-0.73,4.44,4.54,6.62,3.45c2.18-1.09,1.09-3.64,4-5.64c2.91-2,4.54,5.45,7.82,4.91s2.29,5.82,6.42,6
	c4.13,0.18,2.31,0.18,2.31-6.73c0-6.91-1.45-10.18,2-10.18c3.45,0,5.27,4.73,9.09,3.45s6.36-3.64,4.54-8
	c-1.82-4.36,5.09-3.64,5.09-2.18s-3.82,10-3.64,14.18c0.18,4.18,16.72,6,15.09-2s-0.91-9.27,1.64-9.63s2,5.45,4.54,5.45
	c2.54,0,3.82-2.73,6.91-6.73c3.09-4,2,1.82,3.09,4.54c1.09,2.73,4.36,1.09,6.73,0.91c2.36-0.18,2.73,4.91,5.82,3.82
	c3.09-1.09,2-4.73,3.09-8.73c1.09-4,3.53-3.82,3.67-0.91s0.51,2.18,2.32,3.45c1.82,1.27,6.36,2.91,9.45-0.18
	c3.09-3.09,6-3.82,7.63-1.45c1.64,2.36,4.18,2.36,5.45,0.36s3.64-4.18,4.18-2.73s3.64,0.36,4.18,3.82
	c0.55,3.45-2.73,11.67,0.73,14.2c3.45,2.52,6.91-0.02,9.27-7.66s4.18-11.09,7.63-9.09s4.18-0.83,5.09-2.87s3.09-5.67,3.82-2.76
	c0.73,2.91-1.45,6.36,0,8c1.45,1.64-0.73,3.09,2.73,8.54c0,0,1.82,1.82,2.36-4.73c0.55-6.54-1.64-7.82,1.45-9.63
	c3.09-1.82,3.09,0.55,3.09,3.82s2.36,0.18,3.09,2.54c0.73,2.36,2.36,0.73,4.18,2.91c1.82,2.18,4,12.18,11.45,11.09
	c7.45-1.09,0,240.38,0,240.38H32.77V210.65z"/>
<path class="st3" d="M112.83,367.71c0,0-1.85,0.5-4.6,1.25c-3.73,1.02-9.13,2.51-13.88,3.88c-4.92,1.42-9.15,2.71-10.1,3.21
	l0.14,10.65l0.21,16.48l137.6,0.23V386.9c0,0-22.9-8.17-25.59-10.01C193.91,375.05,112.83,367.71,112.83,367.71z"/>
<path class="st4" d="M119.65,365.42l-1.92,2.29l6.23,23.5l12.79-0.34l29.06-18.4c0,0,20.87-17.7,19.72-22.94
	c0,0,0.56-4.63-0.77-6.28C183.44,341.6,119.65,365.42,119.65,365.42z"/>
<path class="st5" d="M149.41,364.56c0,0-1.32,2.51-1.02,3.13c0.3,0.62,32.99-12.85,36.38-24.44l-23.76,13.55
	C161.01,356.8,150.05,363.18,149.41,364.56z"/>
<path class="st6" d="M115.55,360.64c0.11,0.74-12.23-2.48-13.26-3.16c-5.11-3.35-7.21-10.29-7.42-16.08
	c-0.25-6.53,1.4-12.96,2.14-19.45c0.79-6.82,0.96-15.88-5.3-20.06c-11.14-7.46-4.19-19.82-1.13-30.24
	c3.04-10.36-1.84-23.97,7.25-32.02c7.29-6.45,27.57-16.82,34.71-17.05c7.14-0.23,33.18,1.61,42.4,10.6
	c6.77,6.6,37.39,37.42,21.16,45.52c-0.68,0.34-1.54,1.13-0.99,1.66c0.25,0.24,0.64,0.21,0.98,0.14c1.69-0.35,3.58-1.2,4.99-0.21
	c1.16,0.81,1.31,2.46,1.27,3.88c-0.2,7.49-2.25,16.7-7.4,22.42c-3.93,4.37-5.74,11-7.27,16.53c-1.79,6.5-3.02,12.54-2.81,19.28
	c0.01,0.29,0.02,0.6-0.1,0.86c-0.15,0.35-0.48,0.58-0.79,0.79c-3.81,2.56-7.64,5.08-11.42,7.67c-2.47,1.68-5.64,4.83-8.81,4.74
	c-2.34-0.07-17.28-15.47-17.28-15.47l14.62-26.39l-6.58-38.32l-34.37,0.55l-4.02,24.49l-4.39,33.63
	C111.74,334.94,115.55,360.61,115.55,360.64z"/>
<path class="st5" d="M126.02,264.43c0,0-3.79-0.84-9.49-4.43c-5.69-3.58-13.07-2.53-15.6,4.43c-2.38,6.55-3.03,14-3.09,20.92
	c-0.03,3.62,0.2,7.23,0.86,10.79c0.81,4.35,3.14,8.36,3.55,12.79c0.64,7.12-3.11,13.28-1.02,20.45c2.32,7.96,6.26,15.3,9.91,22.7
	c1.99,4.04,4.01,8.11,6.41,11.93c0.66,1.05,1.46,2.74,2.48,3.49c2.71,2,8.49,2.17,11.75,2.46c2.75,0.24,5.57,0.27,8.21-0.53
	c1.95-0.59,3.74-1.61,5.5-2.63c3.23-1.86,6.46-3.71,9.7-5.57c1.92-1.1,9.57-3.71,8.96-6.12c-0.25-0.98-3.63-3.2-4.37-4.41
	c-1.17-1.9-1.89-4.1-1.99-6.33c-0.19-3.97,1.41-7.84,3.59-11.16c2.18-3.32,4.94-6.22,7.43-9.32c3.7-4.61,3.83-9.82,3.87-15.51
	c0.03-3.97,0.13-8.13-1.29-11.9c-1.54-4.08-4.81-7.26-6.1-11.46c-2.32-7.5-1.26-14.63-0.51-22.23c0.4-4.02,0.75-9.12-4.6-9.12
	c-6.32,0-4.85-0.63-9.28,0c-4.43,0.63-16.57,12.86-23.82,10.54"/>
<path class="st5" d="M184.91,331.83c0.53-0.46,0.88-1.2,1.28-1.79c1.52-2.28,2.92-4.65,4.18-7.09c2.92-5.67,6.06-13.03,4.12-19.48
	c-0.9-2.99-2.75-6.15-6.14-6.56c-4.58-0.56-8.01,2.96-8.12,7.31c-0.12,4.55,2,9.09,0.58,13.6c-0.64,2.01-1.5,3.96-1.93,6.03
	c-0.42,2.07-0.36,4.35,0.78,6.13c0.84,1.32,2.99,2.81,4.67,2.22C184.53,332.11,184.73,331.98,184.91,331.83z"/>
<path class="st7" d="M115.01,346.85c0,0,5.58,4.54,9.77,4.75c4.2,0.2,15.24-4.75,15.24-4.75l-6.19-1.04l-6.63,0.34l-6.68-0.7
	C120.54,345.45,115.4,346.45,115.01,346.85z"/>
<path class="st8" d="M115.01,346.85c0,0,3.42-2.71,5.25-2.54c1.82,0.17,2.82,1.05,3.87,0.83c1.05-0.22,6.19-2.04,8.73-1.6
	c2.54,0.44,7.18,3.31,7.18,3.31s-10.6-0.33-12.51,0c-1.91,0.33-3.4,1.1-5.66,0C119.6,345.75,115.01,346.85,115.01,346.85z"/>
<path class="st9" d="M134.04,295.41c0,0,8.1-5.91,12.27-5.98c4.16-0.08,10.6,3.94,12.42,5.15c1.82,1.21,0.91,0.83,0.91,0.83
	s-1.21-0.23-6.21-1.74s-7.65-2.44-10.22-1.22c-2.57,1.22-7.02,3.8-7.94,3.8C134.34,296.24,133.81,296.92,134.04,295.41z"/>
<polygon class="st10" points="138.62,394.89 145.8,403.4 153.34,403.4 196.6,376.89 188.39,364.27 "/>
<path class="st9" d="M118.9,298.21c0,0-4.09-4.16-8.03-4.24c-3.94-0.08-8.56,3.56-9.46,4.24c-0.91,0.68-0.68,2.5-0.53,2.8
	c0.15,0.3,6.59-4.92,9.92-4.62c3.33,0.3,5.07,2.04,6.21,2.27C118.14,298.89,118.9,298.21,118.9,298.21z"/>
<path class="st5" d="M112.04,360.75c0,0,0.21,4.44,1.8,7.61s8.37,12.61,9.96,14.73c1.59,2.12,1.91,2.75,1.91,2.75
	s0.74-8.26-2.86-13.03c-3.6-4.77-7.3-12.18-7.3-12.18l-3.51-0.41V360.75z"/>
<path class="st5" d="M140.03,385.85c0,0,1.19-9.46,3-11.58c1.82-2.12,30.39-11.61,34.43-15.65c4.04-4.04,8.08-9.09,8.08-9.09
	s1.01,1.82,0.91,3.53c-0.1,1.72-33.62,24.94-33.62,24.94L140.03,385.85z"/>
<polygon class="st11" points="114.41,369.39 113.62,379.3 125.77,396.96 130.91,391.32 "/>
<path class="st11" d="M137.17,396.96l-4.13-5.76c0,0,52.1-34.32,53.41-38.14c0,0,1.94,10.21,1.94,11.21
	C188.39,365.27,137.79,394.71,137.17,396.96z"/>
<polygon class="st10" points="111.89,376.81 109.88,376.81 109.33,383.95 119.35,396.6 121.8,391.21 "/>
<path class="st12" d="M124.55,371.88c0,0,8.32,1.59,17.67,0C142.22,371.88,132.28,376.9,124.55,371.88z"/>
<path class="st13" d="M166.09,395.59l18.6,7.75l37.5,0.06c0,0-5.48-5.8-13.26-12.19s-14.14-9.43-14.55-12.96L166.09,395.59z"/>
<path class="st14" d="M97.87,403.18c0,0,11.57-21.68,15.75-23.88l0.78-9.91c0,0-0.92-1.75-1.1-2.28c0,0-23.93,30.37-25.43,36.06
	H97.87z"/>
<polygon class="st15" points="68.76,444.18 104.31,404.21 221.73,404.21 187.28,444.18 "/>
<polygon class="st16" points="87.88,397.79 108.23,368.96 90.01,374.11 84.34,383.84 84.59,403.18 "/>
<polygon class="st3" points="57.91,248.95 60.5,243.53 62.81,248.95 70.59,249.24 64.77,254.83 66.73,262.15 60.33,257.42 
	54.22,261.63 56.12,255.17 49.9,249.12 "/>
<polygon class="st15" points="91.62,404.21 57.45,444.09 49.65,444.09 84.65,404.21 "/>
<polygon class="st15" points="101.14,404.21 66.89,444.18 59.09,444.18 94.17,404.21 "/>
<rect x="110.36" y="413.28" class="st17" width="63.73" height="23.18"/>
<text transform="matrix(1 0 0 1 110.3549 433.9413)" class="st18 st19 st20">BCV</text>
<polygon class="st15" points="221.73,416.42 197.27,444.18 189.32,444.18 221.73,408.46 "/>
<polygon class="st15" points="221.73,425.79 206.29,444.18 199.15,444.18 221.73,418.95 "/>
<path class="st21" d="M93.14,428.07"/>
<path class="st22" d="M93.6,426.93c0,0,3.53-6.6,4.78-8.42c1.25-1.82,2.73-2.05,2.05,0c-0.29,0.33-1.55,2.19-0.19,1.64
	c1.45-0.59,2.33-2.14,2.52-3.7c0.11-0.94-1.44-6.25,0.13-6.02c1.52,0.23,1.29,1.02,1.86,2.73c0.57,1.71,1.82,2.84,2.39,1.36
	c0.57-1.48,0.37-3.41,1.1-5.46s1.75-2.27,1.86,0c0.11,2.27-1.36,5.23,0,4.32c1.36-0.91,0.91-3.98,2.84-3.53
	c1.93,0.45,1.61,1.02,0.69,2.62c-0.92,1.59-6.42,4.55-4.29,5.57c2.12,1.02,4.74-0.91,5.02,1.02c0.29,1.93,0.1,1.36-2.31,1.59
	c-1.37,0.13-2.71-0.28-4.07-0.35c-0.36-0.02-0.77,0.08-0.95,0.4c-0.08,0.14-0.1,0.3-0.1,0.46c0.03,0.75,0.67,1.35,1.37,1.62
	c0.7,0.27,1.46,0.31,2.19,0.48c0.12,0.03,0.26,0.07,0.31,0.18c0.03,0.06,0.03,0.13,0.03,0.19c-0.04,0.54-0.55,0.95-1.08,1.07
	c-0.53,0.13-1.08,0.04-1.62-0.01c-0.19-0.02-2.65,0.26-2.59,0.55c0.15,0.8,0.48,1.53,0.28,2.4c-0.03,0.12-0.07,0.24-0.15,0.33
	c-0.18,0.18-0.48,0.12-0.73,0.04c-1.84-0.56-3.68-1.11-5.53-1.67c-3.32-1-5.7,1.65-7.78,3.97L93.6,426.93z"/>
<path class="st22" d="M194.29,421.17c0,0-3.31,6.71-4.5,8.57s-2.66,2.13-2.05,0.07c0.28-0.34,1.48-2.24,0.14-1.64
	c-1.43,0.64-2.26,2.22-2.4,3.78c-0.08,0.94,1.64,6.2,0.07,6.02c-1.53-0.18-1.33-0.98-1.95-2.67c-0.62-1.69-1.91-2.78-2.43-1.29
	c-0.52,1.5-0.26,3.42-0.92,5.49c-0.66,2.07-1.67,2.33-1.86,0.06c-0.19-2.27,1.2-5.27-0.14-4.32s-0.78,4.01-2.73,3.62
	c-1.95-0.39-1.64-0.97-0.78-2.59c0.87-1.62,6.27-4.75,4.11-5.71c-2.16-0.95-4.7,1.06-5.05-0.86c-0.35-1.92-0.15-1.36,2.26-1.67
	c1.36-0.17,2.72,0.19,4.08,0.22c0.36,0.01,0.77-0.11,0.94-0.43c0.07-0.14,0.09-0.31,0.08-0.47c-0.05-0.75-0.72-1.32-1.42-1.57
	c-0.71-0.25-1.47-0.27-2.21-0.41c-0.12-0.02-0.26-0.06-0.32-0.17c-0.03-0.06-0.04-0.13-0.03-0.19c0.03-0.54,0.52-0.97,1.05-1.11
	c0.52-0.14,1.08-0.07,1.62-0.04c0.19,0.01,2.64-0.34,2.57-0.63c-0.18-0.79-0.53-1.51-0.36-2.39c0.02-0.12,0.06-0.25,0.14-0.33
	c0.18-0.19,0.48-0.13,0.73-0.07c1.86,0.5,3.72,0.99,5.58,1.49c3.35,0.9,5.65-1.84,7.65-4.22L194.29,421.17z"/>
<rect x="187.63" y="409.19" class="st17" width="21.42" height="14.76"/>
<text transform="matrix(1 0 0 1 187.6283 421.5311)" class="st23 st24 st25">50</text>
<linearGradient id="SVGID_4_" gradientUnits="userSpaceOnUse" x1="50.2805" y1="115.8036" x2="92.1128" y2="53.486">
	<stop  offset="0.1002" style="stop-color:#E7A671;stop-opacity:0.3"/>
	<stop  offset="0.4801" style="stop-color:#E7A671"/>
	<stop  offset="0.8766" style="stop-color:#E7A671;stop-opacity:0.55"/>
</linearGradient>
<path class="st26" d="M40.22,169.74l17.23-14.74c0,0-11.71-38.42-6.2-55.51s38.29-55.67,55.74-62.11c0,0-17.76-0.92-22.97,1.84
	c-5.21,2.76-51.61,53.35-51.61,53.35l0.03,63.29L40.22,169.74z"/>
<g>
	<path class="st27" d="M52.89,342.25l-2.17-0.49l-0.01-1.46l8.33,2.05l0.01,1.76l-8.3,2.01l-0.01-1.46l2.17-0.52L52.89,342.25z
		 M53.92,343.97l1.91-0.41c0.54-0.12,1.31-0.25,1.88-0.37l0-0.04c-0.58-0.09-1.37-0.23-1.89-0.34l-1.91-0.41L53.92,343.97z"/>
	<path class="st27" d="M54.83,352.96c-2.9,0.02-4.14-1.11-4.15-2.51c-0.01-1.73,1.76-2.5,4.07-2.52c2.48-0.02,4.14,0.84,4.15,2.56
		C58.91,352.32,57.02,352.95,54.83,352.96z M54.78,349.44c-1.9,0-2.98,0.32-2.98,1.08c0.01,0.69,1.12,0.96,2.99,0.95
		c1.79-0.01,2.98-0.29,2.98-1.01C57.76,349.75,56.66,349.42,54.78,349.44z"/>
	<path class="st27" d="M54.88,359.91c-2.9,0.02-4.14-1.11-4.15-2.51c-0.01-1.73,1.76-2.5,4.07-2.52c2.48-0.02,4.14,0.84,4.15,2.56
		C58.96,359.26,57.07,359.9,54.88,359.91z M54.83,356.38c-1.9,0-2.98,0.32-2.98,1.08c0.01,0.69,1.12,0.96,2.99,0.95
		c1.79-0.01,2.98-0.29,2.98-1.01C57.82,356.7,56.71,356.37,54.83,356.38z"/>
	<path class="st27" d="M54.93,366.86c-2.9,0.02-4.14-1.11-4.15-2.51c-0.01-1.73,1.76-2.5,4.07-2.52c2.48-0.02,4.14,0.84,4.15,2.56
		C59.01,366.21,57.12,366.85,54.93,366.86z M54.88,363.33c-1.9,0-2.98,0.32-2.98,1.08c0.01,0.69,1.12,0.96,2.99,0.95
		c1.79-0.01,2.98-0.29,2.98-1.01C57.87,363.65,56.77,363.32,54.88,363.33z"/>
	<path class="st27" d="M54.98,373.81c-2.9,0.02-4.14-1.11-4.15-2.51c-0.01-1.73,1.76-2.5,4.07-2.52c2.48-0.02,4.14,0.84,4.15,2.56
		C59.06,373.16,57.17,373.79,54.98,373.81z M54.93,370.28c-1.9,0-2.98,0.32-2.98,1.08c0.01,0.69,1.12,0.96,2.99,0.95
		c1.79-0.01,2.98-0.29,2.98-1.01C57.92,370.6,56.82,370.27,54.93,370.28z"/>
	<path class="st27" d="M55.03,380.76c-2.9,0.02-4.14-1.11-4.15-2.51c-0.01-1.73,1.76-2.5,4.07-2.52c2.48-0.02,4.14,0.84,4.15,2.56
		C59.11,380.11,57.22,380.74,55.03,380.76z M54.98,377.23c-1.9,0-2.98,0.32-2.98,1.08c0.01,0.69,1.12,0.96,2.99,0.95
		c1.79-0.01,2.98-0.29,2.98-1.01C57.97,377.54,56.87,377.22,54.98,377.23z"/>
	<path class="st27" d="M55.08,387.71c-2.9,0.02-4.14-1.11-4.15-2.51c-0.01-1.73,1.76-2.5,4.07-2.52c2.48-0.02,4.14,0.84,4.15,2.56
		C59.16,387.06,57.27,387.69,55.08,387.71z M55.03,384.18c-1.9,0-2.98,0.32-2.98,1.08c0.01,0.69,1.12,0.96,2.99,0.95
		c1.79-0.01,2.98-0.29,2.98-1.01C58.02,384.49,56.92,384.16,55.03,384.18z"/>
	<path class="st27" d="M55.13,394.65c-2.9,0.02-4.14-1.11-4.15-2.51c-0.01-1.73,1.76-2.5,4.07-2.52c2.48-0.02,4.14,0.84,4.15,2.56
		C59.21,394.01,57.33,394.64,55.13,394.65z M55.08,391.13c-1.9,0-2.98,0.32-2.98,1.08c0.01,0.69,1.12,0.96,2.99,0.95
		c1.79-0.01,2.98-0.29,2.98-1.01C58.07,391.44,56.97,391.11,55.08,391.13z"/>
	<path class="st27" d="M55.18,401.6c-2.9,0.02-4.14-1.11-4.15-2.51c-0.01-1.73,1.76-2.5,4.07-2.52c2.48-0.02,4.14,0.84,4.15,2.56
		C59.26,400.95,57.38,401.59,55.18,401.6z M55.13,398.07c-1.9,0-2.98,0.32-2.98,1.08c0.01,0.69,1.12,0.96,2.99,0.95
		c1.79-0.01,2.98-0.29,2.98-1.01C58.12,398.39,57.02,398.06,55.13,398.07z"/>
</g>
<path class="st28" d="M186.54,187.13c0.75-0.01,2.52-2.18,3.01-2.64c2.69-2.51,5.2-5.2,7.58-8.01c7.86-9.3,14.13-19.96,18.35-31.38
	c5.29-14.33,6.96-28.92,5.15-44.02c-0.06-0.47-0.11-0.95,0-1.4c0.15-0.58,0.55-1.06,0.94-1.51c4.68-5.45,9.51-13.38,15.29-17.54
	c1.07,5.42-0.06,12.24-0.15,17.81c-0.18,10.72-0.37,21.44-0.55,32.17c-0.31,17.95-0.62,35.89-0.93,53.84
	c-0.01,0.59-0.02,1.19-0.03,1.78C235.2,186.21,186.56,187.13,186.54,187.13z"/>
<g>
	<path class="st27" d="M208.36,59.06l-2.17-0.49l-0.01-1.46l8.33,2.05l0.01,1.76l-8.3,2.01l-0.01-1.46l2.17-0.52L208.36,59.06z
		 M209.4,60.78l1.91-0.41c0.54-0.12,1.31-0.25,1.88-0.37l0-0.04c-0.58-0.09-1.37-0.23-1.89-0.34l-1.91-0.41L209.4,60.78z"/>
	<path class="st27" d="M210.3,69.78c-2.9,0.02-4.14-1.11-4.15-2.51c-0.01-1.73,1.76-2.5,4.07-2.52c2.48-0.02,4.14,0.84,4.15,2.56
		C214.38,69.13,212.5,69.76,210.3,69.78z M210.25,66.25c-1.9,0-2.98,0.32-2.98,1.08c0.01,0.69,1.12,0.96,2.99,0.95
		c1.79-0.01,2.98-0.29,2.98-1.01C213.24,66.57,212.14,66.24,210.25,66.25z"/>
	<path class="st27" d="M210.36,76.73c-2.9,0.02-4.14-1.11-4.15-2.51c-0.01-1.73,1.76-2.5,4.07-2.52c2.48-0.02,4.14,0.84,4.15,2.56
		C214.43,76.08,212.55,76.71,210.36,76.73z M210.3,73.2c-1.9,0-2.98,0.32-2.98,1.08c0,0.69,1.12,0.96,2.99,0.95
		c1.79-0.01,2.98-0.29,2.98-1.01C213.29,73.52,212.19,73.19,210.3,73.2z"/>
	<path class="st27" d="M210.41,83.68c-2.9,0.02-4.14-1.11-4.15-2.51c-0.01-1.73,1.76-2.5,4.07-2.52c2.48-0.02,4.14,0.84,4.15,2.56
		C214.48,83.03,212.6,83.66,210.41,83.68z M210.35,80.15c-1.9,0-2.98,0.32-2.98,1.08c0.01,0.69,1.12,0.96,2.99,0.95
		c1.79-0.01,2.98-0.29,2.98-1.01C213.34,80.46,212.24,80.13,210.35,80.15z"/>
	<path class="st27" d="M210.46,90.62c-2.9,0.02-4.14-1.11-4.15-2.51c-0.01-1.73,1.76-2.5,4.07-2.52c2.48-0.02,4.14,0.84,4.15,2.56
		C214.53,89.98,212.65,90.61,210.46,90.62z M210.41,87.1c-1.9,0-2.98,0.32-2.98,1.08c0.01,0.69,1.12,0.96,2.99,0.95
		c1.79-0.01,2.98-0.29,2.98-1.01C213.39,87.41,212.29,87.08,210.41,87.1z"/>
	<path class="st27" d="M210.51,97.57c-2.9,0.02-4.14-1.11-4.15-2.51c-0.01-1.73,1.76-2.5,4.07-2.52c2.48-0.02,4.14,0.84,4.15,2.56
		C214.58,96.92,212.7,97.56,210.51,97.57z M210.46,94.04c-1.9,0-2.98,0.32-2.98,1.08c0.01,0.69,1.12,0.96,2.99,0.95
		c1.79-0.01,2.98-0.29,2.98-1.01C213.44,94.36,212.34,94.03,210.46,94.04z"/>
	<path class="st27" d="M210.56,104.52c-2.9,0.02-4.14-1.11-4.15-2.51c-0.01-1.73,1.76-2.5,4.07-2.52c2.48-0.02,4.14,0.84,4.15,2.56
		C214.63,103.87,212.75,104.51,210.56,104.52z M210.51,100.99c-1.9,0-2.98,0.32-2.98,1.08c0.01,0.69,1.12,0.96,2.99,0.95
		c1.79-0.01,2.98-0.29,2.98-1.01C213.49,101.31,212.39,100.98,210.51,100.99z"/>
	<path class="st27" d="M210.61,111.47c-2.9,0.02-4.14-1.11-4.15-2.51c-0.01-1.73,1.76-2.5,4.07-2.52c2.48-0.02,4.14,0.84,4.15,2.56
		C214.69,110.82,212.8,111.45,210.61,111.47z M210.56,107.94c-1.9,0-2.98,0.32-2.98,1.08c0.01,0.69,1.12,0.96,2.99,0.95
		c1.79-0.01,2.98-0.29,2.98-1.01C213.54,108.26,212.44,107.93,210.56,107.94z"/>
	<path class="st27" d="M210.66,118.42c-2.9,0.02-4.14-1.11-4.15-2.51c-0.01-1.73,1.76-2.5,4.07-2.52c2.48-0.02,4.14,0.84,4.15,2.56
		C214.74,117.77,212.85,118.4,210.66,118.42z M210.61,114.89c-1.9,0-2.98,0.32-2.98,1.08c0.01,0.69,1.12,0.96,2.99,0.95
		c1.79-0.01,2.98-0.29,2.98-1.01C213.59,115.2,212.49,114.88,210.61,114.89z"/>
</g>
<rect x="47.15" y="75.58" class="st17" width="88.27" height="49.13"/>
<text transform="matrix(1 0 0 1 47.1488 112.5663)" class="st29 st30 st31">50</text>
<rect x="48.99" y="35.27" class="st17" width="168.2" height="38.3"/>
<text transform="matrix(1.16 0 0 1 48.9926 46.7933)"><tspan x="0" y="0" class="st32 st24 st33">República  Bolivariana</tspan><tspan x="0" y="19.56" class="st32 st24 st33">de Venezuela</tspan></text>
<polygon class="st17" points="111.44,52.93 129.76,52.93 129.76,52.93 111.44,52.93 "/>
<polyline class="st34" points="236.11,134.21 227.54,134.21 221.73,114.89 213.6,134.21 192.02,134.21 207.33,147.82 202.35,169.74 
	221.73,156.12 235.59,164.76 236.1,134.72 "/>
<polygon class="st35" points="32.44,160.78 44.92,168.35 38.94,151.56 57.44,135.34 38.37,137.33 32.44,122.24 "/>
<rect x="48.99" y="121.1" class="st17" width="120.98" height="48.11"/>
<text transform="matrix(1 0 0 1 48.9931 127.6791)"><tspan x="0" y="0" class="st36 st24 st37">CINCUENTA</tspan><tspan x="0" y="11.18" class="st36 st24 st37">BOLIVARES</tspan></text>
<linearGradient id="SVGID_5_" gradientUnits="userSpaceOnUse" x1="159.8707" y1="261.8312" x2="160.9649" y2="34.7526" gradientTransform="matrix(0.9984 0.0566 -0.0566 0.9984 12.8391 -9.0695)">
	<stop  offset="0.1002" style="stop-color:#EDBA6E"/>
	<stop  offset="0.2241" style="stop-color:#DEB17D"/>
	<stop  offset="0.4317" style="stop-color:#EDDABA"/>
	<stop  offset="0.5978" style="stop-color:#EBD7B7"/>
	<stop  offset="0.84" style="stop-color:#EEC6B2"/>
</linearGradient>
<polygon class="st38" points="68.89,29.41 274.21,41.05 259.87,235.54 246.34,257.51 56.09,255.14 "/>
<linearGradient id="SVGID_6_" gradientUnits="userSpaceOnUse" x1="159.5405" y1="248.7997" x2="159.7771" y2="199.6884" gradientTransform="matrix(0.9984 0.0566 -0.0566 0.9984 12.8391 -9.0695)">
	<stop  offset="0.1002" style="stop-color:#EDBA6E"/>
	<stop  offset="0.2241" style="stop-color:#EEB86C"/>
	<stop  offset="0.4317" style="stop-color:#E2B262"/>
	<stop  offset="0.7654" style="stop-color:#D8A663"/>
</linearGradient>
<path class="st39" d="M59.1,193.07c0,0,8.04,7.97,16.42,10.72c8.38,2.75,8.52,5.16,17.76,5.69s38.52-4.57,51.02-4.34
	c12.5,0.23,117.48,4.26,117.48,4.26l-1.07,33.76L56.32,242.1L59.1,193.07z"/>
<linearGradient id="SVGID_7_" gradientUnits="userSpaceOnUse" x1="159.9611" y1="471.1089" x2="161.2372" y2="206.2765" gradientTransform="matrix(0.9984 0.0566 -0.0566 0.9984 12.8391 -9.0695)">
	<stop  offset="0.1002" style="stop-color:#FBC1AD"/>
	<stop  offset="0.3755" style="stop-color:#EEC9A8"/>
	<stop  offset="0.6622" style="stop-color:#EDDABE"/>
	<stop  offset="1" style="stop-color:#EECFC4"/>
</linearGradient>
<path class="st40" d="M58.28,222.33c0,0,10.02,0.22,10.72,6.14c0.7,5.92-0.77,15.87,2.32,15.86c3.1-0.01,5.39-1.88,4.73-9.56
	c-0.66-7.68-2.35-12.7,1.04-13.23c3.39-0.54,4.18,4.79,6.42,3.82c2.24-0.97,1.29-3.57,4.31-5.4c3.02-1.83,4.23,5.7,7.53,5.34
	c3.3-0.36,1.95,5.94,6.07,6.35s2.3,0.31,2.69-6.58s-0.88-10.25,2.57-10.05c3.45,0.2,5,5.02,8.88,3.96s6.56-3.27,4.99-7.73
	s5.29-3.34,5.21-1.89c-0.08,1.45-4.38,9.77-4.43,13.95s16.36,6.94,15.18-1.14c-1.18-8.08-0.38-9.31,2.18-9.53
	c2.56-0.22,1.69,5.56,4.23,5.7c2.54,0.14,3.97-2.51,7.28-6.32c3.31-3.82,1.89,1.93,2.83,4.71c0.93,2.78,4.29,1.34,6.66,1.29
	s2.44,5.05,5.59,4.14c3.15-0.91,2.26-4.61,3.58-8.54c1.32-3.93,3.74-3.61,3.72-0.7c-0.02,2.91,0.38,2.21,2.13,3.58
	c1.74,1.37,6.19,3.26,9.45,0.35s6.21-3.47,7.7-1.02c1.5,2.45,4.04,2.6,5.42,0.67c1.38-1.92,3.87-3.97,4.33-2.49
	c0.46,1.48,3.61,0.57,3.96,4.05c0.35,3.48-3.38,11.5-0.08,14.22c3.31,2.72,6.9,0.37,9.69-7.12c2.79-7.49,4.8-10.83,8.14-8.64
	c3.34,2.19,4.22-0.59,5.24-2.58c1.02-1.98,3.41-5.49,3.97-2.54c0.56,2.95-1.81,6.27-0.45,7.99c1.36,1.72-0.9,3.04,2.24,8.68
	c0,0,1.71,1.92,2.63-4.59c0.91-6.5-1.19-7.9,2-9.54s3.05,0.72,2.87,3.99s2.35,0.32,2.94,2.72c0.59,2.4,2.32,0.86,4.01,3.14
	c1.69,2.28,3.3,12.39,10.81,11.72c7.5-0.67-13.6,240-13.6,240L44.58,464.1L58.28,222.33z"/>
<path class="st3" d="M129.33,383.67c0,0-1.87,0.39-4.67,0.99c-3.78,0.81-9.25,1.99-14.07,3.09c-5,1.14-9.29,2.19-10.27,2.63
	l-0.47,10.65l-0.72,16.46l137.37,8.01l0.93-16.48c0,0-22.4-9.46-24.98-11.44S129.33,383.67,129.33,383.67z"/>
<path class="st4" d="M136.26,381.77l-2.04,2.18l4.89,23.82l12.79,0.38l30.06-16.73c0,0,21.84-16.49,20.99-21.79
	c0,0,0.82-4.59-0.41-6.31S136.26,381.77,136.26,381.77z"/>
<path class="st5" d="M166.02,382.6c0,0-1.46,2.43-1.19,3.06c0.27,0.64,33.67-10.96,37.71-22.34l-24.49,12.18
	C178.05,375.5,166.75,381.25,166.02,382.6z"/>
<path class="st6" d="M132.45,376.77c0.07,0.75-12.07-3.17-13.06-3.9c-4.92-3.64-6.61-10.68-6.5-16.47
	c0.12-6.53,2.13-12.86,3.24-19.3c1.17-6.76,1.85-15.8-4.15-20.33c-10.7-8.07-3.06-20.02,0.59-30.26
	c3.62-10.17-0.48-24.04,9.05-31.56c7.64-6.03,28.47-15.23,35.62-15.06s33.04,3.49,41.73,12.98c6.39,6.98,35.21,39.48,18.55,46.64
	c-0.7,0.3-1.6,1.04-1.09,1.6c0.23,0.25,0.63,0.24,0.97,0.19c1.7-0.25,3.64-1,4.99,0.07c1.11,0.88,1.16,2.53,1.05,3.94
	c-0.63,7.46-3.19,16.54-8.66,21.97c-4.18,4.14-6.36,10.66-8.19,16.09c-2.16,6.39-3.73,12.35-3.89,19.09
	c-0.01,0.29-0.02,0.6-0.15,0.86c-0.17,0.34-0.51,0.55-0.84,0.74c-3.95,2.34-7.91,4.64-11.84,7.01c-2.56,1.54-5.9,4.5-9.06,4.23
	c-2.34-0.2-16.38-16.43-16.38-16.43l16.09-25.52l-4.4-38.63l-34.34-1.4l-5.4,24.23l-6.28,33.33
	C130.09,350.89,132.45,376.74,132.45,376.77z"/>
<path class="st5" d="M148.34,281.31c0,0-3.74-1.06-9.22-4.96c-5.48-3.9-12.91-3.27-15.83,3.54c-2.75,6.4-3.82,13.81-4.27,20.71
	c-0.23,3.61-0.21,7.23,0.25,10.82c0.56,4.39,2.67,8.53,2.82,12.97c0.24,7.14-3.86,13.08-2.18,20.36c1.87,8.08,5.39,15.63,8.61,23.23
	c1.76,4.14,3.55,8.32,5.72,12.27c0.6,1.09,1.3,2.81,2.28,3.63c2.59,2.15,8.36,2.65,11.59,3.12c2.73,0.4,5.55,0.59,8.23-0.06
	c1.98-0.48,3.82-1.4,5.64-2.31c3.33-1.67,6.66-3.34,10-5.01c1.98-0.99,9.76-3.16,9.29-5.6c-0.19-0.99-3.44-3.4-4.11-4.65
	c-1.06-1.97-1.65-4.2-1.63-6.44c0.04-3.97,1.85-7.75,4.21-10.94c2.36-3.2,5.28-5.93,7.94-8.88c3.96-4.39,4.38-9.58,4.75-15.27
	c0.25-3.96,0.59-8.11-0.62-11.95c-1.31-4.16-4.39-7.52-5.45-11.79c-1.89-7.62-0.43-14.68,0.75-22.22c0.62-3.99,1.26-9.07-4.08-9.37
	c-6.31-0.36-4.81-0.91-9.26-0.52s-17.27,11.9-24.38,9.18"/>
<path class="st5" d="M203.32,351.92c0.55-0.43,0.95-1.15,1.38-1.72c1.65-2.19,3.18-4.48,4.57-6.84c3.23-5.49,6.79-12.66,5.21-19.22
	c-0.73-3.04-2.4-6.29-5.76-6.9c-4.54-0.82-8.16,2.5-8.52,6.84c-0.37,4.54,1.48,9.19-0.2,13.61c-0.75,1.97-1.73,3.87-2.27,5.91
	c-0.54,2.04-0.6,4.32,0.43,6.16c0.76,1.37,2.83,2.98,4.53,2.48C202.93,352.18,203.14,352.07,203.32,351.92z"/>
<path class="st7" d="M132.69,362.97c0,0,5.31,4.85,9.49,5.29s15.49-3.88,15.49-3.88l-6.12-1.39l-6.64-0.04l-6.63-1.08
	C138.28,361.88,133.1,362.59,132.69,362.97z"/>
<path class="st8" d="M132.69,362.97c0,0,3.57-2.51,5.38-2.24c1.81,0.27,2.75,1.21,3.81,1.05s6.29-1.69,8.8-1.11
	c2.51,0.58,6.98,3.71,6.98,3.71s-10.57-0.93-12.49-0.71c-1.92,0.22-3.45,0.91-5.65-0.32C137.33,362.13,132.69,362.97,132.69,362.97z
	"/>
<path class="st9" d="M154.6,312.69c0,0,8.42-5.44,12.58-5.28c4.16,0.16,10.36,4.53,12.11,5.84c1.75,1.31,0.86,0.88,0.86,0.88
	s-1.2-0.3-6.1-2.09c-4.9-1.79-7.5-2.87-10.14-1.8c-2.64,1.07-7.22,3.39-8.14,3.34C154.85,313.54,154.28,314.19,154.6,312.69z"/>
<polygon class="st10" points="153.54,412.26 160.23,421.17 167.76,421.6 212.44,397.57 204.96,384.52 "/>
<path class="st9" d="M139.32,314.63c0,0-3.85-4.39-7.77-4.69c-3.93-0.3-8.74,3.07-9.69,3.7s-0.82,2.46-0.69,2.77
	c0.13,0.31,6.86-4.54,10.16-4.05s4.95,2.33,6.07,2.62C138.52,315.27,139.32,314.63,139.32,314.63z"/>
<path class="st5" d="M128.94,376.68c0,0-0.04,4.44,1.37,7.7c1.41,3.26,7.64,13.06,9.11,15.27c1.47,2.21,1.75,2.86,1.75,2.86
	s1.21-8.21-2.12-13.17c-3.33-4.96-6.6-12.57-6.6-12.57l-3.48-0.61L128.94,376.68z"/>
<path class="st5" d="M155.46,403.32c0,0,1.72-9.38,3.66-11.39c1.93-2.01,31-9.87,35.26-13.68c4.26-3.8,8.58-8.61,8.58-8.61
	s0.91,1.87,0.71,3.58c-0.2,1.71-34.98,22.99-34.98,22.99L155.46,403.32z"/>
<polygon class="st11" points="130.81,385.44 129.46,395.29 140.6,413.61 146.04,408.27 "/>
<path class="st11" d="M151.97,414.25l-3.8-5.99c0,0,53.95-31.31,55.49-35.05c0,0,1.36,10.3,1.31,11.3
	C204.91,385.52,152.73,412.04,151.97,414.25z"/>
<polygon class="st10" points="127.88,392.7 125.87,392.59 124.92,399.68 134.2,412.88 136.95,407.64 "/>
<path class="st12" d="M140.79,388.49c0,0,8.21,2.06,17.64,1C158.43,389.49,148.23,393.95,140.79,388.49z"/>
<path class="st13" d="M180.92,414.52l18.13,8.79l37.44,2.18c0,0-5.14-6.1-12.55-12.92s-13.58-10.22-13.8-13.77L180.92,414.52z"/>
<path class="st14" d="M112.39,418.24c0,0,12.78-20.99,17.08-22.95l1.34-9.85c0,0-0.82-1.8-0.97-2.33c0,0-25.61,28.97-27.43,34.57
	L112.39,418.24z"/>
<polygon class="st15" points="81,457.52 118.76,419.63 235.99,426.27 199.33,464.23 "/>
<polygon class="st16" points="102.72,412.29 124.66,384.66 106.19,388.77 99.98,398.16 99.13,417.48 "/>
<polygon class="st3" points="81.22,261.99 84.11,256.73 86.11,262.27 93.86,263 87.73,268.25 89.27,275.67 83.15,270.59 
	76.82,274.44 79.08,268.11 73.21,261.71 "/>
<polygon class="st15" points="106.09,418.91 69.71,456.79 61.92,456.35 99.13,418.52 "/>
<polygon class="st15" points="115.6,419.45 79.13,457.41 71.35,456.97 108.64,419.05 "/>
<rect x="143.85" y="410.54" transform="matrix(0.0566 -0.9984 0.9984 0.0566 -295.0529 572.5522)" class="st17" width="23.18" height="63.73"/>
<text transform="matrix(0.9984 0.0566 -0.0566 0.9984 123.1098 449.6572)" class="st18 st19 st20">BCV</text>
<polygon class="st15" points="235.3,438.47 209.3,464.79 201.37,464.34 235.75,430.52 "/>
<polygon class="st15" points="234.77,447.82 218.31,465.3 211.18,464.9 235.15,440.99 "/>
<path class="st21" d="M106.26,442.82"/>
<path class="st22" d="M106.77,441.71c0,0,3.89-6.39,5.25-8.13c1.35-1.75,2.84-1.89,2.04,0.12c-0.31,0.31-1.67,2.1-0.28,1.63
	c1.48-0.51,2.45-2.01,2.73-3.55c0.17-0.93-1.08-6.32,0.47-6c1.51,0.31,1.23,1.1,1.7,2.83c0.47,1.74,1.66,2.94,2.31,1.5
	c0.65-1.44,0.56-3.39,1.4-5.39c0.84-2,1.87-2.17,1.86,0.11s-1.66,5.15-0.24,4.32c1.41-0.83,1.13-3.92,3.04-3.36
	c1.9,0.56,1.55,1.11,0.54,2.65c-1.01,1.54-6.66,4.18-4.6,5.32c2.06,1.14,4.78-0.64,4.96,1.31s0.02,1.37-2.4,1.46
	c-1.37,0.05-2.69-0.43-4.04-0.58c-0.36-0.04-0.77,0.04-0.97,0.34c-0.09,0.13-0.12,0.3-0.12,0.46c-0.02,0.75,0.6,1.38,1.28,1.69
	s1.44,0.39,2.16,0.6c0.12,0.03,0.25,0.09,0.3,0.2c0.03,0.06,0.02,0.13,0.02,0.19c-0.07,0.54-0.61,0.92-1.14,1.01
	c-0.54,0.09-1.08-0.02-1.62-0.1c-0.18-0.03-2.66,0.11-2.62,0.4c0.1,0.8,0.4,1.55,0.15,2.41c-0.03,0.12-0.08,0.24-0.17,0.32
	c-0.19,0.17-0.49,0.09-0.73,0c-1.81-0.66-3.62-1.32-5.42-1.98c-3.26-1.19-5.79,1.33-7.99,3.52L106.77,441.71z"/>
<path class="st22" d="M207.64,441.65c0,0-3.69,6.51-4.98,8.3c-1.3,1.79-2.78,1.98-2.05-0.05c0.3-0.32,1.6-2.16,0.23-1.63
	c-1.46,0.56-2.39,2.09-2.61,3.63c-0.14,0.94,1.29,6.29-0.27,6.01c-1.52-0.26-1.27-1.05-1.8-2.77c-0.53-1.72-1.75-2.89-2.35-1.42
	c-0.6,1.46-0.45,3.4-1.23,5.43s-1.8,2.23-1.86-0.05c-0.06-2.28,1.49-5.2,0.11-4.32s-1.01,3.96-2.93,3.46
	c-1.92-0.5-1.58-1.06-0.63-2.63c0.96-1.57,6.53-4.39,4.43-5.47s-4.76,0.79-5-1.15c-0.24-1.94-0.07-1.37,2.35-1.54
	c1.37-0.1,2.7,0.34,4.06,0.45c0.36,0.03,0.77-0.07,0.96-0.38c0.08-0.14,0.11-0.3,0.11-0.46c-0.01-0.75-0.64-1.36-1.33-1.65
	s-1.45-0.35-2.18-0.53c-0.12-0.03-0.26-0.08-0.31-0.19c-0.03-0.06-0.03-0.13-0.02-0.19c0.06-0.54,0.58-0.93,1.11-1.05
	c0.53-0.11,1.08-0.01,1.62,0.05c0.18,0.02,2.65-0.19,2.6-0.48c-0.13-0.8-0.45-1.54-0.22-2.4c0.03-0.12,0.07-0.24,0.16-0.33
	c0.19-0.17,0.49-0.11,0.73-0.02c1.83,0.6,3.66,1.2,5.48,1.81c3.29,1.08,5.74-1.52,7.88-3.78L207.64,441.65z"/>
<rect x="204.56" y="426.58" transform="matrix(0.0566 -0.9984 0.9984 0.0566 -236.6451 624.1385)" class="st17" width="14.76" height="21.42"/>
<text transform="matrix(0.9984 0.0566 -0.0566 0.9984 200.9627 441.6389)" class="st23 st24 st25">50</text>
<linearGradient id="SVGID_8_" gradientUnits="userSpaceOnUse" x1="75.9792" y1="133.6126" x2="117.8115" y2="71.295" gradientTransform="matrix(0.9984 0.0566 -0.0566 0.9984 12.8391 -9.0695)">
	<stop  offset="0.1002" style="stop-color:#E7A671;stop-opacity:0.3"/>
	<stop  offset="0.4801" style="stop-color:#E7A671"/>
	<stop  offset="0.8766" style="stop-color:#E7A671;stop-opacity:0.55"/>
</linearGradient>
<path class="st41" d="M68.04,181.9l18.03-13.74c0,0-9.52-39.02-3.05-55.77c6.47-16.74,41.37-53.42,59.17-58.85
	c0,0-17.68-1.92-23.04,0.53c-5.35,2.46-54.55,50.35-54.55,50.35l-3.55,63.19L68.04,181.9z"/>
<g>
	<path class="st27" d="M70.92,354.86l-2.14-0.61l0.07-1.46l8.2,2.52l-0.09,1.75l-8.4,1.54l0.07-1.46l2.19-0.4L70.92,354.86z
		 M71.86,356.64l1.93-0.3c0.55-0.09,1.32-0.17,1.9-0.26l0-0.04c-0.57-0.13-1.36-0.31-1.87-0.44l-1.89-0.52L71.86,356.64z"/>
	<path class="st27" d="M72.25,365.67c-2.9-0.14-4.07-1.34-4-2.75c0.09-1.73,1.9-2.4,4.2-2.28c2.48,0.12,4.08,1.07,4,2.79
		C76.36,365.25,74.45,365.78,72.25,365.67z M72.4,362.14c-1.9-0.11-3,0.15-3.03,0.91c-0.03,0.69,1.06,1.02,2.93,1.12
		c1.79,0.09,2.99-0.12,3.03-0.83C75.37,362.63,74.29,362.23,72.4,362.14z"/>
	<path class="st27" d="M71.91,372.61c-2.9-0.14-4.07-1.34-4-2.75c0.09-1.73,1.9-2.4,4.2-2.28c2.48,0.12,4.08,1.07,4,2.79
		C76.02,372.19,74.1,372.72,71.91,372.61z M72.06,369.08c-1.9-0.11-3,0.15-3.03,0.91c-0.03,0.69,1.06,1.02,2.93,1.12
		c1.79,0.09,2.99-0.12,3.03-0.83C75.03,369.57,73.95,369.17,72.06,369.08z"/>
	<path class="st27" d="M71.57,379.55c-2.9-0.14-4.07-1.34-4-2.75c0.09-1.73,1.9-2.4,4.2-2.28c2.48,0.12,4.08,1.07,4,2.79
		C75.68,379.13,73.76,379.66,71.57,379.55z M71.72,376.02c-1.9-0.11-3,0.15-3.03,0.91c-0.03,0.69,1.06,1.02,2.93,1.12
		c1.79,0.09,2.99-0.12,3.03-0.83C74.68,376.51,73.6,376.11,71.72,376.02z"/>
	<path class="st27" d="M71.23,386.49c-2.9-0.14-4.07-1.34-4-2.75c0.09-1.73,1.9-2.4,4.2-2.28c2.48,0.12,4.08,1.07,4,2.79
		C75.33,386.07,73.42,386.6,71.23,386.49z M71.37,382.96c-1.9-0.11-3,0.15-3.03,0.91c-0.03,0.69,1.06,1.02,2.93,1.12
		c1.79,0.09,2.99-0.12,3.03-0.83C74.34,383.45,73.26,383.05,71.37,382.96z"/>
	<path class="st27" d="M70.88,393.43c-2.9-0.14-4.07-1.34-4-2.75c0.09-1.73,1.9-2.4,4.2-2.28c2.48,0.12,4.08,1.07,4,2.79
		C74.99,393.01,73.08,393.54,70.88,393.43z M71.03,389.9c-1.9-0.11-3,0.15-3.03,0.91c-0.03,0.69,1.06,1.02,2.93,1.12
		c1.79,0.09,2.99-0.12,3.03-0.83C74,390.39,72.92,389.99,71.03,389.9z"/>
	<path class="st27" d="M70.54,400.37c-2.9-0.14-4.07-1.34-4-2.75c0.09-1.73,1.9-2.4,4.2-2.28c2.48,0.12,4.08,1.07,4,2.79
		C74.65,399.95,72.73,400.48,70.54,400.37z M70.69,396.84c-1.9-0.11-3,0.15-3.03,0.91c-0.03,0.69,1.06,1.02,2.93,1.12
		c1.79,0.09,2.99-0.12,3.03-0.83C73.65,397.33,72.57,396.93,70.69,396.84z"/>
	<path class="st27" d="M70.2,407.31c-2.9-0.14-4.07-1.34-4-2.75c0.09-1.73,1.9-2.4,4.2-2.28c2.48,0.12,4.08,1.07,4,2.79
		C74.31,406.89,72.39,407.42,70.2,407.31z M70.35,403.78c-1.9-0.11-3,0.15-3.03,0.91c-0.03,0.69,1.06,1.02,2.93,1.12
		c1.79,0.09,2.99-0.12,3.03-0.83C73.31,404.27,72.23,403.87,70.35,403.78z"/>
	<path class="st27" d="M69.85,414.25c-2.9-0.14-4.07-1.34-4-2.75c0.09-1.73,1.9-2.4,4.2-2.28c2.48,0.12,4.08,1.07,4,2.79
		C73.96,413.83,72.05,414.36,69.85,414.25z M70,410.72c-1.9-0.11-3,0.15-3.03,0.91c-0.03,0.69,1.06,1.02,2.93,1.12
		c1.79,0.09,2.99-0.12,3.03-0.83C72.97,411.21,71.89,410.81,70,410.72z"/>
</g>
<path class="st28" d="M213.14,207.55c0.75,0.03,2.64-2.03,3.16-2.46c2.83-2.35,5.49-4.9,8.02-7.57c8.37-8.84,15.24-19.13,20.1-30.29
	c6.1-14,8.59-28.48,7.63-43.66c-0.03-0.47-0.06-0.95,0.08-1.4c0.18-0.57,0.61-1.03,1.02-1.46c4.98-5.18,10.25-12.82,16.26-16.65
	c0.76,5.47-0.75,12.22-1.16,17.77c-0.79,10.69-1.58,21.39-2.37,32.08c-1.32,17.9-2.65,35.8-3.97,53.7
	c-0.04,0.59-0.09,1.19-0.13,1.78C261.78,209.39,213.16,207.55,213.14,207.55z"/>
<g>
	<path class="st27" d="M242.18,80.93l-2.14-0.61l0.07-1.46l8.2,2.52l-0.09,1.75l-8.4,1.54l0.07-1.46l2.19-0.4L242.18,80.93z
		 M243.11,82.7l1.93-0.3c0.55-0.09,1.32-0.17,1.9-0.26l0-0.04c-0.57-0.13-1.36-0.31-1.87-0.44l-1.89-0.52L243.11,82.7z"/>
	<path class="st27" d="M243.51,91.73c-2.9-0.14-4.07-1.34-4-2.75c0.09-1.73,1.9-2.4,4.2-2.28c2.48,0.12,4.08,1.07,4,2.79
		C247.62,91.32,245.7,91.84,243.51,91.73z M243.66,88.21c-1.9-0.11-3,0.15-3.03,0.91c-0.03,0.69,1.06,1.02,2.93,1.12
		c1.79,0.09,2.99-0.12,3.03-0.83C246.62,88.69,245.54,88.3,243.66,88.21z"/>
	<path class="st27" d="M243.16,98.67c-2.9-0.14-4.07-1.34-4-2.75c0.09-1.73,1.9-2.4,4.2-2.28c2.48,0.12,4.08,1.07,4,2.79
		C247.27,98.26,245.36,98.78,243.16,98.67z M243.31,95.15c-1.9-0.11-3,0.15-3.03,0.91c-0.03,0.69,1.06,1.02,2.93,1.12
		c1.79,0.09,2.99-0.12,3.03-0.83C246.28,95.63,245.2,95.24,243.31,95.15z"/>
	<path class="st27" d="M242.82,105.61c-2.9-0.14-4.07-1.34-4-2.75c0.09-1.73,1.9-2.4,4.2-2.28c2.48,0.12,4.08,1.07,4,2.79
		C246.93,105.2,245.01,105.72,242.82,105.61z M242.97,102.09c-1.9-0.11-3,0.15-3.03,0.91c-0.03,0.69,1.06,1.02,2.93,1.12
		c1.79,0.09,2.99-0.12,3.03-0.83C245.94,102.57,244.86,102.18,242.97,102.09z"/>
	<path class="st27" d="M242.48,112.55c-2.9-0.14-4.07-1.34-4-2.75c0.09-1.73,1.9-2.4,4.2-2.28c2.48,0.12,4.08,1.07,4,2.79
		C246.59,112.14,244.67,112.66,242.48,112.55z M242.63,109.03c-1.9-0.11-3,0.15-3.03,0.91c-0.03,0.69,1.06,1.02,2.93,1.12
		c1.79,0.09,2.99-0.12,3.03-0.83C245.59,109.51,244.51,109.12,242.63,109.03z"/>
	<path class="st27" d="M242.14,119.49c-2.9-0.14-4.07-1.34-4-2.75c0.09-1.73,1.9-2.4,4.2-2.28c2.48,0.12,4.08,1.07,4,2.79
		C246.24,119.08,244.33,119.6,242.14,119.49z M242.29,115.97c-1.9-0.11-3,0.15-3.03,0.91c-0.03,0.69,1.06,1.02,2.93,1.12
		c1.79,0.09,2.99-0.12,3.03-0.83C245.25,116.45,244.17,116.06,242.29,115.97z"/>
	<path class="st27" d="M241.79,126.43c-2.9-0.14-4.07-1.34-4-2.75c0.09-1.73,1.9-2.4,4.2-2.28c2.48,0.12,4.08,1.07,4,2.79
		C245.9,126.02,243.99,126.54,241.79,126.43z M241.94,122.91c-1.9-0.11-3,0.15-3.03,0.91c-0.03,0.69,1.06,1.02,2.93,1.12
		c1.79,0.09,2.99-0.12,3.03-0.83C244.91,123.39,243.83,123,241.94,122.91z"/>
	<path class="st27" d="M241.45,133.37c-2.9-0.14-4.07-1.34-4-2.75c0.09-1.73,1.9-2.4,4.2-2.28c2.48,0.12,4.08,1.07,4,2.79
		C245.56,132.96,243.64,133.48,241.45,133.37z M241.6,129.85c-1.9-0.11-3,0.15-3.03,0.91c-0.03,0.69,1.06,1.02,2.93,1.12
		c1.79,0.09,2.99-0.12,3.03-0.83C244.56,130.33,243.48,129.94,241.6,129.85z"/>
	<path class="st27" d="M241.11,140.31c-2.9-0.14-4.07-1.34-4-2.75c0.09-1.73,1.9-2.4,4.2-2.28c2.48,0.12,4.08,1.07,4,2.79
		C245.22,139.9,243.3,140.42,241.11,140.31z M241.26,136.79c-1.9-0.11-3,0.15-3.03,0.91c-0.03,0.69,1.06,1.02,2.93,1.12
		c1.79,0.09,2.99-0.12,3.03-0.83C244.22,137.27,243.14,136.88,241.26,136.79z"/>
</g>
<rect x="98.39" y="71.18" transform="matrix(0.0566 -0.9984 0.9984 0.0566 0.8729 231.5448)" class="st17" width="49.13" height="88.27"/>
<text transform="matrix(0.9984 0.0566 -0.0566 0.9984 78.1918 125.2198)" class="st29 st30 st31">50</text>
<rect x="148.14" y="-12.07" transform="matrix(0.0566 -0.9984 0.9984 0.0566 85.9044 234.9788)" class="st17" width="38.3" height="168.2"/>
<text transform="matrix(1.1581 0.0656 -0.0566 0.9984 83.7547 59.6566)"><tspan x="0" y="0" class="st32 st24 st33">República  Bolivariana</tspan><tspan x="0" y="19.56" class="st32 st24 st33">de Venezuela</tspan></text>
<polygon class="st17" points="145.76,69.32 164.05,70.35 164.05,70.35 145.76,69.32 "/>
<polyline class="st34" points="265.62,157.52 257.07,157.04 252.36,137.42 243.15,156.25 221.6,155.03 236.12,169.48 229.91,191.08 
	250.03,178.59 263.38,188 265.59,158.03 "/>
<polygon class="st35" points="60.77,172.53 72.81,180.79 67.79,163.69 87.18,148.53 68.03,149.44 62.96,134.05 "/>
<rect x="114.53" y="100.79" transform="matrix(0.0566 -0.9984 0.9984 0.0566 -30.2806 290.5071)" class="st17" width="48.11" height="120.98"/>
<text transform="matrix(0.9984 0.0566 -0.0566 0.9984 79.1774 140.4122)"><tspan x="0" y="0" class="st36 st24 st37">CINCUENTA</tspan><tspan x="0" y="11.18" class="st36 st24 st37">BOLIVARES</tspan></text>
<rect x="171.06" y="331.02" class="st42" width="291.64" height="64.71"/>
<rect x="171.06" y="395.71" class="st43" width="291.64" height="64.71"/>
<rect x="171.06" y="460.41" class="st44" width="291.64" height="64.71"/>
<circle class="st45" cx="259.33" cy="427.06" r="73.29"/>
<circle class="st46" cx="259.33" cy="427.06" r="68.45"/>
<circle class="st45" cx="259.33" cy="427.54" r="63.64"/>
<path class="st46" d="M233.56,366.24l5.49,12.57h-3.47l-0.37,14.43l2.56,1.83l-0.37,3.84c0,0-5.12,2.74-3.47,6.21
	c1.64,3.47,3.84,3.47,3.84,3.47l-1.44,38.73h-4.77l6.03,5.12l-0.73,12.61l2.19,2.92v22.19c0,0-40.47-19.51-43.37-41.44
	s-4.5-40.61,6.79-56.1C213.76,377.13,233.56,366.24,233.56,366.24z"/>
<path class="st47" d="M254.94,390.91v4.6c0,0,7.61-2.6,8.21,2.4c0.6,5,0,46.64,0,46.64s0.07,3.4-3.97,3.4s-4.04,0-4.04,0l-0.2,3.4
	h16.61v-25.62l4.4-0.04v7.25l5.25,0v-7.61l2.76,0v7.21l4.8,0v-7.41c0,0,17.42-1.6,16.81-14.61c-0.6-13.01-7.81-15.81-11.21-17.42
	c-3.4-1.6-5.6-1.4-5.6-1.4l0.2-6.41l-5,0v6.21l-2.8,0v-6.21h-5.2l-0.08,5.6H254.94z"/>
<rect x="270.75" y="395.51" class="st45" width="5.12" height="25.62"/>
<rect x="281.21" y="395.51" class="st45" width="2.76" height="25.62"/>
<rect x="213.14" y="413.21" class="st48" width="29.09" height="27.69"/>
<path class="st45" d="M288.37,396.31v23.62c0,0,11.01-3.6,8.81-13.61S288.37,396.31,288.37,396.31z"/>
<path class="st49" d="M226.78,418.33c0,0-3.62,4.61-4.25,7.87s0.9,7.86,4.25,7.55c3.35-0.31,6.42-3.96,4.88-7.7
	C230.12,422.31,226.78,418.33,226.78,418.33z"/>
<g>
	<g>
		<path class="st50" d="M252.87,459.84h2.87c1.77,0,2.74,1,2.74,2.38c0,1.94-1.44,2.88-3.45,2.88h-2.05l-0.75,3.58H251
			L252.87,459.84z M253.2,464.07h1.8c1.34,0,2.18-0.52,2.18-1.79c0-0.98-0.65-1.42-1.73-1.42h-1.57L253.2,464.07z"/>
		<path class="st50" d="M265.86,464.55h-4.09l-0.65,3.09h4.68l-0.38,1.04h-5.75l1.87-8.84h5.54l-0.22,1.04h-4.31l-0.56,2.63h4.09
			L265.86,464.55z"/>
		<path class="st50" d="M271.19,460.88h-2.71l0.23-1.04h6.67l-0.23,1.04h-2.72l-1.64,7.8h-1.24L271.19,460.88z"/>
		<path class="st50" d="M277.7,464.79l-0.81,3.89h-1.23l1.87-8.84h3.05c1.65,0,2.54,0.85,2.54,2.18c0,1.29-0.77,2.08-1.92,2.34
			c0.48,0.19,1.18,0.69,0.87,2.19c-0.22,1.01-0.38,1.75-0.33,2.13h-1.17c-0.04-0.38,0.05-1.05,0.29-2.1
			c0.25-1.2-0.08-1.79-1.34-1.79H277.7z M277.92,463.76h1.7c1.36,0,2.22-0.46,2.22-1.62c0-0.86-0.52-1.28-1.52-1.28h-1.78
			L277.92,463.76z"/>
		<path class="st50" d="M292.95,463.37c0,2.61-1.46,5.43-4.72,5.43c-2.21,0-3.37-1.5-3.37-3.56c0-2.61,1.56-5.53,4.68-5.53
			C291.78,459.71,292.95,461.18,292.95,463.37z M286.14,465.2c0,1.47,0.7,2.58,2.25,2.58c2.24,0,3.28-2.34,3.28-4.43
			c0-1.55-0.71-2.61-2.21-2.61C287.21,460.74,286.14,463.17,286.14,465.2z"/>
	</g>
</g>
</svg>
