<svg viewBox="0 0 95 95" xmlns="http://www.w3.org/2000/svg"><g fill="#fff"><path d="m28.14 41.1a43.37 43.37 0 0 1 2.56-5.43c.12-.06.23-.16.12-.29s-.23 0-.33.07c-.67.33-1.35.64-2 1a62.54 62.54 0 0 0 -13.71 10.33c-.25.24-.62.42-.66.82 4.1 4.54 13.59 11.4 16.78 12.07-.45-.79-.9-1.55-1.31-2.33a19.93 19.93 0 0 1 -1.45-16.24z"/><path d="m47.5 0a47.5 47.5 0 1 0 47.5 47.5 47.5 47.5 0 0 0 -47.5-47.5zm33.59 53a61.41 61.41 0 0 1 -19.94 12.48 38.9 38.9 0 0 1 -14.93 2.45c-7.45 0-15.34-3-22.72-7.6a67.45 67.45 0 0 1 -13.23-10.95c-1.17-1.24-1.27-2.23-.15-3.38a61.62 61.62 0 0 1 24.18-16.54 38.08 38.08 0 0 1 28 .59 62.76 62.76 0 0 1 22 15.17 12.39 12.39 0 0 1 .83.94 1.94 1.94 0 0 1 -.13 2.89 47.73 47.73 0 0 1 -3.91 3.95z"/><path d="m47.71 31a16.51 16.51 0 1 0 16.29 16.59 16.61 16.61 0 0 0 -16.29-16.59zm5.91 24.28a9.89 9.89 0 0 1 -14.48-13c2.38-3.87 7.55-5.52 10.88-4.12-2.76 3-3 5.75-.74 7.87s5 1.71 7.57-1c1.5 2.83-.05 7.77-3.23 10.29z"/><path d="m64.23 35.43s0 .08 0 .1l.6 1.1a22.18 22.18 0 0 1 3.17 10.18 21.8 21.8 0 0 1 -3.3 11.95c-.17.28-.51.53-.35 1 4.79-2 13.47-8.37 16.62-12.21-3.64-4.15-12.59-10.84-16.74-12.12z"/></g></svg>