<svg viewBox="0 0 95 95" xmlns="http://www.w3.org/2000/svg"><path d="m47.5 0a47.5 47.5 0 1 0 47.5 47.5 47.5 47.5 0 0 0 -47.5-47.5zm-.73 59.49a8.8 8.8 0 0 1 -5.77 5.1 12.51 12.51 0 0 1 -1.49.38c-1.58.34-1.58.34-1.58 1.89v2.38c0 .47-.21.68-.68.67-.74 0-1.49 0-2.24 0s-.84-.22-.82-.82c0-1 0-2 0-2.94 0-.64-.2-.9-.85-1a14.35 14.35 0 0 1 -3.9-1.1 9 9 0 0 1 -5.54-8.37c0-1.09.1-1.24 1.17-1.28 1.59-.06 3.18 0 4.76-.06.62 0 .82.27.86.81a8.24 8.24 0 0 0 .16 1.11 4.26 4.26 0 0 0 3 3.41 7.17 7.17 0 0 0 3.87.11 3.45 3.45 0 0 0 2.71-2.88c.33-1.65.22-3.18-1.2-4.33a11.36 11.36 0 0 0 -2.41-1.41c-2.38-1.16-4.76-2.16-7.09-3.38-3.32-1.68-4.73-4.56-4.68-8.14a8.87 8.87 0 0 1 5-8.31 13.67 13.67 0 0 1 3.3-1.12c1.15-.27 1.21-.34 1.24-1.49 0-.93 0-1.86 0-2.8 0-.58.17-.86.79-.84h2.38c.48 0 .67.21.66.68v3.08s.06 1.22 1.19 1.53c.45.13.91.22 1.35.37a9.37 9.37 0 0 1 6.42 8.8c0 1 0 1-1 1-.79 0-1.59 0-2.38 0h-2.1c-1.16 0-1.16 0-1.45-1.18 0-.18-.07-.37-.11-.55-.77-3.34-3.28-3.87-5.74-3.32a3 3 0 0 0 -1.81 1.25 4.55 4.55 0 0 0 1.31 6.49 26.24 26.24 0 0 0 3.79 1.79 27.38 27.38 0 0 1 5.27 2.58 9.77 9.77 0 0 1 3.61 11.89zm28.17.57a9 9 0 0 1 -6.54 4.8c-2.39.55-2 .43-2 2.51 0 2.58 0 2.58-2.61 2.54-1.21 0-1.21 0-1.23-1.24 0-.84 0-1.68 0-2.52 0-.63-.17-.9-.84-1a13.44 13.44 0 0 1 -3.72-1.05 8.83 8.83 0 0 1 -5.62-8.43c0-1.09.08-1.23 1.17-1.27h4.76c.59 0 .86.2.84.81a5.24 5.24 0 0 0 .3 1.79 4.3 4.3 0 0 0 1.43 2 6.48 6.48 0 0 0 6.27.39 4.39 4.39 0 0 0 .38-6.88 14.67 14.67 0 0 0 -2.53-1.51c-2.27-1.08-4.58-2.11-6.81-3.26-3.28-1.7-4.7-4.5-4.65-8.14a8.9 8.9 0 0 1 4.7-8.19 13 13 0 0 1 3.55-1.24c1.18-.27 1.26-.39 1.28-1.61 0-.89.05-1.78 0-2.66 0-.71.26-.9.9-.86.88.07 2-.34 2.59.16s.23 1.67.24 2.53c0 2.64-.09 2.2 2.07 2.82a9.33 9.33 0 0 1 6.91 9c0 1 0 1-1 1-.75 0-1.49 0-2.24 0s-1.77 0-2.66 0a.75.75 0 0 1 -.86-.7 13.39 13.39 0 0 0 -.46-1.76 3.92 3.92 0 0 0 -4.32-2.78c-2.05.19-3.17 1-3.59 2.74-.54 2.19 0 4 1.73 5.06a25.77 25.77 0 0 0 4 1.94 34.48 34.48 0 0 1 5.38 2.66c4.66 2.92 4.79 9.05 3.18 12.35z" fill="#fff"/></svg>