<svg viewBox="0 0 95 95" xmlns="http://www.w3.org/2000/svg"><path d="m47.5 0a47.5 47.5 0 1 0 47.5 47.5 47.5 47.5 0 0 0 -47.5-47.5zm11.57 58c-.86 3.94-3.58 6-7.29 6.9-2 .51-2 .48-2 2.51 0 3.1.41 2.44-2.48 2.5-1.26 0-1.25 0-1.27-1.32 0-1 .27-2.22-.17-3s-1.76-.54-2.69-.82a10.92 10.92 0 0 1 -5-2.9 9.18 9.18 0 0 1 -2.41-6.25c0-.9.15-1.12 1-1.16 1.68-.06 3.36 0 5-.06a.65.65 0 0 1 .76.63c0 .27.05.55.08.83a4.42 4.42 0 0 0 4.23 4.11 8.12 8.12 0 0 0 2.51-.09 3.57 3.57 0 0 0 2.88-2.9 4 4 0 0 0 -1.22-4.46 11.12 11.12 0 0 0 -2.29-1.33l-6.58-3.12c-3.69-1.75-5.4-4.77-5.17-9.09a9.07 9.07 0 0 1 7-8.46c.22-.06.45-.1.68-.15 1.84-.46 1.84-.47 1.85-2.45 0-.14 0-.28 0-.42.09-.77-.37-1.9.24-2.24.9-.49 2.09-.18 3.16-.13.48 0 .38.46.39.76v3.22a1 1 0 0 0 .91 1.19 15.53 15.53 0 0 1 1.62.44 9.41 9.41 0 0 1 6.44 8.65c0 1.18 0 1.19-1.09 1.2-.75 0-1.5 0-2.25 0-.88 0-1.77 0-2.66 0a.67.67 0 0 1 -.76-.62 13 13 0 0 0 -.49-1.62c-.78-2.46-2.86-3.51-5.56-2.82-1.87.49-3 2.74-2.53 5a4.16 4.16 0 0 0 2.23 2.89 43.77 43.77 0 0 0 4.58 2.08 19.8 19.8 0 0 1 5.28 2.89 7.9 7.9 0 0 1 3 5 12 12 0 0 1 .07 4.61z" fill="#fff"/></svg>