<?xml version="1.0" encoding="utf-8"?>
<!-- Generator: Adobe Illustrator 23.0.2, SVG Export Plug-In . SVG Version: 6.00 Build 0)  -->
<svg version="1.1" id="Layer_1" xmlns="http://www.w3.org/2000/svg" xmlns:xlink="http://www.w3.org/1999/xlink" x="0px" y="0px"
	 viewBox="0 0 226.7 240.8" style="enable-background:new 0 0 226.7 240.8;" xml:space="preserve">
<style type="text/css">
	.st0{fill:#D3EAF4;}
	.st1{fill:#C70032;}
	.st2{enable-background:new    ;}
	.st3{fill:#333333;}
</style>
<title>calendar</title>
<path class="st0" d="M190.8,240.8H35.1l-0.1-0.1h-0.7c-0.2,0-0.5,0-0.8,0c-0.2-0.1-0.4-0.1-0.7-0.1c-0.2,0-0.5-0.1-0.7-0.1
	s-0.5,0.1-0.7-0.1s-0.5,0-0.7-0.2c-0.5,0-1-0.1-1.4-0.2c-0.5-0.1-0.9-0.2-1.4-0.2c-0.3-0.1-0.7-0.3-1-0.4c-0.4-0.1-0.8-0.2-1.1-0.3
	s-0.9-0.3-1.3-0.4s-0.9-0.3-1.3-0.5c-0.9-0.4-1.8-0.8-2.6-1.2c-0.7-0.3-1.4-0.7-2.1-1.1c-0.9-0.6-1.9-1.2-2.8-1.8s-1.8-1.3-2.7-2
	c-0.6-0.5-1.2-1.1-1.7-1.6s-1-1-1.5-1.5c-0.1-0.1-0.2-0.2-0.2-0.2c-0.4-0.7-1-1.2-1.5-1.8s-0.9-1.1-1.2-1.6
	c-0.8-1.1-1.5-2.2-2.1-3.4c-0.6-1-1-2.1-1.5-3.1c-0.1-0.3-0.3-0.6-0.4-0.8c-0.2-0.7-0.5-1.3-0.7-1.9s-0.4-1.5-0.6-2.2
	c-0.1-0.5-0.2-1.1-0.4-1.6c-0.1-0.4-0.2-0.8-0.3-1.2c0-0.4-0.1-0.7-0.1-1.1c-0.1-0.2,0-0.5-0.1-0.7c-0.1-0.3-0.1-0.5-0.1-0.8
	c0,0,0-0.1,0-0.2c-0.2-0.2-0.1-0.6-0.1-0.8s-0.1-0.6-0.1-0.8s0-0.6,0-0.9V80h226.5v125.2c0,0.4,0,0.9,0,1.3
	c-0.1,0.3-0.1,0.5-0.1,0.8s-0.1,0.5-0.1,0.8c0,0.4-0.1,0.8-0.1,1.2c-0.1,0.3,0,0.6-0.1,0.9s0,0.4-0.1,0.5s-0.1,0.4-0.1,0.5
	c-0.1,0.3-0.2,0.7-0.2,1c-0.1,0.4-0.2,0.8-0.3,1.1c-0.1,0.5-0.2,1-0.4,1.5c-0.3,0.8-0.5,1.6-0.9,2.5c-0.3,0.9-0.7,1.8-1.1,2.6
	c-0.5,1.1-1,2.1-1.6,3.1c-0.2,0.3-0.3,0.6-0.5,0.8c-0.5,0.7-0.9,1.4-1.4,2.1c-0.3,0.4-0.6,0.8-0.9,1.1s-0.5,0.5-0.7,0.8
	c-0.4,0.6-0.9,1.1-1.4,1.6c-0.4,0.4-0.7,0.7-1.1,1.1c-0.2,0.3-0.5,0.5-0.8,0.8c-0.2,0.2-0.4,0.4-0.6,0.6l-0.7,0.6
	c-0.4,0.4-0.9,0.8-1.4,1.1c-0.3,0.2-0.5,0.4-0.9,0.6s-0.6,0.4-0.9,0.6c-0.8,0.5-1.5,1-2.3,1.4c-1.1,0.6-2.2,1.2-3.4,1.6
	c-0.7,0.3-1.4,0.6-2.1,0.8s-1.4,0.5-2.2,0.7l-1.1,0.4c-0.3,0.1-0.6,0.1-0.9,0.2s-0.6,0.1-0.9,0.2c-0.5,0.2-1,0.2-1.6,0.3
	c-0.3,0.1-0.6,0-0.9,0.1c-0.3,0.1-0.6,0.1-0.9,0.1c-0.7,0.1-1.4,0.2-2.2,0.1c-0.3,0-0.5,0-0.8,0C191,240.7,190.9,240.7,190.8,240.8z
	"/>
<path class="st1" d="M226.6,80H0.1c0-2.4,0.2-29.3,0.3-30s0-1.1,0.1-1.6s0.2-2.2,0.2-2.7v-0.1C0.9,45.2,1,44.7,1,44.2
	c0.2-0.6,0.3-1.2,0.4-1.8c0.4-0.7,0.4-1.6,0.8-2.2c0.3-1,0.7-2,1.1-2.9s0.9-1.7,1.3-2.6c0.1-0.3,0.3-0.5,0.5-0.7
	c0.4-0.5,0.7-1,1-1.6c0.5-0.7,1-1.4,1.5-2.1c0.2-0.2,0.5-0.5,0.7-0.8s0.4-0.5,0.6-0.7c0.2-0.3,0.4-0.5,0.6-0.7
	c0.7-0.7,1.4-1.4,2.1-2c0.6-0.5,1.1-1,1.7-1.5c0.7-0.6,1.4-1.1,2.2-1.6c1.3-0.9,2.6-1.7,4-2.4c0.9-0.4,1.8-0.9,2.7-1.3
	c0.9-0.4,1.8-0.7,2.7-1c0.8-0.3,1.7-0.5,2.6-0.7c0.4-0.1,0.8-0.2,1.1-0.3s1-0.2,1.5-0.3c0.4-0.1,0.8-0.2,1.2-0.1
	c0.4-0.3,0.9-0.1,1.4-0.2c0.4-0.1,0.8-0.1,1.2,0c0.4,0,0.8-0.1,1.2-0.1c0.9,0,1.8,0,2.7,0v16.2c-0.1,0-0.3,0-0.4,0.1
	c-0.3,0.2-0.6,0.3-0.9,0.5s-0.8,0.5-1.2,0.8c-0.6,0.5-1.2,1-1.7,1.6c-0.4,0.3-0.7,0.7-1,1.1c-0.4,0.5-0.7,1-1,1.6
	c-0.4,0.7-0.8,1.5-1.1,2.3c-0.3,0.8-0.6,1.7-0.8,2.6c-0.1,0.7-0.2,1.3-0.3,2c-0.1,1.1-0.1,2.1,0.1,3.2c0,0.2,0.1,0.5,0.1,0.7
	c0.1,0.2,0,0.5,0.1,0.8c0.2,0.5,0.3,1.1,0.4,1.6c0.3,0.9,0.8,1.8,1.3,2.7c0.9,1.7,2.2,3.1,3.7,4.3c0.7,0.6,1.4,1.1,2.1,1.5
	c1.2,0.7,2.5,1.2,3.9,1.5c0.7,0.2,1.4,0.4,2.2,0.5c0.4,0,0.8,0,1.1,0c0.4,0,0.7,0,1.1,0c0.4,0.1,0.7,0.1,1.1,0
	c0.3-0.1,0.7,0.1,1.1-0.2c0.6-0.1,1.2-0.2,1.8-0.4c0.3-0.1,0.6-0.2,0.9-0.3c0.3-0.1,0.6-0.2,0.9-0.4c0.3-0.1,0.6-0.2,0.9-0.4
	c0.4-0.2,0.9-0.5,1.3-0.8c0.7-0.4,1.4-1,2-1.5c0.8-0.7,1.5-1.5,2.2-2.4c0.4-0.6,0.8-1.2,1.2-1.9c0.4-0.8,0.8-1.6,1-2.5
	c0.2-0.5,0.3-1,0.4-1.5c0-0.3,0.1-0.6,0.2-0.8c0.1-0.3,0-0.5,0.1-0.8s0.1-0.5,0.1-0.8c0-0.6,0-1.3,0-1.9c-0.1-0.4-0.1-0.9-0.1-1.3
	c-0.2-0.6-0.3-1.2-0.5-1.9c-0.3-1-0.6-1.9-1-2.8c-0.1-0.3-0.3-0.5-0.4-0.8c-0.5-0.9-1-1.7-1.7-2.4c-0.5-0.5-1-1-1.4-1.5
	c-0.3-0.3-0.6-0.5-0.9-0.8c-0.7-0.5-1.4-0.9-2.2-1.3v-1.5c0-0.5,0-1.1,0-1.6s-0.1-1-0.1-1.5c0-3.8,0-7.7,0-11.5H174V33
	c-0.1,0-0.1,0-0.2,0c-0.6,0.3-1.2,0.7-1.7,1.1c-0.6,0.4-1.1,0.9-1.7,1.4c-0.4,0.4-0.8,0.8-1.2,1.3c-0.2,0.2-0.4,0.5-0.6,0.8
	c-0.4,0.5-0.7,1-0.9,1.5c-0.5,0.5-0.6,1.2-0.9,1.8c-0.3,0.9-0.5,1.7-0.7,2.6c-0.2,0.6-0.3,1.3-0.3,2c0,0.6,0,1.2,0,1.8
	c-0.1,0.6,0.2,1.1,0.1,1.7v0.1c0.2,0.6,0.2,1.3,0.5,1.8c0.1,0.5,0.2,0.9,0.4,1.4c0.1,0.5,0.3,0.9,0.6,1.3c0.5,1.2,1.2,2.3,2.1,3.3
	c0.7,0.9,1.6,1.7,2.5,2.4c0.6,0.5,1.3,0.9,2,1.3c0.7,0.4,1.4,0.7,2.1,0.9c0.5,0.2,1,0.3,1.6,0.4c0.2,0.2,0.5,0.1,0.7,0.2
	c0.2,0.1,0.5,0.1,0.7,0.1c0.3,0,0.5,0.1,0.8,0.1c1.5,0.1,2.9,0,4.4-0.2c0.3-0.1,0.6,0,0.9-0.1s0.6-0.2,0.9-0.2
	c1.2-0.4,2.3-0.8,3.3-1.4c1-0.6,1.9-1.3,2.7-2c0.6-0.6,1.2-1.2,1.8-1.8c0.2-0.2,0.4-0.5,0.5-0.7c0.4-0.5,0.7-1.1,1-1.6
	c0.2-0.3,0.4-0.6,0.5-0.9c0.1-0.3,0.3-0.6,0.4-1c0.3-0.9,0.6-1.7,0.7-2.6c0.2-0.2,0.1-0.4,0.1-0.7c0.1-0.2,0.1-0.5,0.1-0.7
	c0-0.4,0-0.8,0-1.2s0-0.9,0-1.3s-0.1-0.9-0.1-1.3c0-0.1,0-0.1,0-0.2c-0.1-0.3-0.2-0.7-0.2-1c-0.1-0.4-0.2-0.8-0.3-1.2
	c-0.2-0.7-0.5-1.4-0.8-2.1c-0.3-0.6-0.6-1.2-0.9-1.7c-0.4-0.7-0.9-1.3-1.4-1.9c-0.6-0.7-1.3-1.4-2-2c-0.4-0.1-0.7-0.4-1-0.6
	c-0.3-0.2-0.7-0.4-1-0.6c-0.1-0.1-0.3-0.2-0.5-0.1v-3.6c0-1.2,0.1-2.5,0-3.7s-0.1-2.5-0.1-3.7c0-1.8,0-3.5,0-5.3
	c0.3,0,0.6,0.1,0.9,0.1c0.5,0.1,1,0.1,1.6,0c0.5,0,1.1,0.1,1.6,0.1s1.1,0.1,1.6,0.1l0,0c0.6,0.2,1.2,0.2,1.8,0.3
	c0.3,0.1,0.6,0,0.9,0.1s0.5,0.1,0.8,0.2c0.5,0.2,1,0.3,1.5,0.4c0.6,0.1,1.1,0.3,1.6,0.5c0.8,0.2,1.6,0.5,2.4,0.8s1.8,0.7,2.7,1.1
	s1.5,0.8,2.3,1.2c0.5,0.3,1.1,0.6,1.6,0.9c1,0.7,2,1.4,3,2.2c0.9,0.7,1.7,1.4,2.5,2.1c0.8,0.8,1.6,1.6,2.4,2.5
	c0.3,0.4,0.7,0.7,0.9,1.1c0.6,0.9,1.4,1.8,2,2.8s1,1.6,1.5,2.5c0.7,1.2,1.3,2.5,1.8,3.8c0.2,0.6,0.4,1.2,0.7,1.8
	c0.2,0.5,0.3,1,0.5,1.5c0.1,0.3,0.2,0.6,0.2,0.8c0.1,0.2,0.1,0.5,0.2,0.7c0,0.3,0.1,0.5,0.1,0.8c0.1,0.3,0.2,0.7,0.2,1
	c0.1,0.3,0.1,0.7,0.2,1c0,0.3,0.1,0.5,0.1,0.8c0.1,0.2,0.1,0.4,0.1,0.7c0.1,0.2,0.1,0.4,0.1,0.7c0,0.8,0,1.6,0,2.5
	c0,0.8,0,1.6,0.1,2.4c0.1,0.8,0.1,1.6,0,2.4L226.6,80z"/>
<path class="st0" d="M182,0l0.1,0.1c1.2,0,2.3,0.4,3.2,1.1c1.1,0.7,1.9,1.7,2.4,2.9c0.2,0.6,0.4,1.1,0.6,1.7c0.1,0.4,0,0.8,0.1,1.1
	c0.1,1.1,0.2,2.1,0.1,3.2c0,1.1,0,2.1,0,3.2v3.2c0,1.8,0,3.5,0,5.3c0,1.2,0,2.5,0.1,3.7s0,2.5,0,3.7v3.7c-0.1,0.1-0.1,0.3-0.1,0.5
	v4.5c0,1.5,0,3,0,4.5s-0.1,2.9-0.1,4.4c0,0.4,0,0.8-0.1,1.2c-0.2,0.8-0.6,1.5-1,2.2c-0.3,0.4-0.6,0.8-1,1.2
	c-0.6,0.6-1.4,1.1-2.3,1.4c-0.4,0.2-0.8,0.3-1.2,0.4c-0.5,0-0.9,0.1-1.4,0.1c-0.1,0-0.3,0-0.4,0c-0.1,0-0.3-0.1-0.4-0.1
	c-0.3,0-0.6,0-0.9-0.1c-0.7-0.2-1.4-0.5-2-0.8c-0.6-0.4-1.1-0.8-1.6-1.3c-0.6-0.6-1.1-1.4-1.4-2.2c-0.2-0.4-0.3-0.9-0.4-1.3
	c0-0.8-0.1-1.6-0.1-2.4c0-3.8,0-7.7,0-11.5c0-0.2,0-0.3,0-0.5s-0.1-0.1-0.1-0.1V16.5c-0.1-0.8,0.2-1.5,0.1-2.3s0-1.6,0-2.4V9.5
	c0-0.8-0.1-1.6,0-2.3c0-0.6,0.1-1.1,0.3-1.7c0.1-0.6,0.4-1.2,0.6-1.7c0.3-0.5,0.6-1,1-1.4s0.8-0.9,1.3-1.2s0.9-0.5,1.4-0.7
	s1.1-0.4,1.7-0.4l0.1-0.1L182,0z"/>
<path class="st0" d="M38.1,16.6c0-0.9,0-1.7,0-2.6c0-0.6,0.2-1.1,0.1-1.7s0-1.1,0-1.7V8.9c0-0.6,0-1.1,0-1.7
	c0.1-0.6,0.1-1.2,0.3-1.9c0.2-0.6,0.4-1.2,0.7-1.7c0.2-0.5,0.5-0.9,0.9-1.3s0.8-0.8,1.3-1.2c0.4-0.3,0.9-0.5,1.4-0.7
	C43.4,0.1,44,0,44.6,0c0,0,0.1-0.1,0.2-0.1h1.4L46.3,0c0.9,0.1,1.7,0.3,2.5,0.7c0.5,0.3,1,0.6,1.4,1s0.8,0.8,1.1,1.2
	c0.3,0.5,0.6,1,0.8,1.5c0.1,0.2,0.1,0.4,0.2,0.7c0.2,0.4,0,0.7,0.2,1.1c0,0.5,0,0.9,0.1,1.4c0,2.9,0,5.9,0,8.8c0,3.8,0,7.7,0,11.5
	c0,0.5,0.2,1,0.1,1.5s0,1.1,0,1.6v1.6c-0.2,0-0.1,0.2-0.1,0.3c0,1.5,0,3,0,4.5s0,3,0,4.4s0.1,3-0.1,4.4c-0.1,0.5-0.2,1.1-0.3,1.6
	c-0.2,0.8-0.5,1.5-1,2.2c-0.4,0.6-1,1.2-1.6,1.7c-0.5,0.3-1,0.6-1.5,0.8c-0.6,0.2-1.2,0.3-1.8,0.4h-2c-0.1,0-0.2,0-0.3,0l-1-0.3
	c-0.5-0.2-0.9-0.4-1.3-0.6c-0.6-0.4-1.1-0.8-1.5-1.3c-0.4-0.4-0.7-0.8-0.9-1.3c-0.4-0.9-0.7-1.8-0.8-2.7c0-0.4-0.1-0.7-0.1-1.1
	c0-4,0-8,0-11.9c0-0.2,0-0.4,0-0.5c0-0.2-0.1-0.3-0.1-0.5L38.1,16.6z"/>
<path class="st0" d="M0.1,72.7H0v-6.9c0.2,0,0.1,0.2,0.1,0.3c0,1.2,0,2.3,0,3.5V72.7z"/>
<path class="st0" d="M0,56.8h0.1c0,1.2,0,2.4,0,3.6c0,0.1,0.1,0.2-0.1,0.3V56.8z"/>
<g class="st2">
	<path class="st3" d="M75.6,163v-14.3l11.7-8.8h13.2v69.5H87.3v-54.9L75.6,163z"/>
	<path class="st3" d="M150,151.4l-21.1,58h-13.3l21.5-58H110v-11.5h40V151.4z"/>
</g>
<g class="st2">
	<path class="st3" d="M60.7,102.1c2,0,3.6,0.6,4.8,1.7c1.2,1.1,1.7,3,1.7,5.5v3.7c0,2.6-0.6,4.4-1.8,5.5c-1.2,1.1-2.8,1.7-4.8,1.7
		h-6.3v-18.1H60.7z M63,116.2c0.5-0.7,0.8-1.8,0.8-3.2v-3.5c0-1.5-0.3-2.7-0.8-3.4s-1.3-1-2.3-1h-2.9v12.1h2.9
		C61.7,117.2,62.5,116.9,63,116.2z"/>
</g>
<g class="st2">
	<path class="st3" d="M73.3,109.6h6.9v3h-6.9v4.7h8.1v3H69.8v-18.1h11.5v3h-8.1V109.6z"/>
</g>
<g class="st2">
	<path class="st3" d="M83,109.1c0-4.8,2.2-7.2,6.7-7.2c2,0,3.6,0.5,4.7,1.6s1.8,2.5,1.8,4.4v0.2h-3.4v-0.2c0-0.9-0.3-1.7-0.8-2.2
		c-0.5-0.5-1.3-0.8-2.3-0.8c-1.1,0-1.9,0.3-2.4,1s-0.7,1.8-0.7,3.4v3.9c0,1.5,0.3,2.5,0.8,3.2s1.3,1,2.4,1c1,0,1.7-0.3,2.2-0.8
		c0.5-0.5,0.8-1.2,0.8-2.2v-0.2h3.4v0.2c0,1.9-0.6,3.4-1.7,4.5c-1.2,1-2.7,1.6-4.8,1.6c-4.4,0-6.6-2.4-6.6-7.2V109.1z"/>
</g>
<g class="st2">
	<path class="st3" d="M102.2,109.6h6.9v3h-6.9v4.7h8.1v3H98.8v-18.1h11.5v3h-8.1V109.6z"/>
	<path class="st3" d="M128.9,120.2h-3.4v-10.8l-3.4,7.3h-2.3l-3.5-7.3v10.8h-3.4v-18.1h3.4l4.7,10l4.6-10h3.4V120.2z"/>
</g>
<g class="st2">
	<path class="st3" d="M144.9,115c0,1.6-0.5,2.9-1.5,3.8s-2.3,1.4-4.1,1.4H132v-18.1h7c1.8,0,3.2,0.4,4.1,1.3s1.5,2.1,1.5,3.7
		c0,0.8-0.2,1.5-0.6,2.2s-1,1.2-1.7,1.5c0.8,0.4,1.5,0.9,1.9,1.6S144.9,114,144.9,115z M135.5,109.5h3.3c0.8,0,1.4-0.2,1.8-0.6
		s0.6-0.9,0.6-1.6c0-0.7-0.2-1.3-0.6-1.7s-1-0.6-1.8-0.6h-3.3V109.5z M141.4,114.8c0-0.7-0.2-1.3-0.6-1.7s-1-0.6-1.9-0.6h-3.5v4.7
		h3.5c0.8,0,1.4-0.2,1.9-0.6C141.2,116.2,141.4,115.6,141.4,114.8z"/>
</g>
<g class="st2">
	<path class="st3" d="M150.9,109.6h6.9v3h-6.9v4.7h8.1v3h-11.5v-18.1H159v3h-8.1V109.6z"/>
	<path class="st3" d="M164.9,112.9v7.4h-3.4v-18.1h6.9c1.8,0,3.2,0.5,4.2,1.5c1.1,1,1.6,2.3,1.6,4c0,1.2-0.3,2.2-0.8,3
		c-0.6,0.8-1.3,1.4-2.4,1.8l3.9,7.9h-4l-3.4-7.4H164.9z M168.2,110c0.8,0,1.4-0.2,1.9-0.6c0.4-0.4,0.7-1,0.7-1.9
		c0-0.7-0.2-1.3-0.7-1.8c-0.5-0.4-1.1-0.7-1.9-0.7h-3.3v4.9H168.2z"/>
</g>
</svg>
