<?xml version="1.0" encoding="utf-8"?>
<!-- Generator: Adobe Illustrator 23.0.2, SVG Export Plug-In . SVG Version: 6.00 Build 0)  -->
<svg version="1.1" id="Layer_1" xmlns="http://www.w3.org/2000/svg" xmlns:xlink="http://www.w3.org/1999/xlink" x="0px" y="0px"
	 viewBox="0 0 452.6 377.1" style="enable-background:new 0 0 452.6 377.1;" xml:space="preserve">
<style type="text/css">
	.st0{fill:#D6D6D6;}
	.st1{fill:#413D85;}
	.st2{fill:#EBEAF3;}
	.st3{font-family:'MyriadPro-Bold';}
	.st4{font-size:16.5008px;}
	.st5{letter-spacing:-1;}
	.st6{fill:#010101;}
	.st7{font-family:'MyriadPro-Semibold';}
	.st8{font-size:9.6254px;}
	.st9{fill:#FFFFFF;}
	.st10{font-family:'MyriadPro-Regular';}
	.st11{font-size:8.9379px;}
	.st12{fill:#F9F076;}
	.st13{fill:#494FA1;}
	.st14{fill:#D7435C;}
	.st15{fill:#F8F8FC;}
	.st16{fill:#D3D3D3;}
	.st17{fill:#0B161E;}
	.st18{fill:#785C56;}
	.st19{fill:#82645B;}
	.st20{fill:#EAE6D6;}
	.st21{fill:#A96B7D;}
	.st22{fill:#75405A;}
	.st23{fill:#218ECE;}
	.st24{fill:#208ECD;}
	.st25{fill:#2691CF;}
	.st26{fill:#2B94D0;}
	.st27{fill:#EBF5FA;}
</style>
<g>
	<polyline class="st0" points="18.1,38.2 344.9,22.2 355,228.4 28.2,244.3 18.1,38.2 	"/>
	<polyline class="st1" points="268,26 236.3,60.7 51.8,70.7 47.1,36.7 268,26 	"/>
	<g>
		<defs>
			<path id="SVGID_1_" d="M48.7,48c-1.2,0.1-2.3,0.1-3.5,0.2c0,0,0,0,0,0c-3.9,0.3-7.9,0.8-11.7,1.5c-5.1,1-9.3,2.1-11.9,2.9h27.8
				L48.7,48"/>
		</defs>
		<clipPath id="SVGID_2_">
			<use xlink:href="#SVGID_1_"  style="overflow:visible;"/>
		</clipPath>
		<g style="clip-path:url(#SVGID_2_);">
			
				<image style="overflow:visible;" width="61" height="12" xlink:href="4722BE813A1E024A.jpg"  transform="matrix(0.48 0 0 -0.48 20.64 53.13)">
			</image>
		</g>
	</g>
	<g>
		<defs>
			<path id="SVGID_3_" d="M74.4,47.5c-4.7,0-15.6,0.1-25.7,0.5l0.6,4.6h26.8c-0.5-1.2-0.9-3,0.6-5.1l0,0
				C76.8,47.5,75.9,47.5,74.4,47.5"/>
		</defs>
		<clipPath id="SVGID_4_">
			<use xlink:href="#SVGID_3_"  style="overflow:visible;"/>
		</clipPath>
		<g style="clip-path:url(#SVGID_4_);">
			
				<image style="overflow:visible;" width="61" height="13" xlink:href="4722BE813A1E0248.jpg"  transform="matrix(0.48 0 0 -0.48 48 53.13)">
			</image>
		</g>
	</g>
	<g>
		<defs>
			<path id="SVGID_5_" d="M259,233.1l-87.6,4.3H259V233.1"/>
		</defs>
		<clipPath id="SVGID_6_">
			<use xlink:href="#SVGID_5_"  style="overflow:visible;"/>
		</clipPath>
		<g transform="matrix(1 0 0 1 0 0)" style="clip-path:url(#SVGID_6_);">
			
				<image style="overflow:visible;" width="140" height="132" xlink:href="4722BE813A1E0249.jpg"  transform="matrix(0.2385 0 0 0.2385 27.4245 206.3389)">
			</image>
		</g>
		<g transform="matrix(1 0 0 1 0 0)" style="clip-path:url(#SVGID_6_);">
			
				<image style="overflow:visible;" width="418" height="132" xlink:href="4722BE813A1E0272.jpg"  transform="matrix(0.2385 0 0 0.2385 159.7651 206.3389)">
			</image>
		</g>
	</g>
	<g>
		<defs>
			<path id="SVGID_7_" d="M41.7,62c-0.5,0.2-1,0.4-1.5,0.6c-1.6,0.6-3.1,1.2-4.5,1.8c0.2-0.1,0.3-0.1,0.5-0.2
				C38,63.4,39.9,62.7,41.7,62 M18.9,53.6l0.9,17.9c0-0.1,0.1-0.2,0.2-0.3l0,0L18.9,53.6 M259,52.5h-15.2l-7.4,8.1l-184.5,10l0-0.2
				c-15.9,8-30.9,17-31.2,17.3l7.3,149.6h143.5l87.6-4.3V52.5"/>
		</defs>
		<clipPath id="SVGID_8_">
			<use xlink:href="#SVGID_7_"  style="overflow:visible;"/>
		</clipPath>
	</g>
	<g>
		<defs>
			<path id="SVGID_9_" d="M243.7,52.5H76.1c0.4,0.9,1,1.4,1,1.4c-0.5,0-0.9,0-1.4,0c-2.3,0-4.7,0.2-7.2,0.6c2.9-0.3,5.7-0.4,8.6-0.5
				l5.3,4.2c-7.1,1.1-19.1,6.4-30.6,12.3l0,0.2l184.5-10L243.7,52.5"/>
		</defs>
		<clipPath id="SVGID_10_">
			<use xlink:href="#SVGID_9_"  style="overflow:visible;"/>
		</clipPath>
		<g transform="matrix(1 0 0 1 0 0)" style="clip-path:url(#SVGID_10_);">
			
				<image style="overflow:visible;" width="807" height="78" xlink:href="4722BE813A1E0273.jpg"  transform="matrix(0.2385 0 0 0.2385 51.5081 52.2991)">
			</image>
		</g>
	</g>
	<g>
		<defs>
			<path id="SVGID_11_" d="M19.7,71.5C19.7,71.5,19.7,71.6,19.7,71.5c0,2.2,0.3,7,0.4,9.2c0.1,2.3,0.2,4.6,0.3,7c0,0,0,0,0,0
				L19.7,71.5"/>
		</defs>
		<clipPath id="SVGID_12_">
			<use xlink:href="#SVGID_11_"  style="overflow:visible;"/>
		</clipPath>
		<g transform="matrix(1 0 0 1 0 0)" style="clip-path:url(#SVGID_12_);">
			
				<image style="overflow:visible;" width="5" height="70" xlink:href="4722BE813A1E0274.jpg"  transform="matrix(0.2385 0 0 0.2385 19.5556 71.3753)">
			</image>
		</g>
	</g>
	<g>
		<defs>
			<path id="SVGID_13_" d="M50.2,59c-2.9,0.9-5.8,2-8.5,3c-1.9,0.7-3.7,1.4-5.6,2.2c-0.2,0.1-0.3,0.1-0.5,0.2
				C26.8,68,20.3,71.2,20,71.2c0,0,0,0,0,0c-0.1,0.1-0.2,0.2-0.2,0.3l0.8,16.2c0.4-0.2,15.4-9.2,31.2-17.3L50.2,59"/>
		</defs>
		<clipPath id="SVGID_14_">
			<use xlink:href="#SVGID_13_"  style="overflow:visible;"/>
		</clipPath>
		<g transform="matrix(1 0 0 1 0 0)" style="clip-path:url(#SVGID_14_);">
			
				<image style="overflow:visible;" width="136" height="123" xlink:href="4722BE813A1E0275.jpg"  transform="matrix(0.2385 0 0 0.2385 19.5556 58.7373)">
			</image>
		</g>
	</g>
	<g>
		<defs>
			<path id="SVGID_15_" d="M77.1,54c-2.9,0.1-5.7,0.3-8.6,0.5C62.6,55.3,56.3,57,50.2,59l1.6,11.5c11.5-5.8,23.5-11.2,30.6-12.3
				L77.1,54"/>
		</defs>
		<clipPath id="SVGID_16_">
			<use xlink:href="#SVGID_15_"  style="overflow:visible;"/>
		</clipPath>
		<g transform="matrix(1 0 0 1 0 0)" style="clip-path:url(#SVGID_16_);">
			
				<image style="overflow:visible;" width="137" height="71" xlink:href="4722BE813A1E0276.jpg"  transform="matrix(0.2385 0 0 0.2385 50.0774 53.7299)">
			</image>
		</g>
	</g>
	<g>
		<defs>
			<polyline id="SVGID_17_" points="18.9,53.4 18.9,53.4 18.9,53.4 18.9,53.6 18.9,53.4 			"/>
		</defs>
		<clipPath id="SVGID_18_">
			<use xlink:href="#SVGID_17_"  style="overflow:visible;"/>
		</clipPath>
		<g transform="matrix(1 0 0 1 0 0)" style="clip-path:url(#SVGID_18_);">
			
				<image style="overflow:visible;" width="3" height="3" xlink:href="4722BE813A1E0277.jpg"  transform="matrix(0.2385 0 0 0.2385 18.6018 53.253)">
			</image>
		</g>
	</g>
	<g>
		<defs>
			<path id="SVGID_19_" d="M49.3,52.5H21.6c-1.7,0.5-2.6,0.9-2.7,0.9l0,0.2L20,71.2l0,0l0,0c1.2-1.6,5.5-2.6,7.2-3.3
				c2.8-1.2,5.7-2.4,8.5-3.5c1.4-0.6,2.9-1.2,4.5-1.8c0.5-0.2,1-0.4,1.5-0.6c2.8-1.1,5.6-2.1,8.4-3.2L49.3,52.5"/>
		</defs>
		<clipPath id="SVGID_20_">
			<use xlink:href="#SVGID_19_"  style="overflow:visible;"/>
		</clipPath>
		<g transform="matrix(1 0 0 1 0 0)" style="clip-path:url(#SVGID_20_);">
			
				<image style="overflow:visible;" width="133" height="80" xlink:href="480588AD66565594.jpg"  transform="matrix(0.2385 0 0 0.2385 18.6018 52.2991)">
			</image>
		</g>
	</g>
	<g>
		<defs>
			<path id="SVGID_21_" d="M76.1,52.5H49.3l0.9,6.3c1.2-0.4,2.4-0.9,3.7-1.3c4.7-1.7,9.7-2.5,14.6-3c2.5-0.4,4.9-0.6,7.2-0.6
				c0.5,0,1,0,1.4,0C77.1,54,76.5,53.4,76.1,52.5"/>
		</defs>
		<clipPath id="SVGID_22_">
			<use xlink:href="#SVGID_21_"  style="overflow:visible;"/>
		</clipPath>
		<g transform="matrix(1 0 0 1 0 0)" style="clip-path:url(#SVGID_22_);">
			
				<image style="overflow:visible;" width="118" height="28" xlink:href="480588AD66565584.jpg"  transform="matrix(0.2385 0 0 0.2385 49.1236 52.2991)">
			</image>
		</g>
	</g>
	<g>
		<defs>
			<path id="SVGID_23_" d="M50.2,58.8c-2.8,1-5.6,2.1-8.4,3.2c2.7-1,5.6-2,8.5-3L50.2,58.8"/>
		</defs>
		<clipPath id="SVGID_24_">
			<use xlink:href="#SVGID_23_"  style="overflow:visible;"/>
		</clipPath>
		<g transform="matrix(1 0 0 1 0 0)" style="clip-path:url(#SVGID_24_);">
			
				<image style="overflow:visible;" width="38" height="16" xlink:href="480588AD66565585.jpg"  transform="matrix(0.2385 0 0 0.2385 41.4931 58.4989)">
			</image>
		</g>
	</g>
	<g>
		<defs>
			<path id="SVGID_25_" d="M68.5,54.5c-5,0.5-9.9,1.4-14.6,3c-1.2,0.4-2.4,0.9-3.7,1.3l0,0.2C56.3,57,62.6,55.3,68.5,54.5"/>
		</defs>
		<clipPath id="SVGID_26_">
			<use xlink:href="#SVGID_25_"  style="overflow:visible;"/>
		</clipPath>
		<g transform="matrix(1 0 0 1 0 0)" style="clip-path:url(#SVGID_26_);">
			
				<image style="overflow:visible;" width="79" height="21" xlink:href="480588AD66565586.jpg"  transform="matrix(0.2385 0 0 0.2385 49.8389 54.2068)">
			</image>
		</g>
	</g>
	<g>
		<defs>
			<path id="SVGID_27_" d="M35.7,64.4c-2.9,1.1-5.7,2.3-8.5,3.5c-1.7,0.7-6,1.8-7.2,3.3l0,0c0,0,0,0,0,0
				C20.3,71.2,26.8,68,35.7,64.4"/>
		</defs>
		<clipPath id="SVGID_28_">
			<use xlink:href="#SVGID_27_"  style="overflow:visible;"/>
		</clipPath>
		<g transform="matrix(1 0 0 1 0 0)" style="clip-path:url(#SVGID_28_);">
			
				<image style="overflow:visible;" width="68" height="30" xlink:href="480588AD66565587.jpg"  transform="matrix(0.2385 0 0 0.2385 19.794 64.2217)">
			</image>
		</g>
	</g>
	<g>
		<defs>
			<path id="SVGID_29_" d="M18.1,38.2C18.1,38.2,18.1,38.2,18.1,38.2l0.7,14.4h0L18.1,38.2"/>
		</defs>
		<clipPath id="SVGID_30_">
			<use xlink:href="#SVGID_29_"  style="overflow:visible;"/>
		</clipPath>
		<g style="clip-path:url(#SVGID_30_);">
			
				<image style="overflow:visible;" width="5" height="33" xlink:href="480588AD665655BE.jpg"  transform="matrix(0.48 0 0 -0.48 17.28 53.13)">
			</image>
		</g>
	</g>
	<g>
		<defs>
			<path id="SVGID_31_" d="M47.1,36.7c-12.9,0.6-28.7,1.4-29,1.4l0.7,14.4h2.4c3.6-1.3,7.8-2.2,12.2-2.9c3.6-0.7,7.6-1.2,11.7-1.5
				c1.2-0.1,2.3-0.2,3.5-0.3L47.1,36.7"/>
		</defs>
		<clipPath id="SVGID_32_">
			<use xlink:href="#SVGID_31_"  style="overflow:visible;"/>
		</clipPath>
		<g style="clip-path:url(#SVGID_32_);">
			
				<image style="overflow:visible;" width="67" height="36" xlink:href="480588AD665655BF.jpg"  transform="matrix(0.48 0 0 -0.48 17.28 53.13)">
			</image>
		</g>
	</g>
	<g>
		<defs>
			<path id="SVGID_33_" d="M63.7,35.9C63.6,35.9,63.6,35.9,63.7,35.9c-1.3,0.1-8.3,0.4-16.5,0.8l1.5,11.1c6.6-0.5,12.9-0.6,17.8-0.6
				c6.2,0,10.3,0.2,10.3,0.2l0,0c0,0,0.3-3.6,5.8-4.3C82.6,43.1,66.9,35.9,63.7,35.9"/>
		</defs>
		<clipPath id="SVGID_34_">
			<use xlink:href="#SVGID_33_"  style="overflow:visible;"/>
		</clipPath>
		<g style="clip-path:url(#SVGID_34_);">
			
				<image style="overflow:visible;" width="77" height="28" xlink:href="480588AD66565582.jpg"  transform="matrix(0.48 0 0 -0.48 46.56 48.81)">
			</image>
		</g>
	</g>
	<g>
		<defs>
			<path id="SVGID_35_" d="M33.4,49.6c-4.4,0.7-8.6,1.7-12.2,2.9h0.3C24.1,51.7,28.3,50.5,33.4,49.6 M48.7,47.9
				c-1.2,0.1-2.3,0.2-3.5,0.3c0,0,0,0,0,0c1.1-0.1,2.3-0.1,3.5-0.2L48.7,47.9"/>
		</defs>
		<clipPath id="SVGID_36_">
			<use xlink:href="#SVGID_35_"  style="overflow:visible;"/>
		</clipPath>
		<g style="clip-path:url(#SVGID_36_);">
			
				<image style="overflow:visible;" width="60" height="12" xlink:href="480588AD66565583.jpg"  transform="matrix(0.48 0 0 -0.48 20.64 53.13)">
			</image>
		</g>
	</g>
	<g>
		<defs>
			<path id="SVGID_37_" d="M66.5,47.3c-4.9,0-11.2,0.1-17.8,0.6l0,0.1c10.1-0.4,21-0.5,25.7-0.5c1.5,0,2.4,0,2.4,0
				S72.7,47.3,66.5,47.3"/>
		</defs>
		<clipPath id="SVGID_38_">
			<use xlink:href="#SVGID_37_"  style="overflow:visible;"/>
		</clipPath>
		<g style="clip-path:url(#SVGID_38_);">
			
				<image style="overflow:visible;" width="61" height="5" xlink:href="480588AD66565580.jpg"  transform="matrix(0.48 0 0 -0.48 48 48.81)">
			</image>
		</g>
	</g>
	<g>
		<defs>
			<polyline id="SVGID_39_" points="18.8,52.5 18.8,52.5 18.9,53.4 18.9,53.4 18.9,53.4 18.8,52.5 			"/>
		</defs>
		<clipPath id="SVGID_40_">
			<use xlink:href="#SVGID_39_"  style="overflow:visible;"/>
		</clipPath>
		<g transform="matrix(1 0 0 1 0 0)" style="clip-path:url(#SVGID_40_);">
			
				<image style="overflow:visible;" width="3" height="6" xlink:href="480588AD665655E6.jpg"  transform="matrix(0.2385 0 0 0.2385 18.6018 52.2991)">
			</image>
		</g>
	</g>
	<g>
		<defs>
			<path id="SVGID_41_" d="M21.2,52.5h-2.4l0,0.9C19.6,53.1,20.4,52.8,21.2,52.5"/>
		</defs>
		<clipPath id="SVGID_42_">
			<use xlink:href="#SVGID_41_"  style="overflow:visible;"/>
		</clipPath>
		<g transform="matrix(1 0 0 1 0 0)" style="clip-path:url(#SVGID_42_);">
			
				<image style="overflow:visible;" width="12" height="6" xlink:href="480588AD665655E7.jpg"  transform="matrix(0.2385 0 0 0.2385 18.6018 52.2991)">
			</image>
		</g>
	</g>
	<g>
		<defs>
			<polyline id="SVGID_43_" points="18.9,53.4 18.9,53.4 18.9,53.4 18.9,53.4 			"/>
		</defs>
		<clipPath id="SVGID_44_">
			<use xlink:href="#SVGID_43_"  style="overflow:visible;"/>
		</clipPath>
		<g transform="matrix(1 0 0 1 0 0)" style="clip-path:url(#SVGID_44_);">
			
				<image style="overflow:visible;" width="3" height="3" xlink:href="480588AD665655EA.jpg"  transform="matrix(0.2385 0 0 0.2385 18.6018 53.253)">
			</image>
		</g>
	</g>
	<g>
		<defs>
			<path id="SVGID_45_" d="M21.6,52.5h-0.3c-0.8,0.3-1.6,0.6-2.4,0.9l0,0C18.9,53.4,19.9,53.1,21.6,52.5"/>
		</defs>
		<clipPath id="SVGID_46_">
			<use xlink:href="#SVGID_45_"  style="overflow:visible;"/>
		</clipPath>
		<g transform="matrix(1 0 0 1 0 0)" style="clip-path:url(#SVGID_46_);">
			
				<image style="overflow:visible;" width="13" height="6" xlink:href="480588AD665655EB.jpg"  transform="matrix(0.2385 0 0 0.2385 18.6018 52.2991)">
			</image>
		</g>
	</g>
	<text transform="matrix(0.9988 -4.880000e-02 4.880000e-02 0.9988 75.8365 56.5121)"><tspan x="0" y="0" class="st2 st3 st4">C</tspan><tspan x="10" y="0" class="st2 st3 st4">ARN</tspan><tspan x="42" y="0" class="st2 st3 st4">E</tspan><tspan x="50.8" y="0" class="st2 st3 st4">T DE </tspan><tspan x="86.8" y="0" class="st2 st3 st4">L</tspan><tspan x="95.4" y="0" class="st2 st3 st4">A </tspan><tspan x="109.5" y="0" class="st2 st3 st4">P</tspan><tspan x="118.1" y="0" class="st2 st3 st4 st5">A</tspan><tspan x="127.6" y="0" class="st2 st3 st4">TRIA</tspan></text>
	<text transform="matrix(0.9988 -4.880000e-02 4.880000e-02 0.9988 37.899 113.0493)" class="st6 st7 st8">NOMBRES:</text>
	<text transform="matrix(0.9988 -4.880000e-02 4.880000e-02 0.9988 38.9566 134.6625)" class="st6 st7 st8">APELLIDOS:</text>
	<text transform="matrix(0.9988 -4.880000e-02 4.880000e-02 0.9988 39.8785 153.5453)" class="st6 st7 st8">C.I. :</text>
	<text transform="matrix(0.9988 -4.880000e-02 4.880000e-02 0.9988 40.7906 172.2006)"><tspan x="0" y="0" class="st6 st7 st8">F/ DE N</tspan><tspan x="30.2" y="0" class="st6 st7 st8">A</tspan><tspan x="36.1" y="0" class="st6 st7 st8">CIMIEN</tspan><tspan x="66.3" y="0" class="st6 st7 st8">T</tspan><tspan x="71" y="0" class="st6 st7 st8">O:        /      /</tspan></text>
	<text transform="matrix(0.9988 -4.880000e-02 4.880000e-02 0.9988 41.6685 190.1733)" class="st6 st7 st8">F/ EMISIÓN:        /       /  </text>
	
		<rect x="83.4" y="101.1" transform="matrix(0.9988 -4.879980e-02 4.879980e-02 0.9988 -4.9731 7.1089)" class="st9" width="119.3" height="8.7"/>
	
		<rect x="90.2" y="123" transform="matrix(0.9988 -4.879839e-02 4.879839e-02 0.9988 -6.0458 6.9228)" class="st9" width="97.1" height="8.7"/>
	
		<rect x="59.3" y="143.7" transform="matrix(0.9988 -4.879801e-02 4.879801e-02 0.9988 -7.1056 5.0312)" class="st9" width="80.5" height="8.7"/>
	
		<rect x="156.6" y="157.9" transform="matrix(0.9988 -4.878601e-02 4.878601e-02 0.9988 -7.7149 8.3957)" class="st9" width="23" height="8.7"/>
	
		<rect x="121.6" y="160.7" transform="matrix(0.9988 -4.878851e-02 4.878851e-02 0.9988 -7.9016 6.4206)" class="st9" width="11.9" height="8.7"/>
	
		<rect x="141.2" y="159.9" transform="matrix(0.9988 -4.877057e-02 4.877057e-02 0.9988 -7.8345 7.2923)" class="st9" width="8.7" height="8.7"/>
	
		<rect x="92.9" y="179.4" transform="matrix(0.9988 -4.878851e-02 4.878851e-02 0.9988 -8.8443 5.0406)" class="st9" width="11.9" height="8.7"/>
	
		<rect x="111.5" y="178.5" transform="matrix(0.9988 -4.882957e-02 4.882957e-02 0.9988 -8.7908 5.8724)" class="st9" width="8.7" height="8.7"/>
	
		<rect x="128.5" y="178.5" transform="matrix(0.9988 -4.880716e-02 4.880716e-02 0.9988 -8.7581 7.0495)" class="st9" width="23" height="8.7"/>
	<text transform="matrix(0.9988 -4.880000e-02 4.880000e-02 0.9988 81.4546 78.6332)"><tspan x="0" y="0" class="st6 st10 st11">REPÚBLI</tspan><tspan x="30.9" y="0" class="st6 st10 st11">C</tspan><tspan x="36.2" y="0" class="st6 st10 st11">A BOLI</tspan><tspan x="60.9" y="0" class="st6 st10 st11">V</tspan><tspan x="65.4" y="0" class="st6 st10 st11">ARIANA DE</tspan><tspan x="106.9" y="0" class="st6 st10 st11"> </tspan><tspan x="108.4" y="0" class="st6 st10 st11">VENEZUELA</tspan></text>
	<polygon class="st12" points="174.7,237.2 213.1,196.8 353.1,190 353.7,201.3 216.6,208 191.6,236.3 	"/>
	<polygon class="st13" points="191.6,236.3 206.5,235.6 221.6,219.1 354.2,212.6 353.7,201.3 216.6,208 	"/>
	<polygon class="st14" points="355,228.4 354.2,212.6 221.6,219.1 206.5,235.6 	"/>
	<polygon class="st15" points="24.9,61.9 25.5,60 26.8,61.6 29.3,61.5 27.5,63.3 28.2,65 26,64.2 24.3,65.6 24.6,63.8 22.4,62.4 	
		"/>
	<polygon class="st15" points="29.7,57.5 30.3,55.7 31.3,57.2 33.5,57.1 32,58.6 32.6,60.1 30.7,59.5 29.2,60.7 29.4,59.1 
		27.5,57.9 	"/>
	<polygon class="st15" points="34.6,54.3 35.2,52.6 36.2,54 38.3,54 36.8,55.4 37.4,56.8 35.6,56.2 34.1,57.4 34.4,55.9 32.5,54.7 	
		"/>
	<polygon class="st15" points="39.5,52.1 40,50.6 40.9,51.8 42.8,51.7 41.5,53 42,54.3 40.4,53.8 39.1,54.8 39.3,53.5 37.7,52.4 	
		"/>
	<polygon class="st15" points="44.7,51 45.1,49.7 45.9,50.7 47.5,50.7 46.4,51.8 46.8,52.8 45.4,52.4 44.4,53.3 44.5,52.1 
		43.1,51.3 	"/>
	
		<rect x="239.4" y="75.8" transform="matrix(0.9985 -5.489826e-02 5.489826e-02 0.9985 -6.7939 15.9209)" class="st16" width="94" height="111.7"/>
	<path class="st17" d="M266.9,157.8c0,0,5.4-5,5.7-12c0.4-7-2.5-17.7-2.1-21.1c0,0,1.3-6.9,0.6-8.6c-0.7-1.6-3.5-13.8,9.2-20.5
		c12.7-6.6,24.3-2.1,29.7,4.9s4.2,20,4.2,20l-2.1,6.2c0,0,2.3,0.5,4.7,4.5s6.8,24.7,9.3,27C328.5,160.6,267.8,168,266.9,157.8z"/>
	<path class="st18" d="M275.9,152.4c0,0,6.2-1.4,4.7-8.5c0,0,7.7,6.7,14.6,4.5c6.9-2.2,12.9-8.7,12.9-8.7s-2,9.2,0.8,10.8
		c2.8,1.7,4.7,2.3,4.7,2.3s-2.7,15.1-15.3,16.1C285.7,169.9,276,160.7,275.9,152.4z"/>
	<path class="st19" d="M284.7,99.4c-0.4-0.1-0.8-0.3-1.2-0.4c-0.4,0-0.8,0.1-1.2,0.3c-2.8,1.5-4.6,5.6-6.5,8.1c-1,1.4-4,4.4-3.6,6.4
		c0.4,1.8,2.1,10.7,2.1,10.7s-1.1-0.2-1.5,0.7c-0.4,0.9,0.5,9.4,2.1,9.8c0,0,6.5,16.2,16.1,14.9c9.5-1.3,17.7-7.5,19-15.3l0.9-5.1
		c0,0,4.8-1.5,4.6-5.7c-0.2-4.3-3.1-3.9-3.7-3.6c-0.6,0.3-0.6,0.3-0.6,0.3s-0.3-8.2-2.8-12s-9.8-9.9-13-10.1
		c-1.8-0.1-3.7,0.2-5.4,0.4C288.5,98.9,286,99.8,284.7,99.4z"/>
	<path class="st19" d="M256.1,161.4c7-2.8,9.6-2.2,9.6-2.2l1.5,30.6l-25,1.2C242.2,191.1,248.3,164.6,256.1,161.4z"/>
	<polyline class="st18" points="324,156.5 335.2,163 336.5,186.2 330.1,186.5 319.9,177.3 323.9,157.7 	"/>
	<path class="st20" d="M275.9,152.4c0,0-9.6,6.3-11.8,7.1c0,0,0.6,9.6-1.4,15.1c-2.1,5.4-5.7,16-5.7,16l73.2-4c0,0-5.8-8.5-5.9-11.8
		c-0.2-3.3-0.4-15.8-0.3-17.1c0.1-1.3,0.1-1.3,0.1-1.3s-9.4-2.2-10.4-3.6c0,0-2.1,12.6-12.1,15.5
		C291.4,171.2,278.5,164.4,275.9,152.4z"/>
	<path class="st6" d="M295.1,114.4l0-0.2c0.1-0.2,0.3-0.3,0.4-0.5c1.7-1.1,4.4-2.9,6.5-2.6c2.5,0.4,5.5,3.1,5.5,3.1
		s-2.1-1.1-4.3-1.5c-2.1-0.4-3.2,0.2-4.7,0.9C298.3,113.9,295,115.4,295.1,114.4z"/>
	<path class="st6" d="M287.2,115.4c-0.9-0.7-2.1-1.3-3.2-1.7c-2.1-0.8-3.8-0.7-5.5,0.7c-0.9,0.8-1.8,1.6-2.5,2.6c0,0,2.5-1.9,3.7-2
		c1.2-0.1,2.4,0.1,3.5,0.2C284.5,115.3,286.1,116.1,287.2,115.4z"/>
	<path class="st21" d="M286.8,138.6c0,0,3.8,1.7,6.8,1.2c3-0.5,5.9-1.9,5.9-1.9l-4.7-1.5l-3.2,0.7L286.8,138.6z"/>
	<path class="st22" d="M286.8,138.6c0,0,3.3-2.7,4.7-2.7c1.3,0,1,0.5,1.7,0.4c0.7-0.1,1.1-0.8,1.9-0.6c0.8,0.2,3.7,1.6,4.4,2.2
		c0,0-4.4-0.6-5.1-0.4c-0.7,0.2-1,0.5-1.8,0.3C291.6,137.5,286.8,138.6,286.8,138.6z"/>
	<path class="st17" d="M275.7,148.9c0,0-2.5,3.3-1.2,9.1c1.3,5.8,0.4,10.8,0.4,10.8s1.5-8,1.3-11.4c-0.2-3.3,3.7-7.8,3.7-7.8"/>
	<g>
		<path class="st23" d="M380.9,291.3c0-10.1,0-20.2,0-30.2c0-3.8,2-5.8,5.8-5.8c10.4,0,20.9,0,31.3,0c2.8,0,4.9,2,5.2,4.7
			c0.2,2.4-1.6,4.7-4.1,5.3c-0.5,0.1-1,0.1-1.4,0.1c-6.7,0-13.4,0.1-20.2,0c-3.1-0.1-5.6,2.3-5.4,5.5c0.1,3.4,0.1,6.8,0,10.2
			c-0.1,3,2.3,5.4,5.3,5.3c5.7-0.1,11.4-0.1,17,0c2.4,0,4.5,1.6,5,3.8c0.5,2.5-0.5,4.8-2.8,5.7c-0.8,0.3-1.7,0.4-2.6,0.4
			c-5.4,0-10.8,0-16.2,0c-3.8,0-5.7,1.9-5.7,5.8c0,3.3,0,6.6,0,10c0,3.3,2.1,5.4,5.4,5.4c6.8,0,13.7,0,20.5,0c2.5,0,4.4,1.4,5,3.6
			c0.9,3.1-1.5,6.3-4.9,6.3c-7.7,0-15.4,0-23,0c-2.9,0-5.8,0-8.8,0c-3.4,0-5.5-2-5.5-5.4C380.9,311.6,380.9,301.5,380.9,291.3z"/>
		<path class="st24" d="M299.8,327.2c-6.6,0-13.2,0-19.8,0c-2.1,0-3.9-0.7-4.9-2.6c-1.1-1.9-0.7-3.7,0.4-5.5
			c10.2-15.9,20.3-31.8,30.4-47.8c0.6-0.9,1-2.1,1-3.2c0-1.7-1.6-2.9-3.5-2.9c-7.1,0-14.2,0-21.2,0c-3.3,0-5.5-2.4-5.2-5.7
			c0.2-2.4,2.4-4.3,5.1-4.3c6.7,0,13.4,0,20,0c5.8,0,11.7,0,17.5,0c2.2,0,3.9,0.7,5,2.6c1.1,2,0.7,3.8-0.5,5.6
			c-8.3,12.9-16.5,25.9-24.8,38.9c-2,3.1-3.9,6.2-5.9,9.3c-0.8,1.3-1,2.5-0.3,3.8c0.7,1.3,1.9,1.8,3.4,1.8c7.8,0,15.6,0,23.4,0
			c2.6,0,4.5,1.4,5,3.6c0.8,3.4-1.4,6.3-4.9,6.3C313.3,327.2,306.5,327.2,299.8,327.2z"/>
		<path class="st23" d="M347.5,295.9c0-8.4,0-16.9,0-25.3c0-3.3-2-5.3-5.3-5.3c-2.7,0-5.4,0-8,0c-3,0-5.3-2.2-5.3-5.1
			c0-2.8,2.3-5,5.2-5c12.6,0,25.3,0,37.9,0c3,0,5.3,2.2,5.2,5.1c0,2.8-2.3,4.9-5.2,5c-2.7,0-5.4,0-8,0c-3.3,0-5.3,2-5.3,5.3
			c0,16.8,0,33.6,0,50.4c0,3.1-1.5,5.3-4.1,6c-3.6,1-7.1-1.5-7.1-5.3c-0.1-4.6,0-9.1,0-13.7C347.5,304,347.5,299.9,347.5,295.9z"/>
		<path class="st25" d="M371.1,340c2,0,3.9,0,6,0c0,2.9,0.1,5.6,0,8.4c-0.1,1.2-1.2,1.2-2.1,1.3c-1.2,0.1-1-1-1.2-1.7
			c0.6-0.4,1.9,0.2,1.6-1.2c-1.6,0-3.1,0-4.8,0c0,0.9,0,1.8,0,2.7c-0.7,0-1.2,0-1.8,0c0-1.9,0-3.8,0-5.9c-0.9,0.7-1.6,1.3-2.4,2
			c-0.4-0.6-0.8-1.1-1.2-1.7c1.8-1.1,3.2-2.6,4-4.7c-1.3,0-2.5,0-3.7,0c0-0.6,0-1.1,0-1.8c1,0,1.9-0.1,2.9,0c1.2,0.1,2-0.1,2-1.5
			c0.9,0.2,2-0.1,1.8,1.5c2.2,0,4.4,0,6.8,0c0,0.6,0.1,1.1,0.1,1.7c-2.3,0-4.5,0-6.6,0c-0.4,0-0.8,0.3-1.3,0.5
			C371,339.7,371.1,339.9,371.1,340z M375.2,344.1c-1.4,0-2.8,0-4.1,0c-0.2,0-0.4,0.3-0.6,0.5c0.2,0.2,0.5,0.5,0.7,0.5
			c1.2,0.1,2.3,0,3.5,0C375.4,345.2,375.5,344.8,375.2,344.1z M375.2,342.6c0.1-0.1,0.2-0.3,0.3-0.4c-0.3-0.2-0.5-0.6-0.8-0.6
			c-1.2-0.1-2.4-0.1-3.6,0c-0.2,0-0.4,0.3-0.6,0.5c0.2,0.2,0.4,0.5,0.6,0.5C372.5,342.6,373.8,342.6,375.2,342.6z"/>
		<path class="st25" d="M281.7,345.5c0,1.6,0,2.8,0,4.2c-0.7,0-1.4,0-2.1,0c0-1.3,0-2.6,0-4.1c-1.8,0.2-3.5,0.4-5.2,0.6
			c0-2.5,0-5,0-7.6c1.6,0,3.3,0,5.1,0c0-0.8,0-1.5,0-2.3c0.8,0,1.4,0,2.2,0c0,0.7,0,1.4,0,2.3c1.8,0,3.5,0,5.2,0c0,2.6,0,5,0,7.6
			C285.2,345.9,283.6,345.7,281.7,345.5z M281.8,340.6c0,1,0,2,0,2.9c1.1,0,2.2,0,3.2,0c0.2-3.8,0.4-2.9-2.6-3
			C282.2,340.5,282.1,340.5,281.8,340.6z M276.3,340.6c0,1,0,1.9,0,2.9c1.1,0,2.1,0,3.2,0c0-1,0-1.9,0-2.9
			C278.4,340.6,277.4,340.6,276.3,340.6z"/>
		<path class="st25" d="M308.6,346.9c0-2.5,0-4.9,0-7.5c0.9,0,1.7,0,2.7,0c-0.5-0.4-0.7-0.6-1.1-0.9c0.3-0.2,0.5-0.4,1-0.7
			c-0.8,0-1.3,0-1.9,0c0-0.6,0-1.1,0-1.7c2.2,0,4.5,0,6.7,0c0.2,0,0.6,0.4,0.7,0.7c0.1,0.2-0.1,0.7-0.3,0.8c-0.6,0.5-1.2,1-2,1.7
			c1.1,0,2,0,3,0c0,2.2,0.1,4.3,0,6.4c-0.1,0.9-0.9,1.4-1.8,1.4c-0.4,0-0.7-0.6-1.1-1c0.6-0.4,0.9-0.6,1.3-0.8c0-0.1,0-0.2,0-0.3
			c-0.5,0-0.9-0.1-1.5-0.1c0,0.8-0.1,1.4-0.1,2.1c-0.6,0-1.1,0-1.8,0c0-0.7-0.1-1.3-0.1-2.1c-0.5,0-1,0-1.5,0c0,0.6-0.1,1.1-0.1,1.7
			C309.7,346.8,309.2,346.9,308.6,346.9C308.6,346.9,308.6,346.9,308.6,346.9z M314.7,344c0.4-0.3,0.6-0.5,0.8-0.7
			c-0.3-0.1-0.6-0.4-0.9-0.4c-0.2,0-0.5,0.2-0.7,0.4C314.1,343.5,314.4,343.7,314.7,344z M311.2,344c0.3-0.3,0.6-0.5,0.8-0.7
			c-0.3-0.2-0.6-0.4-0.9-0.4c-0.3,0-0.5,0.3-0.8,0.4C310.6,343.5,310.9,343.7,311.2,344z M314.7,341.9c0.4-0.3,0.6-0.5,0.9-0.7
			c-0.3-0.1-0.5-0.4-0.8-0.4c-0.3,0-0.5,0.3-0.8,0.4C314.1,341.3,314.3,341.5,314.7,341.9z M311.2,341.8c0.3-0.3,0.6-0.5,0.8-0.7
			c-0.3-0.1-0.5-0.4-0.8-0.4c-0.3,0-0.6,0.3-0.9,0.5C310.6,341.4,310.8,341.6,311.2,341.8z"/>
		<path class="st25" d="M389.8,346.9c0.3,1.2-0.2,1.8-1.5,1.9c-0.9,0.1-1.8,0.4-2.9,0.6c-0.1-0.6-0.2-1-0.3-1.6
			c1.2-0.1,1.3-0.8,1.2-1.7c0-3.2,0-6.5,0-9.8c2.2,0,4.3,0,6.5,0c0,2.1,0,4.2,0,6.5c-0.8-0.1-1.5-0.2-2.4-0.2
			c0.1,0.6,0.2,1.1,0.3,1.8c0.6-0.5,1-0.8,1.5-1.2c0.4,0.3,0.9,0.6,1.4,1c-0.8,0.6-1.4,1.2-2.3,1.9c0.9,0.7,1.8,1.4,2.7,2.1
			c-0.2,0.4-0.5,0.9-1,1.6c-0.8-0.8-1.6-1.4-2.3-2.1C390.4,347.4,390.1,347.2,389.8,346.9c-0.4-1.4-0.9-2.9-1.3-4.3
			c-0.1,0-0.2,0-0.3,0.1c0,1.5,0,2.9,0,4.5C388.7,347.1,389.2,347,389.8,346.9z M391.1,341.1c0-0.9,0-1-0.8-0.9
			c-0.7,0.1-1.9-0.7-2.3,0.9C389.1,341.1,390.1,341.1,391.1,341.1z M387.8,337.8c0.7,1.4,1.8,0.7,2.7,0.9c0.2,0,0.5-0.4,0.8-0.6
			c-0.1-0.1-0.1-0.2-0.2-0.3C390.1,337.8,389.2,337.8,387.8,337.8z"/>
		<path class="st25" d="M325.9,349.2c0-1.8,0-3.6,0-5.4c-0.6-0.1-1.1-0.1-1.6-0.1c0-0.6,0-1,0-1.6c0.5,0,1-0.1,1.5-0.1
			c0-1.3,0-2.5,0-3.8c-0.4,0-0.8-0.1-1.3-0.2c0-0.5,0-1,0-1.6c2.2,0,4.5,0,7.1,0c0,3.3,0,6.7,0,10c0.1,0,0.3,0,0.4,0
			c0.2-0.3,0.3-0.6,0.7-1.2c0.3,0.6,0.9,1.1,0.8,1.5c-0.2,0.9-0.6,1.8-1.1,2.6c0,0.1-1.1-0.2-1.2-0.5c-0.5-1.4-1.1-2.8-1.2-4.2
			c-0.2-2.2-0.1-4.4-0.1-6.6c-0.9,0-1.5,0-2.2,0c0,1.2,0,2.5,0,3.8c0.5,0.1,1.1,0.1,1.6,0.2c0,0.5,0,1,0,1.5
			c-0.5,0.1-1.1,0.1-1.7,0.2c0,1.8,0,3.5,0,5.4C327.1,349.2,326.6,349.2,325.9,349.2z"/>
		<path class="st26" d="M340.8,348.2c-0.2,0.1-0.4,0.2-0.5,0.4c-0.4,0.9-1.2,1.1-2,0.9c-0.4-0.1-0.7-0.8-1-1.3
			c1.5-0.5,1.6-1,1.2-3.3c-0.9-0.3-1.5-0.2-1.6,1.1c0,1.1-0.3,2.3-0.5,3.5c-0.6-0.2-1.1-0.4-1.4-0.4c0.2-4.3,0.3-8.5,0.4-12.8
			c1.6,0,3.2,0,4.9,0c0,0.4,0,0.9,0,1.3c0,3.1,0,6.1,0,9.2C340.5,347.3,340.7,347.7,340.8,348.2
			C340.8,348.2,340.8,348.2,340.8,348.2z M337.2,339.8c0.6,0,1,0,1.5,0c0-0.6,0-1.2,0-1.7c-0.5,0-1,0-1.5,0
			C337.2,338.7,337.2,339.2,337.2,339.8z M337.2,343.4c0.6-0.2,1.2-0.2,1.5-0.5c0.2-0.2,0.2-1,0-1.2c-0.3-0.3-0.9-0.2-1.4-0.3
			C337.2,342.1,337.2,342.6,337.2,343.4z"/>
		<path class="st25" d="M382.4,346.6c0,0.9,0,1.8,0,2.8c-0.6,0-1.1,0-1.7,0c0-4.3,0-8.7,0-13.2c1.5,0,3,0,4.5,0c0.2,0,0.5,0.6,0.6,1
			c0,0.3-0.2,0.6-0.3,0.9c-0.7,1.4-1.1,2.7-0.1,4.4c1.1,1.7,0.4,3.4-1.3,4.2c-0.7,0.4-1,0.2-1.3-0.5c-0.1-0.3-0.2-0.7-0.3-1
			c1.5-0.8,1.7-1.6,0.8-3.1c-0.4-0.7-0.8-1.3-0.5-2.2c0.2-0.6,0.2-1.3,0.3-2c-0.1,0-0.4,0-0.8,0C382.4,341,382.4,343.8,382.4,346.6z
			"/>
		<path class="st25" d="M421,338c-3.7,0-7.2,0-10.8,0c0-0.6,0-1.1,0-1.7c4.2,0,8.3,0,12.6,0c0,1,0,1.9,0,2.8c0,2.7-0.1,5.4,0,8
			c0.1,1.5-0.9,2.4-2.5,2.3c-0.5,0-0.9-1.1-1.4-1.8c2-0.4,2-0.4,2-2.1C421,343.2,421,340.7,421,338z"/>
		<path class="st26" d="M308.6,346.9c1,0.3,2,0.7,3,0.8c1.8,0.1,3.5,0,5.3-0.1c0.4,0,0.9,0,1.3,0c-0.1,1.2-0.4,2-1.8,1.9
			c-2.1-0.1-4.2,0-6.2-0.2c-1.1-0.1-2.2-0.6-3.5-1c-0.3,0.2-0.8,0.6-1.3,1.1c-0.4-0.6-0.7-1.1-1.1-1.8c1.7-0.4,1.5-1.6,1.5-2.7
			c0-0.9,0-1.8,0-2.8c-0.4-0.1-0.8-0.2-1.2-0.2c0-0.5,0-0.9,0-1.4c1,0,2,0,3.1,0c0,1.6,0,3.3,0,4.9
			C307.6,346,307.8,346.7,308.6,346.9C308.6,346.9,308.6,346.9,308.6,346.9z"/>
		<path class="st23" d="M300,336.1c0.5,0.2,1.1,0.5,1.8,0.8c-0.7,1.7-1.3,3.4-2.1,5.2c0.9,0,1.7,0,2.7,0c0,0.7,0,1.3,0,2
			c-4.5,0-9,0-13.5,0c0-0.6,0-1.1,0-1.9c2.3,0,4.6-0.1,6.9,0c1.2,0.1,1.8-0.4,2.2-1.4C298.6,339.3,299.3,337.8,300,336.1z"/>
		<path class="st25" d="M355.4,341.6c2.3,0,4.7,0,7,0c0.1,0.1,0.1,0.1,0.2,0.2c-0.1,1.8-0.1,3.5-0.3,5.3c0,0.5-0.2,0.9-0.4,1.4
			c-0.4,1-1.4,1.4-2.2,1.2c-0.5-0.1-0.8-1-1.2-1.6c2.2-0.5,2.5-1.1,2.1-4.7c-0.6,0-1.2,0-1.9,0c-0.2,2.4-0.9,4.6-3,6.2
			c-0.4-0.4-0.8-0.8-1.3-1.2c1.6-1.2,2.3-2.9,2.5-4.9c-0.5-0.1-0.9-0.1-1.4-0.2C355.4,342.7,355.4,342.1,355.4,341.6L355.4,341.6z"
			/>
		<path class="st25" d="M407.8,348.6c-0.7,0.4-1.3,0.6-1.9,0.9c-1-1.4-1-1.4-2.8-1.2c-1.4,0.2-2.8,0.4-4.2,0.6
			c-2,0.3-2.1,0.2-2.5-2.1c2.3,0.8,2.5-1.1,3-2.5c0.4-1.1,0.8-2.1,1.2-3.3c0.7,0.2,1.3,0.4,2,0.6c-0.7,1.7-1.5,3.4-2.2,5.1
			c1.3-0.1,2.4-0.2,3.7-0.3c-0.3-0.6-0.5-1.1-0.7-1.5c1.4-0.9,1.5-0.9,2.4,0.4C406.5,346.4,407.1,347.5,407.8,348.6z"/>
		<path class="st25" d="M340.8,348.2C340.8,348.2,340.8,348.2,340.8,348.2c0.8-0.6,1.6-1,2.5-1.6c-0.8-1-1.6-1.9-2.3-2.9
			c-0.2-0.3-0.1-0.8-0.2-1.4c2.1,0,4.2,0,6.2,0c0.7,0,0.9,0.5,0.7,1.1c-0.5,1.1-1.1,2.2-1.7,3.5c0.8,0.4,1.6,0.9,2.6,1.4
			c-0.3,0.5-0.5,0.9-0.9,1.5c-0.8-0.5-1.6-0.8-2.3-1.3c-0.5-0.4-0.9-0.5-1.5,0c-0.3,0.2-0.6,0.4-0.9,0.6
			C341.5,349.8,341.5,349.8,340.8,348.2z M343.4,343.9c0.4,0.7,0.7,1.2,1.1,1.9c0.5-0.7,0.9-1.2,1.4-1.9
			C345,343.9,344.3,343.9,343.4,343.9z"/>
		<path class="st26" d="M422.8,354.5c0,2.3,0,4.5,0,7.1c-0.7-0.3-1.3-0.4-1.7-0.7c-1.2-1.3-2.4-2.6-3.5-3.9
			c-0.2,0.1-0.3,0.2-0.5,0.3c0,1.3,0,2.6,0,4.1c-0.6,0-1,0-1.6,0c0-2.3,0-4.5,0-7.1c0.8,0.4,1.5,0.5,1.9,1c1.2,1.1,2.2,2.4,3.3,3.6
			c0.1-0.1,0.3-0.2,0.4-0.3c0-1.3,0-2.6,0-3.9C421.8,354.5,422.3,354.5,422.8,354.5z"/>
		<path class="st26" d="M338.2,358.6c0.7,0.9,1.2,1.8,1.8,2.6c-1.3,0.5-2.1-0.1-2.7-1.1c-0.6-1-1.2-2.1-2.8-1.4c0,0.8,0,1.6,0,2.6
			c-0.5,0-1,0-1.5,0.1c0-2.3,0-4.5,0-6.8c1.8,0,3.5-0.1,5.3,0.1c0.6,0.1,1.2,0.9,1.5,1.5c0.3,0.8-0.1,1.5-0.9,2
			C338.7,358.4,338.5,358.5,338.2,358.6z M334.6,357.3c1,0,1.9,0.1,2.9,0c0.3,0,0.7-0.5,0.7-0.7c0-0.3-0.4-0.7-0.7-0.8
			c-1-0.1-1.9,0-2.9,0C334.6,356.4,334.6,356.8,334.6,357.3z"/>
		<path class="st26" d="M295.7,354.5c2.3,0,4.4,0,6.6,0c0,0.4,0,0.8,0,1.2c-1.6,0-3.2,0-4.9,0c0,0.5-0.1,0.9-0.1,1.4
			c1.4,0,2.8,0,4.3,0c0,0.5,0.1,0.9,0.1,1.4c-1.5,0-2.9,0-4.3,0c0,0.6,0,1,0,1.5c1.6,0,3.1,0,4.8,0c0,0.5,0.1,0.9,0.1,1.4
			c-2,0-3.8,0.1-5.7-0.1c-0.3,0-0.9-0.7-0.9-1.1C295.7,358.4,295.7,356.6,295.7,354.5z"/>
		<path class="st25" d="M353,336.1c0.4,0.1,0.9,0.3,1.5,0.5c-1.4,4.3-0.4,8.7-0.8,13.1c-0.6,0-1.1,0-1.7,0c0-2.1,0-4.2,0-6.6
			c-0.4,0.3-0.6,0.5-1.1,1c-0.2-0.8-0.7-1.7-0.5-2.2C351.1,339.9,352,338.1,353,336.1z"/>
		<path class="st25" d="M373.3,361.3c-1.5,0.5-2.2-0.2-2.8-1.2c-0.6-1-1.3-1.9-2.8-1.3c0,0.8,0,1.6,0,2.6c-0.5,0-1,0-1.5,0
			c0-2.3,0-4.5,0-6.9c1.4,0,2.7,0,4.1,0c1.2,0,2.3,0.3,2.7,1.6c0.4,1.3-0.4,2-1.6,2.6C372.1,359.5,372.7,360.3,373.3,361.3z
			 M367.8,357.4c1,0,2,0.1,2.9,0c0.3,0,0.6-0.5,0.8-0.8c-0.3-0.2-0.5-0.7-0.8-0.7c-0.9-0.1-1.9,0-2.9,0
			C367.8,356.4,367.8,356.8,367.8,357.4z"/>
		<path class="st23" d="M411.6,342c2.4,0,4.7,0,7.2,0c0,1.6,0,3.2,0,4.9c-1.4,0-2.7,0-4.1,0c-0.5,0-1.2-0.2-1.5,0.6
			c-0.1,0.2-0.9,0.1-1.5,0.2C411.6,345.8,411.6,344,411.6,342z M417,343.8c-0.1-0.1-0.2-0.1-0.3-0.1c-0.7,0-1.4,0-2.1,0
			c-1.4,0-1.5,0.1-1.1,1.6c1.2,0,2.3,0,3.5,0C417,344.6,417,344.2,417,343.8z"/>
		<path class="st26" d="M358.2,361.5c-2.2,0-4.2-1.7-4.2-3.6c0-1.9,1.9-3.6,4.1-3.6c2.3,0,4.2,1.7,4.2,3.6
			C362.3,359.8,360.4,361.5,358.2,361.5z M360.6,358c0-1.2-1.2-2.4-2.4-2.4c-1.3,0-2.4,1.1-2.5,2.3c0,1.2,1.1,2.3,2.4,2.4
			C359.4,360.3,360.6,359.2,360.6,358z"/>
		<path class="st26" d="M407.5,354.3c2.2,0,4.1,1.6,4.1,3.5c0,2-1.9,3.7-4.1,3.7c-2.2,0-4-1.6-4.1-3.6
			C403.4,356,405.2,354.3,407.5,354.3z M405.1,357.9c0,1.3,1,2.3,2.4,2.4c1.3,0,2.5-1.1,2.5-2.3c0-1.2-1.1-2.4-2.4-2.4
			C406.2,355.6,405.1,356.6,405.1,357.9z"/>
		<path class="st26" d="M324.9,361.5c-2.2,0-4-1.6-4.1-3.5c0-2,1.8-3.6,4.1-3.7c2.3,0,4.1,1.6,4.1,3.6
			C329,359.9,327.1,361.5,324.9,361.5z M327.4,358c0-1.2-1.1-2.3-2.4-2.4c-1.3,0-2.4,1-2.4,2.3c0,1.3,1,2.3,2.4,2.4
			C326.2,360.3,327.3,359.2,327.4,358z"/>
		<path class="st26" d="M278.2,355.8c-1.4,0-2.5,0-3.8,0c0-0.4-0.1-0.8-0.1-1.2c2.3,0,4.5,0,7.1,0c-1.7,1.9-3.2,3.6-4.8,5.5
			c1.5,0,2.8,0,4.1,0c0.4,1,0.3,1.5-0.8,1.4c-1.5,0-3,0-4.4,0c-0.4,0-0.9-0.2-1.2-0.5c-0.1-0.1,0.2-0.8,0.4-1.1
			C275.8,358.5,276.9,357.3,278.2,355.8z"/>
		<path class="st26" d="M385.1,361.3c-1,0.2-1.8,0.2-2.1-0.8c-0.1-0.2-0.5-0.4-0.8-0.5c-0.7-0.1-1.4-0.1-2.2,0
			c-0.3,0-0.8,0.3-0.9,0.5c-0.4,1-1.1,1-2.1,0.7c1.1-2.2,2.2-4.3,3.3-6.4c0.4-0.7,1.3-0.6,1.6,0.1
			C382.9,357,383.9,359.1,385.1,361.3z M382,358.8c-0.3-0.7-0.6-1.3-1-2.1c-0.4,0.8-0.7,1.4-1.1,2.1
			C380.7,358.8,381.2,358.8,382,358.8z"/>
		<path class="st26" d="M346.7,340c0.2-0.3,0.3-0.7,0.6-1.1c0.4,0.1,0.9,0.3,1.3,0.4c0,2.1-1.1,2.9-3,2.3c-0.4-0.1-0.7-0.8-0.8-1.2
			c-0.1-0.7,0-1.5,0-2.3c-0.4,0-0.7,0-1.1-0.1c-0.2,1.4,0,3-1.4,4c-0.4-0.3-0.8-0.6-1-0.7c0.3-1.7,0.6-3.3,0.8-4.9
			c1.3,0,2.8,0,4.3,0c0,1.2,0,2.4,0,3.5C346.5,340,346.6,340,346.7,340z"/>
		<path class="st26" d="M317.8,360.2c-1.6,1.1-3.3,1.7-5.2,1.1c-1.8-0.6-2.7-2-2.5-3.9c0.1-1.5,1.4-2.9,3.1-3
			c1.2-0.1,2.5,0.3,3.7,0.6c0.2,0,0.3,0.5,0.4,0.8c-0.3,0.1-0.6,0.3-0.9,0.3c-1-0.1-2-0.4-2.9-0.3c-1.2,0.1-1.9,1.1-1.8,2.3
			c0.1,1.2,0.8,2,2.1,2.1c0.9,0,1.8-0.2,2.6-0.5C317.1,359.3,317.4,359.5,317.8,360.2z"/>
		<path class="st25" d="M344.2,361.4c0-2.3,0-4.5,0-6.8c1.7,0,3.3-0.1,4.9,0c1.2,0.1,1.9,1,1.8,2.1c-0.1,1-0.9,1.9-2.1,1.9
			c-1,0.1-2.1,0-3.2,0c0,1,0,1.8,0,2.7C345.1,361.4,344.6,361.4,344.2,361.4z M345.7,357.4c1,0,2,0.1,2.9,0c0.3,0,0.6-0.5,0.8-0.8
			c-0.3-0.2-0.5-0.7-0.8-0.7c-0.9-0.1-1.9,0-2.9,0C345.7,356.4,345.7,356.8,345.7,357.4z"/>
		<path class="st26" d="M323,346.7c0.6-0.1,1.1-0.2,1.5-0.3c0.4,1.1,0.1,1.8-1.1,2c-0.8,0.2-1.6,0.6-2.4,0.9c-0.3-0.7-1.1-1.2,0-1.9
			c0.1-0.1,0.1-0.4,0.1-0.6c0-1.5,0-2.9,0-4.5c-0.5-0.1-0.9-0.1-1.3-0.2c0-0.5,0-0.9,0-1.5c1,0,2,0,3.2,0
			C323,342.7,323,344.6,323,346.7z"/>
		<path class="st26" d="M387.1,355.8c0-0.6,0-0.9,0.1-1.3c2.3,0,4.6,0,6.9,0c0,0.4,0,0.8,0,1.2c-0.8,0-1.7,0-2.7,0
			c0,1.5-0.1,2.9,0,4.4c0.1,1.1-0.3,1.6-1.6,1.2c0-1.8,0-3.6,0-5.5C388.9,355.8,388,355.8,387.1,355.8z"/>
		<path class="st26" d="M287.6,355.7c-1,0-1.8,0-2.6,0c0-0.4,0-0.8,0-1.2c2.3,0,4.5,0,6.9,0c0,0.4,0,0.7,0,1.2c-0.8,0-1.7,0-2.6,0
			c0,1.9,0,3.7,0,5.6c-0.6,0-1,0.1-1.6,0.1C287.6,359.6,287.6,357.7,287.6,355.7z"/>
		<path class="st25" d="M408.8,341.5c-0.4,0.6-0.8,1.1-1.2,1.5c-2.3-1-4.4-3.7-5-6.4c0.5-0.2,1.1-0.4,1.7-0.6
			C405.2,338.4,406.6,340.3,408.8,341.5z"/>
		<path class="st23" d="M410.6,340.9c0-0.6,0-1,0-1.6c3.1,0,6.1,0,9.2,0c0,0.5,0,1,0,1.6C416.7,340.9,413.7,340.9,410.6,340.9z"/>
		<path class="st25" d="M395.4,342.2c1.3-1.8,2.6-3.5,3.9-5.4c0.3,0.1,0.8,0.3,1.4,0.6c-0.8,2.4-2.1,4.4-4.1,6.1
			C396.1,343,395.6,342.5,395.4,342.2z"/>
		<path class="st25" d="M298.2,344.4c1.7,1.3,3,2.4,4.5,3.6c-0.3,0.5-0.7,1-1.1,1.6c-1.6-0.9-3.1-1.9-4-3.5
			C297.4,345.8,297.9,345.1,298.2,344.4z"/>
		<path class="st25" d="M292.8,344.6c0.4,0.3,0.8,0.7,1.5,1.3c-1.5,1.4-2.9,2.6-4.4,3.9c-0.5-0.8-0.9-1.4-1.2-1.9
			C290.1,346.8,291.4,345.8,292.8,344.6z"/>
		<path class="st26" d="M399.4,361.4c-0.5,0-0.9,0-1.5,0c0-2.3,0-4.5,0-6.9c0.4,0,0.9,0,1.5,0C399.4,356.8,399.4,359,399.4,361.4z"
			/>
		<path class="st26" d="M362.6,341.8c-0.1-0.1-0.1-0.1-0.2-0.2c-1.3-1.5-2.6-3-3.1-5.1c0.5-0.2,1-0.4,1.3-0.5c1.1,1.6,2.2,3,3.4,4.8
			C363.7,341.1,363.1,341.5,362.6,341.8z"/>
		<path class="st25" d="M295.4,341.6c-0.7-1.7-1.4-3.3-2.1-5c0.4-0.2,0.9-0.5,1.6-0.9c0.8,1.7,1.5,3.3,2.3,5
			C296.5,341,295.9,341.3,295.4,341.6z"/>
		<path class="st26" d="M355.4,341.6c-0.5,0.4-0.9,0.2-1.1-0.3c-0.1-0.3-0.3-0.8-0.2-1c0.9-1.3,1.8-2.5,2.8-3.9
			c0.2,0.1,0.7,0.3,1.1,0.6C357.8,338.9,356.6,340.2,355.4,341.6C355.4,341.6,355.4,341.6,355.4,341.6z"/>
		<path class="st25" d="M292.1,341.9c-0.8-1.4-1.6-2.7-2.5-4.1c0.4-0.3,0.8-0.6,1.4-1.1c0.9,1.2,1.7,2.3,2.5,3.5
			C293.8,340.9,293.6,341.2,292.1,341.9z"/>
		<path class="st27" d="M382.4,346.6c0-2.8,0-5.6,0-8.5c0.4,0,0.7,0,0.8,0c-0.1,0.7-0.1,1.4-0.3,2c-0.3,0.9,0.1,1.5,0.5,2.2
			c0.9,1.5,0.7,2.3-0.8,3.1c0.1,0.3,0.2,0.7,0.3,1C382.6,346.5,382.5,346.6,382.4,346.6z"/>
		<path class="st26" d="M321.2,336.2c0.8,0.8,1.4,1.4,2.2,2.1c-0.5,0.4-0.9,0.8-1.4,1.2c-0.7-0.7-1.3-1.3-2-2.1
			C320.4,336.9,320.7,336.6,321.2,336.2z"/>
		<path class="st26" d="M306.3,335.9c0.6,0.6,1.2,1.1,1.8,1.7c-0.5,0.4-0.9,0.8-1.3,1.2c-0.6-0.6-1.1-1.1-1.7-1.7
			C305.5,336.7,305.8,336.4,306.3,335.9z"/>
		<path class="st27" d="M375.2,344.1c0.2,0.7,0.2,1.1-0.6,1.1c-1.2,0-2.3,0-3.5,0c-0.2,0-0.5-0.3-0.7-0.5c0.2-0.2,0.4-0.5,0.6-0.5
			C372.5,344.1,373.9,344.1,375.2,344.1z"/>
		<path class="st27" d="M281.8,340.6c0.3,0,0.4-0.1,0.6-0.1c3,0.1,2.8-0.8,2.6,3c-1,0-2.1,0-3.2,0
			C281.8,342.5,281.8,341.6,281.8,340.6z"/>
		<path class="st27" d="M276.3,340.6c1.1,0,2.1,0,3.2,0c0,1,0,1.9,0,2.9c-1.1,0-2.1,0-3.2,0C276.3,342.5,276.3,341.6,276.3,340.6z"
			/>
		<path class="st27" d="M314.7,344c-0.3-0.3-0.6-0.5-0.8-0.7c0.2-0.1,0.5-0.4,0.7-0.4c0.3,0,0.6,0.3,0.9,0.4
			C315.3,343.5,315.1,343.7,314.7,344z"/>
		<path class="st27" d="M311.2,344c-0.4-0.3-0.6-0.5-0.9-0.7c0.3-0.2,0.5-0.4,0.8-0.4c0.3,0,0.6,0.3,0.9,0.4
			C311.8,343.5,311.6,343.7,311.2,344z"/>
		<path class="st27" d="M314.7,341.9c-0.3-0.3-0.6-0.5-0.8-0.7c0.3-0.1,0.5-0.4,0.8-0.4c0.3,0,0.5,0.3,0.8,0.4
			C315.3,341.3,315,341.6,314.7,341.9z"/>
		<path class="st27" d="M311.2,341.8c-0.4-0.3-0.6-0.5-0.9-0.7c0.3-0.2,0.6-0.4,0.9-0.5c0.3,0,0.5,0.3,0.8,0.4
			C311.8,341.4,311.5,341.6,311.2,341.8z"/>
		<path class="st27" d="M389.8,346.9c-0.5,0.1-1.1,0.2-1.6,0.3c0-1.6,0-3.1,0-4.5c0.1,0,0.2,0,0.3-0.1
			C388.9,344,389.3,345.4,389.8,346.9C389.8,346.9,389.8,346.9,389.8,346.9z"/>
		<path class="st27" d="M337.2,339.8c0-0.6,0-1.1,0-1.7c0.5,0,0.9,0,1.5,0c0,0.5,0,1.1,0,1.7C338.2,339.8,337.8,339.8,337.2,339.8z"
			/>
		<path class="st27" d="M337.2,343.4c0-0.8,0-1.3,0-2c0.6,0.1,1.1,0.1,1.4,0.3c0.2,0.2,0.2,1,0,1.2
			C338.4,343.2,337.8,343.2,337.2,343.4z"/>
		<path class="st27" d="M343.4,343.9c0.9,0,1.6,0,2.5,0c-0.5,0.7-0.9,1.2-1.4,1.9C344.1,345.1,343.8,344.5,343.4,343.9z"/>
		<path class="st27" d="M334.6,357.3c0-0.5,0-0.9,0-1.6c1,0,2-0.1,2.9,0c0.3,0,0.7,0.5,0.7,0.8c0,0.3-0.4,0.7-0.7,0.7
			C336.5,357.4,335.6,357.3,334.6,357.3z"/>
		<path class="st27" d="M367.8,357.4c0-0.6,0-1,0-1.6c1,0,2-0.1,2.9,0c0.3,0,0.6,0.4,0.8,0.7c-0.3,0.3-0.5,0.8-0.8,0.8
			C369.7,357.4,368.8,357.4,367.8,357.4z"/>
		<path class="st27" d="M417,343.8c0,0.4,0,0.9,0,1.4c-1.2,0-2.4,0-3.5,0c-0.4-1.5-0.3-1.6,1.1-1.6c0.7,0,1.4,0,2.1,0
			C416.8,343.6,416.9,343.7,417,343.8z"/>
		<path class="st27" d="M382,358.8c-0.8,0-1.3,0-2.1,0c0.4-0.7,0.7-1.3,1.1-2.1C381.4,357.5,381.6,358.1,382,358.8z"/>
		<path class="st27" d="M345.7,357.4c0-0.5,0-1,0-1.6c1,0,1.9-0.1,2.9,0c0.3,0,0.6,0.4,0.8,0.7c-0.3,0.3-0.5,0.8-0.8,0.8
			C347.6,357.4,346.7,357.4,345.7,357.4z"/>
	</g>
</g>
</svg>
