<?xml version="1.0" encoding="utf-8"?>
<!-- Generator: Adobe Illustrator 23.0.1, SVG Export Plug-In . SVG Version: 6.00 Build 0)  -->
<svg version="1.1" id="Layer_1" xmlns="http://www.w3.org/2000/svg" xmlns:xlink="http://www.w3.org/1999/xlink" x="0px" y="0px"
	 viewBox="0 0 260.7 365.3" style="enable-background:new 0 0 260.7 365.3;" xml:space="preserve">
<style type="text/css">
	.st0{fill:#7A5141;}
	.st1{fill:#8E5D4E;}
	.st2{fill:#A3695B;}
	.st3{fill:none;stroke:#3A3433;stroke-width:1.0846;stroke-miterlimit:10;}
	.st4{fill:#4C4446;}
	.st5{fill:#695E62;}
	.st6{fill:#9A6259;}
	.st7{fill:#E0C8C3;}
	.st8{fill:#D1BCB8;}
	.st9{fill:none;}
	.st10{opacity:0.98;enable-background:new    ;}
	.st11{fill:#BB3126;}
	.st12{font-family:'MyriadPro-Regular';}
	.st13{font-size:342px;}
</style>
<rect class="st0" width="243.5" height="365.3"/>
<rect x="8.2" y="8.4" class="st1" width="226.5" height="356.9"/>
<rect x="32.9" y="34.9" class="st2" width="73.5" height="125.3"/>
<rect x="134.4" y="34.9" class="st2" width="73.5" height="125.3"/>
<rect x="32.8" y="183.1" class="st2" width="73.5" height="125.3"/>
<rect x="135.3" y="183.1" class="st2" width="73.5" height="125.3"/>
<path class="st3" d="M194.7,220.8c0,0,12.1-32.4,19.9-31.6c0,0,5.4-1.3,8.3,2.5c3,3.8,9.1,24.7,10.1,29.1"/>
<circle class="st4" cx="217" cy="194" r="10.1"/>
<path class="st5" d="M216.2,185.7c0,0-7.6,3-7.1,7.6c0.5,4.7,2.3,7.3,4.8,8.2C213.8,201.5,208.1,192.4,216.2,185.7z"/>
<polygon class="st6" points="106.3,38.7 37.9,38.7 37.9,155.6 106.3,155.6 106.4,160.2 32.9,160.2 32.9,34.9 106.4,34.9 "/>
<polygon class="st6" points="207.8,38.7 139.4,38.7 139.4,155.6 207.8,155.6 207.9,160.2 134.4,160.2 134.4,34.9 207.9,34.9 "/>
<polygon class="st6" points="106.3,186.9 37.9,186.9 37.9,303.8 106.3,303.8 106.4,308.4 32.9,308.4 32.9,183.1 106.4,183.1 "/>
<polygon class="st6" points="208.3,186.9 139.8,186.9 139.8,303.8 208.3,303.8 208.3,308.4 134.8,308.4 134.8,183.1 208.3,183.1 "/>
<polygon class="st7" points="258,249.9 173,249.9 173,220.8 199,220.8 258,220.8 "/>
<path class="st8" d="M174.3,246.4v-24h16.3v1.4C190.6,223.7,171.7,215.6,174.3,246.4z"/>
<rect x="185.3" y="230.4" class="st9" width="75.4" height="23.6"/>
<g class="st10">
	<path d="M187,236.3v0.6c0,0.6,0.8,1,1.7,1c1,0,1.7-0.5,1.7-1.3c0-1-1-1.3-2-1.7c-1.1-0.4-2.2-0.9-2.2-2.4c0-1.6,1.3-2.3,2.7-2.3
		c1.3,0,2.6,0.5,2.6,1.4v1h-1.1v-0.6c0-0.5-0.8-0.8-1.5-0.8c-0.8,0-1.5,0.4-1.5,1.2c0,0.9,0.9,1.2,1.8,1.6c1.2,0.5,2.5,1,2.5,2.5
		c0,1.6-1.3,2.5-2.9,2.5c-1.3,0-2.8-0.6-2.8-1.8v-0.9L187,236.3L187,236.3z"/>
	<path d="M192.9,237.9h1v-6.6h-1v-0.9h6.1v2h-1v-1h-2.8v2.7h3v1h-3v2.8h3v-1h1v2h-6.3L192.9,237.9L192.9,237.9z"/>
	<path d="M200.4,237.9h1.1v-6.6h-1.1v-0.9h3.7c0.6,0,1.1,0,1.6,0.2c0.9,0.3,1.5,1,1.5,2.2c0,1.2-0.7,2.1-1.8,2.4v0
		c0,0,0.2,0.1,0.4,0.4l1.2,2.1c0.1,0.2,0.3,0.3,0.6,0.3h0.2v0.9h-0.7c-0.7,0-0.9-0.1-1.2-0.6l-1.3-2.3c-0.2-0.4-0.4-0.5-0.9-0.5h-1
		v2.5h1v0.9h-3.3L200.4,237.9L200.4,237.9z M204.4,234.5c0.9,0,1.5-0.6,1.5-1.6c0-0.7-0.3-1.1-0.8-1.3c-0.3-0.1-0.6-0.2-1-0.2h-1.4
		v3.1L204.4,234.5L204.4,234.5z"/>
	<path d="M209,231.3h-0.8v-0.9h3v0.9h-0.9l1.9,5.6c0.1,0.3,0.1,0.7,0.1,0.7h0c0,0,0-0.4,0.1-0.7l1.9-5.6h-0.9v-0.9h3v0.9h-0.8
		l-2.7,7.5h-1.3L209,231.3z"/>
	<path d="M217.2,237.9h1.1v-6.6h-1.1v-0.9h3.3v0.9h-1.1v6.6h1.1v0.9h-3.3V237.9z"/>
	<path d="M226,230.3c1,0,3.2,0.4,3.2,1.7v1h-1.1v-0.7c0-0.7-1.3-1-2.1-1c-1.8,0-3.1,1.3-3.1,3.2c0,2,1.4,3.4,3.2,3.4
		c0.6,0,2.1-0.2,2.1-1v-0.7h1.1v1c0,1.2-2.1,1.7-3.3,1.7c-2.5,0-4.4-2-4.4-4.4C221.7,232.1,223.6,230.3,226,230.3z"/>
	<path d="M230.7,237.9h1.1v-6.6h-1.1v-0.9h6.1v2h-1v-1h-2.8v2.7h3v1h-3v2.8h3v-1h1v2h-6.3L230.7,237.9L230.7,237.9z"/>
	<path d="M239.3,236.3v0.6c0,0.6,0.8,1,1.7,1c1,0,1.7-0.5,1.7-1.3c0-1-1-1.3-2-1.7c-1.1-0.4-2.2-0.9-2.2-2.4c0-1.6,1.3-2.3,2.7-2.3
		c1.3,0,2.6,0.5,2.6,1.4v1h-1.1v-0.6c0-0.5-0.8-0.8-1.5-0.8c-0.8,0-1.5,0.4-1.5,1.2c0,0.9,0.9,1.2,1.8,1.6c1.2,0.5,2.5,1,2.5,2.5
		c0,1.6-1.3,2.5-2.9,2.5c-1.3,0-2.8-0.6-2.8-1.8v-0.9L239.3,236.3L239.3,236.3z"/>
</g>
<rect x="23.4" y="47.5" class="st9" width="212.6" height="270.3"/>
<text transform="matrix(1 0 0 1 23.4519 290.2902)" class="st11 st12 st13">X</text>
</svg>
