<?xml version="1.0" encoding="utf-8"?>
<!-- Generator: Adobe Illustrator 23.0.1, SVG Export Plug-In . SVG Version: 6.00 Build 0)  -->
<svg version="1.1" xmlns="http://www.w3.org/2000/svg" xmlns:xlink="http://www.w3.org/1999/xlink" x="0px" y="0px"
	 viewBox="0 0 289.87 170.26" style="enable-background:new 0 0 289.87 170.26;" xml:space="preserve">
<style type="text/css">
	.st0{fill:#111111;}
	.st1{fill:#272727;}
	.st2{fill:#1E1D20;}
	.st3{fill:#1F1F1F;}
	.st4{fill:#343434;}
	.st5{fill:#252525;}
	.st6{fill:#27272A;}
	.st7{fill:#1A1A1A;}
	.st8{fill:#262523;}
	.st9{fill:#242326;}
	.st10{fill:#868689;}
	.st11{fill:url(#SVGID_1_);}
	.st12{fill:#AEAEB5;}
</style>
<g id="Layer_1">
</g>
<g id="Layer_2">
	<polygon class="st0" points="70.1,148.45 66.42,148.45 67.83,95.12 68.96,71.78 72.53,66.25 84.6,64.14 200.36,66.33 216.27,87.47 
		216.27,135.94 214.54,152.64 69.48,152.15 70.15,148.87 	"/>
	<polygon points="65.35,148.4 208.41,149.64 208.41,155.89 65.35,155.89 	"/>
	<polygon class="st1" points="209.03,55.74 250.13,55.74 258.14,89.62 252.83,104.29 206.3,98.33 	"/>
	<rect x="73.15" y="66.25" class="st2" width="132.38" height="16.18"/>
	<polygon class="st3" points="198.15,77.7 202.84,113.75 207.3,152.62 212.22,152.62 211.11,83.46 	"/>
	<path class="st4" d="M25.83,55.06l-7.67,38.56c0,0,49.66,1.5,49.66,1.5c0.52-3.43,1.05-6.86,1.57-10.3
		c0.35-2.27,0.69-4.53,1.04-6.8c0.36-2.38-0.19-5.17,1.43-7.13c2.32-2.81,8.27-2.05,11.68-2.1c4.81-0.07,9.62-0.1,14.43-0.13
		c13.34-0.07,26.68-0.08,40.03-0.07c13.09,0,26.18,0.03,39.27,0.06c6.58,0.02,13.16,0.03,19.75,0.06c0.06,0,0.12,0,0.18,0
		c0,0,6.54,0.52,7.45,4.97s1.08,13.6,1.08,13.6s4.09,7.73,6.49,7.85V55.28L25.83,55.06z"/>
	<path class="st5" d="M18.17,93.62l1,53.17c0,0,0,4.77,5.27,5.52s41.89,0,41.89,0l1.5-57.19L18.17,93.62z"/>
	<path class="st6" d="M66.37,15.76c0,0-3.87,0-4.71,4.49c-0.84,4.49,0,14.32,0,14.32l154.53,0.68V21.96c0,0,1.28-6.41-5.98-6.2
		C202.93,15.97,66.37,15.76,66.37,15.76z"/>
	<polygon class="st7" points="209.41,152.64 207.3,124.65 200.21,100.34 196.28,100.34 205.52,152.64 	"/>
	<path class="st8" d="M211.29,94.89c0,0,45.49,1.85,46.43-3.31c0.94-5.16,0,1.49,0,1.49l0.42,55.51c0,0-0.57,3.68-4.56,3.66
		c-3.99-0.02-41.36,0.39-41.36,0.39L211.29,94.89z"/>
	<path class="st9" d="M25.83,55.06v-2.79c0,0,0.31-0.83,0.93-1.45S39.6,34.25,39.6,34.25h40.26h156.82l12.87,17.45
		c0,0,0.33,0.83,0.5,1.33c0.17,0.5,0.08,2.72,0.08,2.72L25.83,55.06z"/>
	<polygon class="st10" points="27.44,54.06 27.44,52.49 29.47,50.75 247.32,52.23 248.95,53.57 248.95,54.77 	"/>
	<path d="M67.83,95.12"/>
	<linearGradient id="SVGID_1_" gradientUnits="userSpaceOnUse" x1="135.444" y1="87.4022" x2="137.1103" y2="134.0585">
		<stop  offset="0.1623" style="stop-color:#D4D4D4"/>
		<stop  offset="0.1987" style="stop-color:#DADBDD"/>
		<stop  offset="0.7312" style="stop-color:#FFFFFF"/>
	</linearGradient>
	<polygon class="st11" points="82.25,82.43 70.1,148.45 205.19,149.61 193.31,82.43 	"/>
	<path class="st12" d="M88.41,34.25v-14.5c0,0,0.61-2.28,2.28-2.28s98.3,0,98.3,0s1.98,0.46,2.89,2.13v14.65H88.41z"/>
	<g>
		<g>
			<path d="M117.68,96.42c0.43,0,0.65,0,1.06,0c1.58-2.56,2.42-3.85,4.33-6.53c-0.39,0-0.59,0-1.02,0c0.27-0.38,0.41-0.56,0.68-0.94
				c2.45,0,3.31,0,4.78,0c-0.5,0.8-0.74,1.2-1.21,1.99c-0.27,0-0.41,0-0.71,0c0.25-0.4,0.37-0.59,0.62-0.99c-0.76,0-1.18,0-2.14,0
				c-0.76,1.1-1.13,1.65-1.84,2.73c1.06,0,1.53,0,2.41,0c-0.23,0.39-0.35,0.59-0.58,0.97c-0.91,0-1.39,0-2.46,0
				c-0.71,1.1-1.05,1.65-1.7,2.73c1.12,0,1.65,0,2.64,0.01c0.22-0.4,0.33-0.6,0.55-1c0.33,0,0.49,0,0.81,0
				c-0.42,0.78-0.63,1.17-1.03,1.95c-2.05-0.01-3.15-0.01-5.76-0.02C117.34,96.97,117.45,96.79,117.68,96.42z"/>
			<path d="M124.28,96.47c0.28,0,0.41,0,0.68,0c0.73-1.57,1.11-2.35,1.93-3.95c0.09-0.18,0.08-0.26-0.03-0.26c-0.19,0-0.28,0-0.48,0
				c0.19-0.36,0.29-0.54,0.49-0.9c0.34,0,0.5,0,0.82,0c0.3,0,0.34,0.22,0.1,0.71c-0.07,0.15-0.11,0.23-0.18,0.38
				c-0.11,0.24-0.21,0.42-0.21,0.42c0.01,0,0.01,0,0.01,0c0.58-0.88,1.3-1.58,1.79-1.58c0.08,0,0.15,0.02,0.15,0.02
				c-0.19,0.46-0.28,0.69-0.46,1.15c0,0-0.07-0.04-0.18-0.04c-0.73,0-1.68,1.3-2.2,2.47c-0.28,0.63-0.42,0.95-0.69,1.58
				c0.26,0,0.39,0,0.65,0c-0.14,0.35-0.21,0.53-0.35,0.88c-0.88,0-1.33-0.01-2.26-0.01C124.02,97,124.11,96.83,124.28,96.47z"/>
			<path d="M127.94,96.48c0.25,0,0.38,0,0.63,0c0.48-1.58,0.73-2.37,1.26-3.96c0.06-0.18,0.04-0.26-0.06-0.26c-0.17,0-0.25,0-0.42,0
				c0.13-0.36,0.2-0.54,0.34-0.9c0.28,0,0.43,0,0.71,0c0.27,0,0.34,0.22,0.19,0.71c-0.05,0.15-0.07,0.23-0.11,0.38
				c-0.07,0.24-0.14,0.42-0.14,0.42c0.01,0,0.01,0,0.01,0c0.42-0.88,0.98-1.58,1.49-1.58c0.08,0,0.16,0.02,0.16,0.02
				c-0.1,0.46-0.16,0.69-0.26,1.15c0,0-0.08-0.04-0.19-0.04c-0.75,0-1.43,1.3-1.76,2.48c-0.18,0.64-0.26,0.95-0.43,1.59
				c0.25,0,0.38,0,0.63,0c-0.08,0.35-0.12,0.53-0.21,0.89c-0.87,0-1.3-0.01-2.16-0.01C127.76,97.01,127.82,96.84,127.94,96.48z"/>
			<path d="M134.36,91.21c1.19,0,2.36,1.33,2.32,3.16c-0.05,1.84-1.42,3.17-2.9,3.17c-1.48-0.01-2.35-1.33-2.01-3.17
				C132.11,92.55,133.17,91.21,134.36,91.21z M133.86,96.54c0.91,0,1.76-0.9,1.82-2.17c0.06-1.26-0.64-2.15-1.42-2.15
				c-0.79,0-1.51,0.9-1.69,2.15C132.38,95.63,132.95,96.53,133.86,96.54z"/>
			<path d="M137.58,96.51c0.34,0,0.52,0,0.88,0c0.01-1.6,0.01-2.4,0.02-4c0-0.18-0.09-0.26-0.25-0.26c-0.28,0-0.42,0-0.69,0
				c0.01-0.36,0.01-0.54,0.02-0.9c0.48,0,0.73,0,1.26,0c0.51,0,0.78,0.22,0.78,0.71c0,0.15,0,0.23,0,0.38
				c0,0.24-0.02,0.42-0.02,0.42c0.01,0,0.01,0,0.02,0c0.28-0.89,0.98-1.58,1.84-1.57c0.14,0,0.28,0.03,0.28,0.03
				c0.01,0.46,0.01,0.69,0.02,1.16c0,0-0.13-0.04-0.31-0.04c-1.21-0.01-1.79,1.29-1.79,2.48c0,0.64,0,0.96,0,1.61
				c0.36,0,0.54,0,0.9,0.01c0,0.36,0,0.54,0,0.9c-1.18-0.01-1.83-0.01-2.96-0.02C137.58,97.05,137.58,96.87,137.58,96.51z"/>
			<path d="M144.98,94.46c1.23-2.17,1.74-3.26,2.4-5.51c0.36,0,0.54,0,0.9,0c0.47,2.17,0.69,3.23,1.11,5.34
				c0.38,0,0.56,0.01,0.94,0.01c0.09,0.39,0.13,0.58,0.22,0.96c-0.39,0-0.58-0.01-0.97-0.01c0.18,0.91,0.27,1.36,0.44,2.26
				c-0.42,0-0.63-0.01-1.06-0.01c-0.14-0.9-0.22-1.35-0.36-2.26c-1.39-0.02-2.1-0.02-3.56-0.04C145.01,94.9,145,94.76,144.98,94.46z
				 M146.08,94.23c0,0.01,0,0.01,0,0.02c0.96,0.01,1.43,0.02,2.35,0.03c-0.22-1.34-0.34-2.01-0.58-3.36
				c-0.05-0.29-0.07-0.66-0.07-0.66c-0.01,0-0.02,0-0.03,0c0,0-0.04,0.31-0.12,0.57C147.13,92.2,146.81,92.88,146.08,94.23z"/>
			<path d="M151.01,93.28c-0.66-2.46-0.79-4.48,0.72-4.48c1.5,0,2.99,2.05,4.05,4.53c1.07,2.49,1.16,4.39-0.9,4.37
				C152.82,97.68,151.67,95.76,151.01,93.28z M154.78,93.32c-0.75-1.88-1.68-3.41-2.64-3.41c-0.97,0-0.74,1.51-0.17,3.39
				c0.58,1.9,1.33,3.34,2.56,3.35C155.74,96.65,155.54,95.22,154.78,93.32z"/>
			<path d="M157.21,94.59c0.38-2.19,0.45-3.3,0.6-5.63c0.48,0,0.72,0,1.23,0c1.22,2.25,1.8,3.34,2.9,5.46
				c0.45,0,0.68,0.01,1.14,0.01c0.2,0.39,0.31,0.58,0.51,0.97c-0.47,0-0.7-0.01-1.15-0.01c0.47,0.91,0.7,1.36,1.16,2.25
				c-0.46,0-0.69-0.01-1.15-0.01c-0.45-0.89-0.68-1.34-1.14-2.25c-1.57-0.02-2.32-0.02-3.77-0.04
				C157.41,95.04,157.35,94.89,157.21,94.59z M158.24,94.36c0,0.01,0.01,0.01,0.01,0.02c1,0.01,1.51,0.02,2.57,0.03
				c-0.69-1.34-1.04-2.03-1.78-3.42c-0.16-0.3-0.3-0.68-0.3-0.68c-0.01,0-0.02,0-0.03,0c0,0,0.05,0.32,0.03,0.59
				C158.57,92.31,158.48,93,158.24,94.36z"/>
			<path d="M108.75,119.59c0.29,0,0.43,0,0.72,0c0.86-1.72,1.27-2.55,2.07-4.19c-0.28,0-0.42-0.01-0.69-0.01
				c0.11-0.23,0.17-0.34,0.28-0.57c1.51,0.03,2.31,0.04,3.94,0.06c-0.22,0.49-0.32,0.73-0.54,1.23c-0.3,0-0.44-0.01-0.74-0.01
				c0.11-0.24,0.16-0.36,0.27-0.6c-0.71-0.01-1.06-0.02-1.75-0.03c-0.33,0.69-0.5,1.04-0.84,1.75c0.81,0.01,1.22,0.01,2.06,0.02
				c-0.11,0.25-0.17,0.37-0.28,0.62c-0.85-0.01-1.27-0.01-2.08-0.02c-0.33,0.69-0.5,1.04-0.85,1.74c0.33,0,0.49,0,0.83,0
				c-0.12,0.24-0.17,0.36-0.29,0.61c-1,0-1.48,0-2.41,0C108.56,119.96,108.62,119.83,108.75,119.59z"/>
			<path d="M113.62,119.63c0.29,0,0.43,0,0.73,0c0.47-1.09,0.7-1.63,1.15-2.69c-0.3,0-0.44,0-0.74-0.01
				c0.1-0.22,0.15-0.34,0.24-0.56c0.62,0.01,0.94,0.01,1.58,0.02c-0.52,1.27-0.78,1.92-1.33,3.24c0.3,0,0.45,0,0.75,0
				c-0.09,0.23-0.14,0.34-0.23,0.57c-0.98,0-1.46,0-2.41,0C113.46,119.97,113.52,119.86,113.62,119.63z M116.33,114.91
				c0.35,0.01,0.52,0.01,0.87,0.01c-0.12,0.29-0.17,0.43-0.29,0.72c-0.35,0-0.53-0.01-0.88-0.01
				C116.15,115.34,116.21,115.2,116.33,114.91z"/>
			<path d="M118.6,115.49c-0.29,0-0.44-0.01-0.73-0.01c0.08-0.22,0.13-0.33,0.21-0.55c0.62,0.01,0.94,0.01,1.57,0.02
				c-0.57,1.61-0.86,2.43-1.47,4.11c-0.12,0.32-0.1,0.55,0.32,0.55c0.15,0,0.26-0.01,0.26-0.01c-0.09,0.24-0.13,0.36-0.22,0.61
				c0,0-0.2,0.02-0.43,0.02c-0.7,0-1.21-0.23-0.87-1.12C117.8,117.64,118.07,116.92,118.6,115.49z"/>
			<path d="M122.78,116.37c1.31,0.02,1.81,0.79,1.58,1.75c-0.02,0.1-0.09,0.27-0.09,0.27c-1.4-0.01-2.11-0.01-3.51-0.02
				c-0.2,0.83,0.42,1.29,1.3,1.29c0.86,0,1.58-0.42,1.58-0.42c0.1,0.21,0.15,0.32,0.26,0.53c0,0-0.88,0.52-2.08,0.52
				c-1.58,0-2.35-0.88-1.98-1.99C120.24,117.1,121.47,116.36,122.78,116.37z M123.47,117.94c0.14-0.65-0.27-0.99-0.86-1
				c-0.68-0.01-1.34,0.35-1.67,0.98C121.95,117.92,122.45,117.93,123.47,117.94z"/>
			<path d="M127.28,119.66c0.3,0,0.45,0,0.75,0c0.16-0.98,0.23-1.46,0.38-2.43c0.02-0.11-0.05-0.16-0.17-0.16
				c-0.22,0-0.34,0-0.56-0.01c0.04-0.22,0.05-0.33,0.09-0.54c0.41,0,0.61,0.01,1.02,0.01c0.39,0,0.55,0.14,0.51,0.41
				c-0.01,0.07-0.01,0.11-0.02,0.19c-0.02,0.12-0.05,0.21-0.05,0.21c0.01,0,0.01,0,0.02,0c0.12-0.19,0.73-0.88,1.84-0.86
				c1,0.01,1.41,0.48,1.34,1.4c-0.05,0.71-0.08,1.07-0.14,1.79c0.29,0,0.43,0,0.71,0c-0.01,0.22-0.02,0.32-0.04,0.54
				c-0.63,0-0.95,0-1.6,0c0.08-0.88,0.12-1.31,0.2-2.18c0.05-0.51-0.04-0.91-0.75-0.92c-0.9-0.01-1.59,0.65-1.69,1.39
				c-0.06,0.46-0.1,0.7-0.16,1.16c0.3,0,0.45,0,0.75,0c-0.03,0.22-0.04,0.33-0.07,0.55c-0.97,0-1.46,0-2.45,0
				C127.23,119.99,127.25,119.88,127.28,119.66z"/>
			<path d="M135.94,116.54c1.19,0.02,2.09,0.81,2.08,1.89c0,1.09-0.92,1.88-2.17,1.88s-2.28-0.81-2.22-1.91
				C133.69,117.29,134.75,116.52,135.94,116.54z M135.86,119.7c0.78,0,1.4-0.53,1.4-1.28c0.01-0.74-0.59-1.28-1.34-1.29
				c-0.76-0.01-1.43,0.52-1.46,1.27C134.43,119.15,135.08,119.7,135.86,119.7z"/>
			<path d="M139.06,117.19c-0.24,0-0.36,0-0.61-0.01c0-0.21,0-0.32,0-0.53c0.25,0,0.38,0.01,0.63,0.01c0-0.39,0-0.58,0-0.97
				c0.27,0,0.4,0.01,0.67,0c0,0.39,0,0.58,0,0.97c0.35,0,0.52,0,0.89,0c0,0.21,0,0.32,0,0.53c-0.36,0-0.54,0-0.89,0
				c0,0.66,0,1,0,1.66c0,0.72,0.51,0.81,0.8,0.81c0.11,0,0.17-0.01,0.17-0.01c0,0.23,0,0.34,0,0.57c0,0-0.11,0.01-0.27,0.01
				c-0.48,0-1.39-0.14-1.39-1.33C139.06,118.22,139.06,117.88,139.06,117.19z"/>
			<path d="M143.38,119.68c0.27,0,0.41,0,0.69,0c-0.03-1-0.05-1.51-0.08-2.51c-0.29,0-0.43,0-0.72,0c0-0.21-0.01-0.32-0.01-0.53
				c0.28,0,0.42,0,0.71,0c0-0.07,0-0.11-0.01-0.18c-0.04-1.14,1-1.28,1.52-1.29c0.24,0,0.41,0.02,0.41,0.02
				c0.01,0.22,0.02,0.34,0.03,0.56c0,0-0.12-0.02-0.32-0.02c-0.28,0-0.83,0.07-0.8,0.71c0,0.08,0,0.11,0.01,0.19
				c0.43,0,0.64,0,1.08,0c0.01,0.21,0.02,0.32,0.03,0.53c-0.44,0-0.66,0-1.09,0c0.04,1,0.06,1.5,0.11,2.51c0.34,0,0.51,0,0.86,0
				c0.01,0.21,0.02,0.32,0.03,0.53c-1.01,0-1.5,0-2.44,0C143.39,120,143.39,119.9,143.38,119.68z"/>
			<path d="M149.01,116.55c1.44-0.01,2.76,0.77,2.93,1.86c0.17,1.09-0.99,1.89-2.52,1.89s-2.75-0.79-2.83-1.88
				C146.52,117.34,147.58,116.55,149.01,116.55z M149.35,119.7c0.95,0,1.69-0.54,1.59-1.29c-0.1-0.74-0.95-1.27-1.86-1.27
				c-0.92,0-1.61,0.53-1.55,1.28C147.59,119.16,148.39,119.7,149.35,119.7z"/>
			<path d="M153.18,117.15c-0.34,0-0.51,0-0.85,0c-0.03-0.21-0.05-0.32-0.09-0.53c0.72,0,1.08,0,1.81-0.01
				c0.17,0.86,0.26,1.29,0.43,2.15c0.1,0.5,0.33,0.9,1.19,0.9c1.07,0,1.57-0.7,1.39-1.41c-0.11-0.45-0.17-0.67-0.28-1.12
				c-0.34,0-0.52,0-0.86,0c-0.05-0.21-0.07-0.32-0.12-0.53c0.73,0,1.09,0,1.82-0.01c0.31,1.16,0.47,1.74,0.79,2.92
				c0.03,0.1,0.13,0.16,0.28,0.16c0.23,0,0.34,0,0.56,0c0.06,0.21,0.09,0.32,0.15,0.53c-0.45,0-0.68,0-1.13,0
				c-0.47,0-0.72-0.14-0.79-0.4c-0.02-0.06-0.02-0.09-0.04-0.16c-0.03-0.12-0.03-0.22-0.03-0.22c-0.01,0-0.01,0-0.02,0
				c-0.06,0.19-0.5,0.86-1.85,0.86c-1.17,0-1.85-0.43-2.03-1.38C153.38,118.21,153.31,117.85,153.18,117.15z"/>
			<path d="M160.09,119.67c0.33,0,0.5,0,0.83,0c-0.3-0.96-0.45-1.44-0.75-2.39c-0.03-0.11-0.13-0.16-0.27-0.16
				c-0.25,0-0.37,0-0.63,0c-0.06-0.21-0.09-0.32-0.16-0.53c0.46,0,0.68,0,1.14,0c0.44,0,0.68,0.13,0.77,0.4
				c0.02,0.07,0.04,0.11,0.06,0.18c0.04,0.11,0.04,0.21,0.04,0.21c0.01,0,0.01,0,0.02,0c0.04-0.19,0.4-0.88,1.64-0.88
				c1.13,0,1.8,0.45,2.16,1.38c0.28,0.71,0.42,1.07,0.71,1.79c0.32,0,0.48,0,0.8,0c0.09,0.22,0.13,0.33,0.22,0.54
				c-0.71,0-1.07,0-1.79,0c-0.33-0.87-0.5-1.31-0.83-2.17c-0.19-0.51-0.48-0.91-1.27-0.9c-1.01,0-1.46,0.67-1.22,1.39
				c0.15,0.46,0.23,0.69,0.38,1.15c0.33,0,0.5,0,0.83,0c0.08,0.22,0.11,0.32,0.19,0.54c-1.07,0-1.62,0-2.71,0
				C160.18,119.99,160.15,119.89,160.09,119.67z"/>
			<path d="M167.87,116.48c1.03,0,1.65,0.6,1.65,0.6c0.01,0,0.01,0,0.02,0c0,0-0.08-0.11-0.15-0.27c-0.21-0.46-0.32-0.68-0.53-1.14
				c-0.29,0-0.43,0-0.72,0c-0.1-0.21-0.14-0.32-0.24-0.53c0.63,0,0.93,0,1.53-0.01c0.81,1.72,1.22,2.59,2.07,4.36
				c0.05,0.11,0.15,0.16,0.27,0.16c0.18,0,0.26,0,0.44,0c0.11,0.22,0.16,0.33,0.26,0.55c-0.35,0-0.52,0-0.88,0
				c-0.4,0-0.64-0.16-0.75-0.4c-0.01-0.02-0.01-0.03-0.02-0.05c-0.06-0.12-0.06-0.2-0.06-0.2c-0.01,0-0.01,0-0.02,0
				c0,0-0.01,0.74-1.23,0.74c-1.28,0-2.47-0.79-2.94-1.91C166.07,117.23,166.65,116.49,167.87,116.48z M169.42,119.69
				c0.7,0,1.15-0.4,0.73-1.3c-0.31-0.67-1.01-1.3-1.87-1.29c-0.73,0-1.13,0.47-0.78,1.29C167.84,119.17,168.63,119.69,169.42,119.69
				z"/>
		</g>
	</g>
</g>
</svg>
