<svg viewBox="0 0 95 95" xmlns="http://www.w3.org/2000/svg"><path d="m47.5 0a47.5 47.5 0 1 0 47.5 47.5 47.5 47.5 0 0 0 -47.5-47.5zm22.13 35.33c-1 2.57-2 5.12-3 7.68-.34.87-.63 1.76-.94 2.64a11 11 0 0 0 -.24 6.35 37.66 37.66 0 0 1 1.26 6.58c.42 7.17-2.88 12.42-8.53 16.42a5.91 5.91 0 0 1 -2.29 1c-.66.12-1-.17-.93-.82a13.76 13.76 0 0 1 .38-1.78 41.74 41.74 0 0 0 1.32-5.86 14.64 14.64 0 0 0 -4.54-12.54c-2.85-2.77-6.31-2.78-9.21 0a14.81 14.81 0 0 0 -4.65 10.9 23.61 23.61 0 0 0 1.05 6.19c.26 1 .56 2 .73 3s-.15 1.08-1 .93a4.73 4.73 0 0 1 -1.92-.8c-5.9-4.08-9.27-9.5-8.77-16.89a47.32 47.32 0 0 1 1.23-6.45 13 13 0 0 0 -.72-7.94c-1.24-2.92-2.39-5.88-3.51-8.84a15.62 15.62 0 0 1 -1-8.65 9.71 9.71 0 0 1 3.29-5.56 8.51 8.51 0 0 1 7.77-1.66c2.24.48 4.45 1 6.66 1.65a21.07 21.07 0 0 0 11.06 0c2.21-.57 4.42-1.16 6.66-1.63a9 9 0 0 1 11.12 8.42 18 18 0 0 1 -1.28 7.66z" fill="#fff"/></svg>