<svg viewBox="0 0 95 95" xmlns="http://www.w3.org/2000/svg"><path d="m47.5 0a47.5 47.5 0 1 0 47.5 47.5 47.5 47.5 0 0 0 -47.5-47.5zm29.33 54.33c0 2.52-1.28 3.89-3.78 4.14a10.6 10.6 0 0 1 -1.26 0h-11.79c-1.59 0-1.62-.23-1.62 1.56q0 5.82 0 11.63v1.68a3.52 3.52 0 0 1 -3.65 3.47c-2.38 0-4.77 0-7.15 0s-4.48-.08-6.72 0a3.87 3.87 0 0 1 -4.19-4.14c.1-4.2 0-8.4 0-12.6 0-1.74.21-1.63-1.68-1.63h-11.79c-.37 0-.75 0-1.12 0-2.56-.22-3.88-1.61-3.89-4.19q0-6.72 0-13.45c0-2.7 1.46-4.14 4.17-4.16h12.89c1.4 0 1.41 0 1.41-1.38q0-6 0-11.9c0-.47 0-.94 0-1.41a3.8 3.8 0 0 1 3.6-3.76 7.85 7.85 0 0 1 .84 0h12.89a5.74 5.74 0 0 1 1.79.21 3.47 3.47 0 0 1 2.55 3 13.78 13.78 0 0 1 .07 1.82q0 5.88 0 11.76c0 1.63 0 1.63 1.57 1.63h12.89a3.64 3.64 0 0 1 3.77 2.54 4.64 4.64 0 0 1 .2 1.52c0 4.6.01 9.13 0 13.66z" fill="#fff"/></svg>